<?xml version="1.0" encoding="UTF-8"?>
<!DOCTYPE svg PUBLIC "-//W3C//DTD SVG 1.1//EN" "http://www.w3.org/Graphics/SVG/1.1/DTD/svg11.dtd">
<!-- Creator: CorelDRAW X6 -->
<svg xmlns="http://www.w3.org/2000/svg" xml:space="preserve" width="297mm" height="210mm" version="1.1" style="shape-rendering:geometricPrecision; text-rendering:geometricPrecision; image-rendering:optimizeQuality; fill-rule:evenodd; clip-rule:evenodd"
viewBox="0 0 29700 21000"
 xmlns:xlink="http://www.w3.org/1999/xlink">
 <defs>
  <style type="text/css">
   <![CDATA[
    .fil2 {fill:#2B2A29}
    .fil6 {fill:#FEFEFE}
    .fil3 {fill:#DC166E}
    .fil1 {fill:#2B2A29;fill-rule:nonzero}
    .fil0 {fill:#727271;fill-rule:nonzero}
    .fil4 {fill:#898989;fill-rule:nonzero}
    .fil5 {fill:#FEFEFE;fill-rule:nonzero}
   ]]>
  </style>
 </defs>
 <g id="Layer_x0020_1">
  <metadata id="CorelCorpID_0Corel-Layer"/>
  <g id="_506787640">
   <g>
    <path class="fil0" d="M1844 11881l-72 0 0 -316 -180 0 0 316 -72 0 0 -372 324 0 0 372zm480 -186c0,30 -5,56 -14,80 -9,24 -22,44 -39,61 -17,17 -37,30 -60,40 -23,9 -49,14 -76,14 -27,0 -53,-5 -76,-14 -23,-9 -43,-23 -60,-40 -17,-17 -30,-38 -39,-61 -9,-24 -14,-51 -14,-80 0,-29 5,-56 14,-80 9,-24 22,-45 39,-62 17,-17 37,-30 60,-40 23,-9 49,-14 76,-14 27,0 53,5 76,14 23,9 43,23 60,40 17,17 30,38 39,62 9,24 14,51 14,80zm-75 0c0,-42 -10,-75 -31,-100 -20,-25 -48,-37 -83,-37 -35,0 -63,12 -83,37 -20,25 -31,58 -31,100 0,42 10,75 31,100 20,25 48,37 83,37 35,0 63,-12 83,-37 20,-25 31,-58 31,-100zm516 -186l0 372 -70 0 0 -283c-16,18 -33,39 -51,64 -19,24 -37,49 -56,75 -19,26 -36,52 -54,77 -17,25 -32,48 -44,67l-64 0 0 -372 70 0 0 267c13,-20 29,-43 46,-68 17,-25 35,-49 53,-73 18,-24 37,-47 55,-69 18,-22 36,-41 52,-58l64 0zm300 380c-33,0 -61,-5 -86,-14 -25,-10 -45,-23 -62,-40 -17,-17 -29,-38 -38,-61 -8,-24 -12,-50 -12,-78 0,-29 5,-55 14,-79 9,-24 22,-44 38,-62 17,-17 37,-31 61,-41 24,-10 51,-15 80,-15 18,0 36,1 54,4 18,3 35,7 52,14l-16 56c-11,-5 -23,-9 -38,-11 -14,-3 -29,-4 -45,-4 -40,0 -71,12 -93,35 -21,23 -32,57 -32,102 0,20 2,38 7,55 5,17 13,31 23,43 11,12 24,21 41,28 17,6 37,10 61,10 19,0 36,-2 52,-5 16,-3 28,-7 36,-11l10 56c-4,2 -10,5 -18,7 -8,2 -17,4 -26,6 -10,2 -20,3 -31,4 -11,1 -22,2 -32,2zm333 -211c16,10 33,24 52,40 19,16 37,33 55,52 18,19 35,38 50,57 16,19 29,37 40,54l-85 0c-11,-16 -25,-33 -40,-50 -15,-17 -31,-33 -48,-49 -17,-16 -33,-30 -50,-44 -17,-13 -33,-25 -48,-34l0 176 -72 0 0 -372 72 0 0 159c12,-11 27,-24 43,-38 16,-15 32,-29 49,-44 16,-15 31,-29 45,-43 14,-14 25,-25 34,-34l84 0c-11,11 -25,24 -40,39 -15,15 -31,29 -47,45 -16,15 -32,30 -49,45 -16,15 -31,28 -43,40zm788 -169l0 372 -70 0 0 -283c-16,18 -33,39 -51,64 -19,24 -37,49 -56,75 -19,26 -36,52 -54,77 -17,25 -32,48 -44,67l-64 0 0 -372 70 0 0 267c13,-20 29,-43 46,-68 17,-25 35,-49 53,-73 18,-24 37,-47 55,-69 18,-22 36,-41 52,-58l64 0zm369 43c16,-12 35,-21 56,-28 21,-6 42,-10 62,-10 58,0 102,16 132,49 30,33 45,78 45,136 0,25 -4,49 -11,71 -7,23 -18,43 -34,61 -15,18 -35,32 -58,42 -23,10 -51,16 -83,16 -37,0 -67,-6 -92,-19 -24,-12 -44,-29 -58,-51 -14,-21 -24,-46 -30,-75 -6,-29 -9,-59 -9,-91 0,-41 3,-80 10,-116 6,-36 18,-67 35,-94 17,-27 41,-50 71,-68 30,-18 69,-30 117,-36 14,-2 26,-3 37,-5 11,-1 20,-2 28,-3 8,-1 15,-2 22,-3 7,-1 14,-3 21,-4l8 60c-4,1 -7,2 -11,2 -4,0 -9,1 -16,2 -7,1 -16,2 -28,4 -12,1 -27,3 -45,5 -51,5 -91,20 -118,43 -27,23 -44,60 -50,110zm-5 114c0,22 2,44 5,64 3,20 9,38 18,53 9,15 20,27 35,36 14,9 33,13 56,13 20,0 36,-3 50,-10 14,-7 25,-16 34,-28 9,-12 15,-26 19,-42 4,-16 6,-33 6,-51 0,-16 -2,-32 -5,-47 -3,-15 -9,-29 -18,-41 -9,-12 -21,-21 -35,-29 -15,-7 -33,-11 -55,-11 -22,0 -43,4 -62,13 -20,9 -35,19 -46,31 -1,5 -1,13 -1,22 0,10 0,18 0,26zm681 30c0,-43 -12,-77 -35,-100 -23,-23 -54,-35 -93,-35 -22,0 -39,1 -51,2 -12,1 -22,3 -29,5l0 234c9,7 21,13 38,19 17,6 35,9 54,9 21,0 38,-3 53,-10 15,-7 27,-16 36,-29 9,-12 16,-26 20,-43 4,-16 6,-34 6,-53zm75 0c0,28 -4,54 -12,78 -8,24 -20,44 -35,61 -16,17 -35,30 -57,40 -23,10 -48,14 -77,14 -23,0 -44,-3 -62,-9 -18,-6 -31,-11 -40,-16l0 149 -72 0 0 -492c17,-4 38,-8 64,-13 26,-5 55,-7 89,-7 31,0 59,5 84,14 25,9 46,22 64,39 18,17 31,37 41,61 10,24 14,51 14,81zm458 -1c0,30 -5,56 -14,80 -9,24 -22,44 -39,61 -17,17 -37,30 -60,40 -23,9 -49,14 -76,14 -27,0 -53,-5 -76,-14 -23,-9 -43,-23 -60,-40 -17,-17 -30,-38 -39,-61 -9,-24 -14,-51 -14,-80 0,-29 5,-56 14,-80 9,-24 22,-45 39,-62 17,-17 37,-30 60,-40 23,-9 49,-14 76,-14 27,0 53,5 76,14 23,9 43,23 60,40 17,17 30,38 39,62 9,24 14,51 14,80zm-75 0c0,-42 -10,-75 -31,-100 -20,-25 -48,-37 -83,-37 -35,0 -63,12 -83,37 -20,25 -31,58 -31,100 0,42 10,75 31,100 20,25 48,37 83,37 35,0 63,-12 83,-37 20,-25 31,-58 31,-100zm508 186l-72 0 0 -164 -186 0 0 164 -72 0 0 -372 72 0 0 151 186 0 0 -151 72 0 0 372zm463 -372l0 372 -70 0 0 -283c-16,18 -33,39 -51,64 -19,24 -37,49 -56,75 -19,26 -36,52 -54,77 -17,25 -32,48 -44,67l-64 0 0 -372 70 0 0 267c13,-20 29,-43 46,-68 17,-25 35,-49 53,-73 18,-24 37,-47 55,-69 18,-22 36,-41 52,-58l64 0zm404 187c0,-43 -12,-77 -35,-100 -23,-23 -54,-35 -93,-35 -22,0 -39,1 -51,2 -12,1 -22,3 -29,5l0 234c9,7 21,13 38,19 17,6 35,9 54,9 21,0 38,-3 53,-10 15,-7 27,-16 36,-29 9,-12 16,-26 20,-43 4,-16 6,-34 6,-53zm75 0c0,28 -4,54 -12,78 -8,24 -20,44 -35,61 -16,17 -35,30 -57,40 -23,10 -48,14 -77,14 -23,0 -44,-3 -62,-9 -18,-6 -31,-11 -40,-16l0 149 -72 0 0 -492c17,-4 38,-8 64,-13 26,-5 55,-7 89,-7 31,0 59,5 84,14 25,9 46,22 64,39 18,17 31,37 41,61 10,24 14,51 14,81zm458 -1c0,30 -5,56 -14,80 -9,24 -22,44 -39,61 -17,17 -37,30 -60,40 -23,9 -49,14 -76,14 -27,0 -53,-5 -76,-14 -23,-9 -43,-23 -60,-40 -17,-17 -30,-38 -39,-61 -9,-24 -14,-51 -14,-80 0,-29 5,-56 14,-80 9,-24 22,-45 39,-62 17,-17 37,-30 60,-40 23,-9 49,-14 76,-14 27,0 53,5 76,14 23,9 43,23 60,40 17,17 30,38 39,62 9,24 14,51 14,80zm-75 0c0,-42 -10,-75 -31,-100 -20,-25 -48,-37 -83,-37 -35,0 -63,12 -83,37 -20,25 -31,58 -31,100 0,42 10,75 31,100 20,25 48,37 83,37 35,0 63,-12 83,-37 20,-25 31,-58 31,-100zm248 136c3,0 8,1 13,1 6,0 12,1 19,1 7,0 15,0 23,1 8,0 16,0 23,0 15,0 29,-1 43,-3 14,-2 26,-5 36,-10 10,-5 18,-11 24,-19 6,-8 9,-18 9,-30 0,-12 -3,-22 -8,-30 -5,-8 -13,-14 -22,-19 -9,-5 -20,-8 -33,-10 -13,-2 -26,-3 -41,-3l-86 0 0 120zm77 -169c14,0 27,-1 38,-3 12,-2 22,-5 30,-9 9,-4 15,-10 20,-17 5,-7 7,-16 7,-27 0,-11 -3,-20 -9,-27 -6,-7 -14,-12 -24,-15 -10,-4 -21,-6 -34,-7 -13,-1 -25,-2 -38,-2 -12,0 -24,0 -36,1 -12,0 -22,1 -31,1l0 105 77 0zm-2 226c-31,0 -59,-1 -85,-4 -26,-3 -46,-6 -61,-9l0 -362c15,-3 35,-6 61,-9 26,-3 54,-4 85,-4 21,0 42,2 62,5 20,3 38,9 54,17 16,8 28,19 38,32 10,14 14,30 14,50 0,18 -5,34 -15,46 -10,13 -23,23 -40,30 22,7 40,18 53,32 13,14 20,34 20,59 0,22 -5,41 -14,56 -10,15 -23,27 -40,36 -17,9 -37,15 -59,19 -23,4 -47,5 -73,5zm416 -54c17,0 32,0 45,-1 13,-1 24,-2 33,-4l0 -111c-5,-2 -14,-4 -25,-6 -12,-2 -26,-3 -42,-3 -11,0 -22,1 -35,2 -12,1 -23,4 -33,9 -10,5 -19,11 -25,19 -7,8 -10,18 -10,31 0,24 8,40 25,50 17,9 39,14 68,14zm-6 -333c29,0 53,3 73,10 20,7 36,17 48,29 12,13 21,28 26,45 5,17 8,37 8,58l0 232c-6,1 -15,2 -26,4 -11,2 -24,3 -38,5 -14,1 -29,3 -45,4 -16,1 -32,2 -49,2 -23,0 -44,-2 -63,-6 -19,-4 -36,-11 -50,-20 -14,-9 -25,-22 -33,-37 -8,-15 -12,-34 -12,-55 0,-20 5,-38 14,-53 9,-15 21,-27 37,-36 16,-9 34,-16 54,-20 21,-4 42,-6 65,-6 7,0 15,0 23,1 8,1 15,2 22,3 7,1 13,2 18,3 5,1 9,2 11,2l0 -19c0,-11 -1,-22 -4,-33 -3,-11 -7,-20 -14,-29 -7,-8 -16,-15 -28,-20 -12,-5 -27,-8 -45,-8 -24,0 -45,2 -62,5 -18,3 -31,6 -40,10l-9 -55c9,-4 25,-8 47,-11 22,-4 45,-5 71,-5zm605 381l-72 0 0 -164 -186 0 0 164 -72 0 0 -372 72 0 0 151 186 0 0 -151 72 0 0 372zm463 -372l0 372 -70 0 0 -283c-16,18 -33,39 -51,64 -19,24 -37,49 -56,75 -19,26 -36,52 -54,77 -17,25 -32,48 -44,67l-64 0 0 -372 70 0 0 267c13,-20 29,-43 46,-68 17,-25 35,-49 53,-73 18,-24 37,-47 55,-69 18,-22 36,-41 52,-58l64 0zm102 187c0,-33 5,-62 16,-86 10,-25 24,-45 41,-61 17,-16 37,-28 59,-36 22,-8 45,-12 68,-12 54,0 96,16 125,47 29,31 43,79 43,143 0,3 0,7 0,11 0,5 0,9 -1,13l-276 0c3,39 15,68 36,88 21,20 54,30 99,30 25,0 47,-2 64,-6 17,-4 30,-8 39,-12l10 56c-9,4 -24,9 -46,14 -22,5 -47,7 -75,7 -35,0 -66,-5 -91,-15 -26,-10 -47,-23 -63,-40 -17,-17 -29,-38 -37,-61 -8,-24 -12,-49 -12,-78zm277 -36c1,-30 -8,-55 -24,-74 -17,-19 -40,-29 -69,-29 -17,0 -31,3 -44,9 -13,6 -23,14 -32,23 -9,10 -16,20 -21,33 -5,12 -8,25 -10,38l200 0zm643 -150l0 56 -131 0 0 316 -72 0 0 -316 -131 0 0 -56 334 0zm355 187c0,-43 -12,-77 -35,-100 -23,-23 -54,-35 -93,-35 -22,0 -39,1 -51,2 -12,1 -22,3 -29,5l0 234c9,7 21,13 38,19 17,6 35,9 54,9 21,0 38,-3 53,-10 15,-7 27,-16 36,-29 9,-12 16,-26 20,-43 4,-16 6,-34 6,-53zm75 0c0,28 -4,54 -12,78 -8,24 -20,44 -35,61 -16,17 -35,30 -57,40 -23,10 -48,14 -77,14 -23,0 -44,-3 -62,-9 -18,-6 -31,-11 -40,-16l0 149 -72 0 0 -492c17,-4 38,-8 64,-13 26,-5 55,-7 89,-7 31,0 59,5 84,14 25,9 46,22 64,39 18,17 31,37 41,61 10,24 14,51 14,81zm79 0c0,-33 5,-62 16,-86 10,-25 24,-45 41,-61 17,-16 37,-28 59,-36 22,-8 45,-12 68,-12 54,0 96,16 125,47 29,31 43,79 43,143 0,3 0,7 0,11 0,5 0,9 -1,13l-276 0c3,39 15,68 36,88 21,20 54,30 99,30 25,0 47,-2 64,-6 17,-4 30,-8 39,-12l10 56c-9,4 -24,9 -46,14 -22,5 -47,7 -75,7 -35,0 -66,-5 -91,-15 -26,-10 -47,-23 -63,-40 -17,-17 -29,-38 -37,-61 -8,-24 -12,-49 -12,-78zm277 -36c1,-30 -8,-55 -24,-74 -17,-19 -40,-29 -69,-29 -17,0 -31,3 -44,9 -13,6 -23,14 -32,23 -9,10 -16,20 -21,33 -5,12 -8,25 -10,38l200 0zm510 222l-72 0 0 -164 -186 0 0 164 -72 0 0 -372 72 0 0 151 186 0 0 -151 72 0 0 372zm463 -372l0 372 -70 0 0 -283c-16,18 -33,39 -51,64 -19,24 -37,49 -56,75 -19,26 -36,52 -54,77 -17,25 -32,48 -44,67l-64 0 0 -372 70 0 0 267c13,-20 29,-43 46,-68 17,-25 35,-49 53,-73 18,-24 37,-47 55,-69 18,-22 36,-41 52,-58l64 0zm404 187c0,-43 -12,-77 -35,-100 -23,-23 -54,-35 -93,-35 -22,0 -39,1 -51,2 -12,1 -22,3 -29,5l0 234c9,7 21,13 38,19 17,6 35,9 54,9 21,0 38,-3 53,-10 15,-7 27,-16 36,-29 9,-12 16,-26 20,-43 4,-16 6,-34 6,-53zm75 0c0,28 -4,54 -12,78 -8,24 -20,44 -35,61 -16,17 -35,30 -57,40 -23,10 -48,14 -77,14 -23,0 -44,-3 -62,-9 -18,-6 -31,-11 -40,-16l0 149 -72 0 0 -492c17,-4 38,-8 64,-13 26,-5 55,-7 89,-7 31,0 59,5 84,14 25,9 46,22 64,39 18,17 31,37 41,61 10,24 14,51 14,81zm458 -1c0,30 -5,56 -14,80 -9,24 -22,44 -39,61 -17,17 -37,30 -60,40 -23,9 -49,14 -76,14 -27,0 -53,-5 -76,-14 -23,-9 -43,-23 -60,-40 -17,-17 -30,-38 -39,-61 -9,-24 -14,-51 -14,-80 0,-29 5,-56 14,-80 9,-24 22,-45 39,-62 17,-17 37,-30 60,-40 23,-9 49,-14 76,-14 27,0 53,5 76,14 23,9 43,23 60,40 17,17 30,38 39,62 9,24 14,51 14,80zm-75 0c0,-42 -10,-75 -31,-100 -20,-25 -48,-37 -83,-37 -35,0 -63,12 -83,37 -20,25 -31,58 -31,100 0,42 10,75 31,100 20,25 48,37 83,37 35,0 63,-12 83,-37 20,-25 31,-58 31,-100zm248 136c3,0 8,1 13,1 6,0 12,1 19,1 7,0 15,0 23,1 8,0 16,0 23,0 15,0 29,-1 43,-3 14,-2 26,-5 36,-10 10,-5 18,-11 24,-19 6,-8 9,-18 9,-30 0,-12 -3,-22 -8,-30 -5,-8 -13,-14 -22,-19 -9,-5 -20,-8 -33,-10 -13,-2 -26,-3 -41,-3l-86 0 0 120zm77 -169c14,0 27,-1 38,-3 12,-2 22,-5 30,-9 9,-4 15,-10 20,-17 5,-7 7,-16 7,-27 0,-11 -3,-20 -9,-27 -6,-7 -14,-12 -24,-15 -10,-4 -21,-6 -34,-7 -13,-1 -25,-2 -38,-2 -12,0 -24,0 -36,1 -12,0 -22,1 -31,1l0 105 77 0zm-2 226c-31,0 -59,-1 -85,-4 -26,-3 -46,-6 -61,-9l0 -362c15,-3 35,-6 61,-9 26,-3 54,-4 85,-4 21,0 42,2 62,5 20,3 38,9 54,17 16,8 28,19 38,32 10,14 14,30 14,50 0,18 -5,34 -15,46 -10,13 -23,23 -40,30 22,7 40,18 53,32 13,14 20,34 20,59 0,22 -5,41 -14,56 -10,15 -23,27 -40,36 -17,9 -37,15 -59,19 -23,4 -47,5 -73,5zm636 -192c0,30 -5,56 -14,80 -9,24 -22,44 -39,61 -17,17 -37,30 -60,40 -23,9 -49,14 -76,14 -27,0 -53,-5 -76,-14 -23,-9 -43,-23 -60,-40 -17,-17 -30,-38 -39,-61 -9,-24 -14,-51 -14,-80 0,-29 5,-56 14,-80 9,-24 22,-45 39,-62 17,-17 37,-30 60,-40 23,-9 49,-14 76,-14 27,0 53,5 76,14 23,9 43,23 60,40 17,17 30,38 39,62 9,24 14,51 14,80zm-75 0c0,-42 -10,-75 -31,-100 -20,-25 -48,-37 -83,-37 -35,0 -63,12 -83,37 -20,25 -31,58 -31,100 0,42 10,75 31,100 20,25 48,37 83,37 35,0 63,-12 83,-37 20,-25 31,-58 31,-100z"/>
    <path class="fil0" d="M14174 11679c16,10 33,24 52,40 19,16 37,33 55,52 18,19 35,38 50,57 16,19 29,37 40,54l-85 0c-11,-16 -25,-33 -40,-50 -15,-17 -31,-33 -48,-49 -17,-16 -33,-30 -50,-44 -17,-13 -33,-25 -48,-34l0 176 -72 0 0 -372 72 0 0 159c12,-11 27,-24 43,-38 16,-15 32,-29 49,-44 16,-15 31,-29 45,-43 14,-14 25,-25 34,-34l84 0c-11,11 -25,24 -40,39 -15,15 -31,29 -47,45 -16,15 -32,30 -49,45 -16,15 -31,28 -43,40z"/>
   </g>
   <path class="fil1" d="M1852 10050c154,0 273,27 356,81 83,54 124,135 124,242 0,59 -11,109 -34,150 -23,42 -55,75 -98,101 -43,26 -95,45 -156,56 -61,12 -130,18 -208,18l-122 0 0 376 -154 0 0 -1000c43,-10 92,-16 145,-20 53,-3 102,-5 147,-5zm13 124c-65,0 -116,1 -151,4l0 398 116 0c53,0 100,-3 143,-10 42,-6 78,-17 107,-32 29,-15 51,-36 67,-62 16,-26 24,-60 24,-101 0,-39 -8,-71 -25,-97 -16,-25 -39,-46 -67,-61 -28,-15 -60,-26 -97,-31 -37,-6 -76,-9 -117,-9zm659 901l0 -1015 670 0 0 122 -517 0 0 302 460 0 0 119 -460 0 0 351 556 0 0 122 -710 0zm816 -508c0,-87 14,-164 42,-230 28,-66 66,-122 114,-166 48,-44 104,-78 168,-100 64,-22 132,-34 204,-34 71,0 138,11 200,34 63,22 118,56 166,100 48,44 85,100 113,166 28,66 42,143 42,230 0,87 -14,164 -42,230 -28,66 -66,122 -113,166 -48,44 -103,78 -166,100 -63,22 -130,34 -200,34 -72,0 -140,-11 -204,-34 -64,-22 -120,-56 -168,-100 -48,-44 -86,-100 -114,-166 -28,-66 -42,-143 -42,-230zm162 0c0,62 8,117 25,168 17,50 41,93 72,128 31,35 69,62 114,81 45,19 95,29 151,29 56,0 106,-10 151,-29 44,-19 82,-46 113,-81 31,-35 55,-78 72,-128 17,-50 25,-106 25,-168 0,-62 -8,-117 -25,-168 -17,-50 -41,-93 -72,-128 -31,-35 -69,-62 -113,-81 -44,-19 -95,-29 -151,-29 -56,0 -106,10 -151,29 -45,19 -83,46 -114,81 -31,35 -55,78 -72,128 -17,50 -25,106 -25,168zm1407 -517c154,0 273,27 356,81 83,54 124,135 124,242 0,59 -11,109 -34,150 -23,42 -55,75 -98,101 -43,26 -95,45 -156,56 -61,12 -130,18 -208,18l-122 0 0 376 -154 0 0 -1000c43,-10 92,-16 145,-20 53,-3 102,-5 147,-5zm13 124c-65,0 -116,1 -151,4l0 398 116 0c53,0 100,-3 143,-10 42,-6 78,-17 107,-32 29,-15 51,-36 67,-62 16,-26 24,-60 24,-101 0,-39 -8,-71 -25,-97 -16,-25 -39,-46 -67,-61 -28,-15 -60,-26 -97,-31 -37,-6 -76,-9 -117,-9zm1320 778l0 123 -661 0 0 -1015 154 0 0 892 507 0zm162 123l0 -1015 670 0 0 122 -517 0 0 302 460 0 0 119 -460 0 0 351 556 0 0 122 -710 0zm3411 -101c161,0 241,-51 241,-152 0,-31 -7,-58 -21,-80 -14,-22 -34,-41 -58,-57 -24,-16 -52,-30 -83,-42 -31,-12 -64,-23 -99,-35 -40,-13 -78,-27 -114,-43 -36,-16 -67,-35 -93,-57 -26,-22 -47,-48 -63,-78 -15,-30 -23,-67 -23,-110 0,-89 33,-158 98,-208 65,-50 156,-75 271,-75 67,0 127,7 181,20 54,13 94,28 120,43l-49 116c-22,-13 -55,-25 -99,-37 -44,-12 -95,-18 -153,-18 -30,0 -57,3 -82,9 -25,6 -48,15 -67,26 -19,12 -34,27 -45,45 -11,18 -17,39 -17,64 0,27 6,50 17,69 12,19 28,35 49,49 21,14 46,27 74,39 28,12 59,23 93,35 48,18 91,35 131,53 40,18 74,39 103,63 29,24 52,53 67,87 16,34 24,74 24,122 0,89 -35,157 -105,205 -70,48 -169,72 -297,72 -43,0 -83,-3 -120,-8 -36,-5 -69,-12 -97,-19 -29,-7 -53,-15 -74,-23 -21,-8 -37,-15 -48,-21l46 -117c24,13 61,27 111,42 50,16 110,23 182,23zm879 -924c154,0 273,27 356,81 83,54 124,135 124,242 0,59 -11,109 -34,150 -23,42 -55,75 -98,101 -43,26 -95,45 -156,56 -61,12 -130,18 -208,18l-122 0 0 376 -154 0 0 -1000c43,-10 92,-16 145,-20 53,-3 102,-5 147,-5zm13 124c-66,0 -116,1 -151,4l0 398 116 0c53,0 100,-3 143,-10 42,-6 78,-17 107,-32 29,-15 51,-36 67,-62 16,-26 24,-60 24,-101 0,-39 -8,-71 -25,-97 -16,-25 -39,-46 -67,-61 -28,-15 -60,-26 -97,-31 -37,-6 -76,-9 -117,-9zm615 393c0,-87 14,-164 42,-230 28,-66 66,-122 114,-166 48,-44 104,-78 168,-100 64,-22 132,-34 204,-34 71,0 138,11 200,34 63,22 118,56 166,100 48,44 85,100 113,166 28,66 42,143 42,230 0,87 -14,164 -42,230 -28,66 -66,122 -113,166 -48,44 -103,78 -166,100 -63,22 -130,34 -200,34 -72,0 -140,-11 -204,-34 -64,-22 -120,-56 -168,-100 -48,-44 -86,-100 -114,-166 -28,-66 -42,-143 -42,-230zm162 0c0,62 8,117 25,168 17,50 41,93 72,128 31,35 69,62 114,81 45,19 95,29 151,29 56,0 106,-10 151,-29 44,-19 82,-46 113,-81 31,-35 55,-78 72,-128 17,-50 25,-106 25,-168 0,-62 -8,-117 -25,-168 -17,-50 -41,-93 -72,-128 -31,-35 -69,-62 -113,-81 -44,-19 -95,-29 -151,-29 -56,0 -106,10 -151,29 -45,19 -83,46 -114,81 -31,35 -55,78 -72,128 -17,50 -25,106 -25,168zm1653 83c17,20 38,45 64,77 26,32 53,67 80,105 27,39 55,79 82,121 27,42 50,83 69,122l-168 0c-21,-37 -44,-75 -69,-113 -25,-38 -50,-74 -75,-109 -25,-35 -50,-67 -75,-97 -25,-30 -47,-57 -67,-79 -14,1 -28,1 -42,1 -14,0 -29,0 -44,0l-138 0 0 397 -154 0 0 -1000c43,-10 92,-16 145,-20 53,-3 102,-5 147,-5 154,0 272,27 353,81 81,54 121,134 121,240 0,67 -19,125 -58,173 -39,48 -95,83 -170,107zm-233 -476c-65,0 -116,1 -151,4l0 382 109 0c53,0 100,-2 143,-7 42,-5 78,-14 107,-28 29,-14 52,-33 67,-58 16,-25 24,-58 24,-99 0,-38 -8,-70 -24,-95 -16,-25 -37,-45 -64,-60 -27,-15 -59,-25 -95,-31 -36,-6 -75,-9 -116,-9zm1426 -114l0 123 -345 0 0 892 -154 0 0 -892 -345 0 0 -123 845 0zm-5536 1015c-23,-36 -50,-77 -80,-122 -30,-45 -63,-92 -97,-140 -35,-48 -71,-97 -109,-147 -38,-50 -75,-98 -112,-144 -37,-46 -73,-90 -108,-131 -35,-41 -67,-77 -97,-108l0 792 -151 0 0 -1015 122 0c50,49 103,106 159,171 57,65 113,132 168,201 55,69 108,136 157,203 49,66 91,125 124,177l0 -751 151 0 0 1015 -128 0z"/>
   <polygon class="fil2" points="7838,10160 7838,11078 7688,11078 7688,10310 "/>
   <polygon class="fil3" points="7688,10063 7838,10063 7688,10213 "/>
  </g>
  <polygon class="fil2" points="1007,12553 14808,12553 14808,15474 1007,15474 "/>
  <g id="_506787448">
   <g>
    <path class="fil4" d="M1844 15013l-72 0 0 -316 -180 0 0 316 -72 0 0 -372 324 0 0 372zm480 -186c0,30 -5,56 -14,80 -9,24 -22,44 -39,61 -17,17 -37,30 -60,40 -23,9 -49,14 -76,14 -27,0 -53,-5 -76,-14 -23,-9 -43,-23 -60,-40 -17,-17 -30,-38 -39,-61 -9,-24 -14,-51 -14,-80 0,-29 5,-56 14,-80 9,-24 22,-45 39,-62 17,-17 37,-30 60,-40 23,-9 49,-14 76,-14 27,0 53,5 76,14 23,9 43,23 60,40 17,17 30,38 39,62 9,24 14,51 14,80zm-75 0c0,-42 -10,-75 -31,-100 -20,-25 -48,-37 -83,-37 -35,0 -63,12 -83,37 -20,25 -31,58 -31,100 0,42 10,75 31,100 20,25 48,37 83,37 35,0 63,-12 83,-37 20,-25 31,-58 31,-100zm516 -186l0 372 -70 0 0 -283c-16,18 -33,39 -51,64 -19,24 -37,49 -56,75 -19,26 -36,52 -54,77 -17,25 -32,48 -44,67l-64 0 0 -372 70 0 0 267c13,-20 29,-43 46,-68 17,-25 35,-49 53,-73 18,-24 37,-47 55,-69 18,-22 36,-41 52,-58l64 0zm300 380c-33,0 -61,-5 -86,-14 -25,-10 -45,-23 -62,-40 -17,-17 -29,-38 -38,-61 -8,-24 -12,-50 -12,-78 0,-29 5,-55 14,-79 9,-24 22,-44 38,-62 17,-17 37,-31 61,-41 24,-10 51,-15 80,-15 18,0 36,1 54,4 18,3 35,7 52,14l-16 56c-11,-5 -23,-9 -38,-11 -14,-3 -29,-4 -45,-4 -40,0 -71,12 -93,35 -21,23 -32,57 -32,102 0,20 2,38 7,55 5,17 13,31 23,43 11,12 24,21 41,28 17,6 37,10 61,10 19,0 36,-2 52,-5 16,-3 28,-7 36,-11l10 56c-4,2 -10,5 -18,7 -8,2 -17,4 -26,6 -10,2 -20,3 -31,4 -11,1 -22,2 -32,2zm333 -211c16,10 33,24 52,40 19,16 37,33 55,52 18,19 35,38 50,57 16,19 29,37 40,54l-85 0c-11,-16 -25,-33 -40,-50 -15,-17 -31,-33 -48,-49 -17,-16 -33,-30 -50,-44 -17,-13 -33,-25 -48,-34l0 176 -72 0 0 -372 72 0 0 159c12,-11 27,-24 43,-38 16,-15 32,-29 49,-44 16,-15 31,-29 45,-43 14,-14 25,-25 34,-34l84 0c-11,11 -25,24 -40,39 -15,15 -31,29 -47,45 -16,15 -32,30 -49,45 -16,15 -31,28 -43,40zm788 -169l0 372 -70 0 0 -283c-16,18 -33,39 -51,64 -19,24 -37,49 -56,75 -19,26 -36,52 -54,77 -17,25 -32,48 -44,67l-64 0 0 -372 70 0 0 267c13,-20 29,-43 46,-68 17,-25 35,-49 53,-73 18,-24 37,-47 55,-69 18,-22 36,-41 52,-58l64 0zm369 43c16,-12 35,-21 56,-28 21,-6 42,-10 62,-10 58,0 102,16 132,49 30,33 45,78 45,136 0,25 -4,49 -11,71 -7,23 -18,43 -34,61 -15,18 -35,32 -58,42 -23,10 -51,16 -83,16 -37,0 -67,-6 -92,-19 -24,-12 -44,-29 -58,-51 -14,-21 -24,-46 -30,-75 -6,-29 -9,-59 -9,-91 0,-41 3,-80 10,-116 6,-36 18,-67 35,-94 17,-27 41,-50 71,-68 30,-18 69,-30 117,-36 14,-2 26,-3 37,-5 11,-1 20,-2 28,-3 8,-1 15,-2 22,-3 7,-1 14,-3 21,-4l8 60c-4,1 -7,2 -11,2 -4,0 -9,1 -16,2 -7,1 -16,2 -28,4 -12,1 -27,3 -45,5 -51,5 -91,20 -118,43 -27,23 -44,60 -50,110zm-5 114c0,22 2,44 5,64 3,20 9,38 18,53 9,15 20,27 35,36 14,9 33,13 56,13 20,0 36,-3 50,-10 14,-7 25,-16 34,-28 9,-12 15,-26 19,-42 4,-16 6,-33 6,-51 0,-16 -2,-32 -5,-47 -3,-15 -9,-29 -18,-41 -9,-12 -21,-21 -35,-29 -15,-7 -33,-11 -55,-11 -22,0 -43,4 -62,13 -20,9 -35,19 -46,31 -1,5 -1,13 -1,22 0,10 0,18 0,26zm681 30c0,-43 -12,-77 -35,-100 -23,-23 -54,-35 -93,-35 -22,0 -39,1 -51,2 -12,1 -22,3 -29,5l0 234c9,7 21,13 38,19 17,6 35,9 54,9 21,0 38,-3 53,-10 15,-7 27,-16 36,-29 9,-12 16,-26 20,-43 4,-16 6,-34 6,-53zm75 0c0,28 -4,54 -12,78 -8,24 -20,44 -35,61 -16,17 -35,30 -57,40 -23,10 -48,14 -77,14 -23,0 -44,-3 -62,-9 -18,-6 -31,-11 -40,-16l0 149 -72 0 0 -492c17,-4 38,-8 64,-13 26,-5 55,-7 89,-7 31,0 59,5 84,14 25,9 46,22 64,39 18,17 31,37 41,61 10,24 14,51 14,81zm458 -1c0,30 -5,56 -14,80 -9,24 -22,44 -39,61 -17,17 -37,30 -60,40 -23,9 -49,14 -76,14 -27,0 -53,-5 -76,-14 -23,-9 -43,-23 -60,-40 -17,-17 -30,-38 -39,-61 -9,-24 -14,-51 -14,-80 0,-29 5,-56 14,-80 9,-24 22,-45 39,-62 17,-17 37,-30 60,-40 23,-9 49,-14 76,-14 27,0 53,5 76,14 23,9 43,23 60,40 17,17 30,38 39,62 9,24 14,51 14,80zm-75 0c0,-42 -10,-75 -31,-100 -20,-25 -48,-37 -83,-37 -35,0 -63,12 -83,37 -20,25 -31,58 -31,100 0,42 10,75 31,100 20,25 48,37 83,37 35,0 63,-12 83,-37 20,-25 31,-58 31,-100zm508 186l-72 0 0 -164 -186 0 0 164 -72 0 0 -372 72 0 0 151 186 0 0 -151 72 0 0 372zm463 -372l0 372 -70 0 0 -283c-16,18 -33,39 -51,64 -19,24 -37,49 -56,75 -19,26 -36,52 -54,77 -17,25 -32,48 -44,67l-64 0 0 -372 70 0 0 267c13,-20 29,-43 46,-68 17,-25 35,-49 53,-73 18,-24 37,-47 55,-69 18,-22 36,-41 52,-58l64 0zm404 187c0,-43 -12,-77 -35,-100 -23,-23 -54,-35 -93,-35 -22,0 -39,1 -51,2 -12,1 -22,3 -29,5l0 234c9,7 21,13 38,19 17,6 35,9 54,9 21,0 38,-3 53,-10 15,-7 27,-16 36,-29 9,-12 16,-26 20,-43 4,-16 6,-34 6,-53zm75 0c0,28 -4,54 -12,78 -8,24 -20,44 -35,61 -16,17 -35,30 -57,40 -23,10 -48,14 -77,14 -23,0 -44,-3 -62,-9 -18,-6 -31,-11 -40,-16l0 149 -72 0 0 -492c17,-4 38,-8 64,-13 26,-5 55,-7 89,-7 31,0 59,5 84,14 25,9 46,22 64,39 18,17 31,37 41,61 10,24 14,51 14,81zm458 -1c0,30 -5,56 -14,80 -9,24 -22,44 -39,61 -17,17 -37,30 -60,40 -23,9 -49,14 -76,14 -27,0 -53,-5 -76,-14 -23,-9 -43,-23 -60,-40 -17,-17 -30,-38 -39,-61 -9,-24 -14,-51 -14,-80 0,-29 5,-56 14,-80 9,-24 22,-45 39,-62 17,-17 37,-30 60,-40 23,-9 49,-14 76,-14 27,0 53,5 76,14 23,9 43,23 60,40 17,17 30,38 39,62 9,24 14,51 14,80zm-75 0c0,-42 -10,-75 -31,-100 -20,-25 -48,-37 -83,-37 -35,0 -63,12 -83,37 -20,25 -31,58 -31,100 0,42 10,75 31,100 20,25 48,37 83,37 35,0 63,-12 83,-37 20,-25 31,-58 31,-100zm248 136c3,0 8,1 13,1 6,0 12,1 19,1 7,0 15,0 23,1 8,0 16,0 23,0 15,0 29,-1 43,-3 14,-2 26,-5 36,-10 10,-5 18,-11 24,-19 6,-8 9,-18 9,-30 0,-12 -3,-22 -8,-30 -5,-8 -13,-14 -22,-19 -9,-5 -20,-8 -33,-10 -13,-2 -26,-3 -41,-3l-86 0 0 120zm77 -169c14,0 27,-1 38,-3 12,-2 22,-5 30,-9 9,-4 15,-10 20,-17 5,-7 7,-16 7,-27 0,-11 -3,-20 -9,-27 -6,-7 -14,-12 -24,-15 -10,-4 -21,-6 -34,-7 -13,-1 -25,-2 -38,-2 -12,0 -24,0 -36,1 -12,0 -22,1 -31,1l0 105 77 0zm-2 226c-31,0 -59,-1 -85,-4 -26,-3 -46,-6 -61,-9l0 -362c15,-3 35,-6 61,-9 26,-3 54,-4 85,-4 21,0 42,2 62,5 20,3 38,9 54,17 16,8 28,19 38,32 10,14 14,30 14,50 0,18 -5,34 -15,46 -10,13 -23,23 -40,30 22,7 40,18 53,32 13,14 20,34 20,59 0,22 -5,41 -14,56 -10,15 -23,27 -40,36 -17,9 -37,15 -59,19 -23,4 -47,5 -73,5zm416 -54c17,0 32,0 45,-1 13,-1 24,-2 33,-4l0 -111c-5,-2 -14,-4 -25,-6 -12,-2 -26,-3 -42,-3 -11,0 -22,1 -35,2 -12,1 -23,4 -33,9 -10,5 -19,11 -25,19 -7,8 -10,18 -10,31 0,24 8,40 25,50 17,9 39,14 68,14zm-6 -333c29,0 53,3 73,10 20,7 36,17 48,29 12,13 21,28 26,45 5,17 8,37 8,58l0 232c-6,1 -15,2 -26,4 -11,2 -24,3 -38,5 -14,1 -29,3 -45,4 -16,1 -32,2 -49,2 -23,0 -44,-2 -63,-6 -19,-4 -36,-11 -50,-20 -14,-9 -25,-22 -33,-37 -8,-15 -12,-34 -12,-55 0,-20 5,-38 14,-53 9,-15 21,-27 37,-36 16,-9 34,-16 54,-20 21,-4 42,-6 65,-6 7,0 15,0 23,1 8,1 15,2 22,3 7,1 13,2 18,3 5,1 9,2 11,2l0 -19c0,-11 -1,-22 -4,-33 -3,-11 -7,-20 -14,-29 -7,-8 -16,-15 -28,-20 -12,-5 -27,-8 -45,-8 -24,0 -45,2 -62,5 -18,3 -31,6 -40,10l-9 -55c9,-4 25,-8 47,-11 22,-4 45,-5 71,-5zm605 381l-72 0 0 -164 -186 0 0 164 -72 0 0 -372 72 0 0 151 186 0 0 -151 72 0 0 372zm463 -372l0 372 -70 0 0 -283c-16,18 -33,39 -51,64 -19,24 -37,49 -56,75 -19,26 -36,52 -54,77 -17,25 -32,48 -44,67l-64 0 0 -372 70 0 0 267c13,-20 29,-43 46,-68 17,-25 35,-49 53,-73 18,-24 37,-47 55,-69 18,-22 36,-41 52,-58l64 0zm102 187c0,-33 5,-62 16,-86 10,-25 24,-45 41,-61 17,-16 37,-28 59,-36 22,-8 45,-12 68,-12 54,0 96,16 125,47 29,31 43,79 43,143 0,3 0,7 0,11 0,5 0,9 -1,13l-276 0c3,39 15,68 36,88 21,20 54,30 99,30 25,0 47,-2 64,-6 17,-4 30,-8 39,-12l10 56c-9,4 -24,9 -46,14 -22,5 -47,7 -75,7 -35,0 -66,-5 -91,-15 -26,-10 -47,-23 -63,-40 -17,-17 -29,-38 -37,-61 -8,-24 -12,-49 -12,-78zm277 -36c1,-30 -8,-55 -24,-74 -17,-19 -40,-29 -69,-29 -17,0 -31,3 -44,9 -13,6 -23,14 -32,23 -9,10 -16,20 -21,33 -5,12 -8,25 -10,38l200 0zm643 -150l0 56 -131 0 0 316 -72 0 0 -316 -131 0 0 -56 334 0zm355 187c0,-43 -12,-77 -35,-100 -23,-23 -54,-35 -93,-35 -22,0 -39,1 -51,2 -12,1 -22,3 -29,5l0 234c9,7 21,13 38,19 17,6 35,9 54,9 21,0 38,-3 53,-10 15,-7 27,-16 36,-29 9,-12 16,-26 20,-43 4,-16 6,-34 6,-53zm75 0c0,28 -4,54 -12,78 -8,24 -20,44 -35,61 -16,17 -35,30 -57,40 -23,10 -48,14 -77,14 -23,0 -44,-3 -62,-9 -18,-6 -31,-11 -40,-16l0 149 -72 0 0 -492c17,-4 38,-8 64,-13 26,-5 55,-7 89,-7 31,0 59,5 84,14 25,9 46,22 64,39 18,17 31,37 41,61 10,24 14,51 14,81zm79 0c0,-33 5,-62 16,-86 10,-25 24,-45 41,-61 17,-16 37,-28 59,-36 22,-8 45,-12 68,-12 54,0 96,16 125,47 29,31 43,79 43,143 0,3 0,7 0,11 0,5 0,9 -1,13l-276 0c3,39 15,68 36,88 21,20 54,30 99,30 25,0 47,-2 64,-6 17,-4 30,-8 39,-12l10 56c-9,4 -24,9 -46,14 -22,5 -47,7 -75,7 -35,0 -66,-5 -91,-15 -26,-10 -47,-23 -63,-40 -17,-17 -29,-38 -37,-61 -8,-24 -12,-49 -12,-78zm277 -36c1,-30 -8,-55 -24,-74 -17,-19 -40,-29 -69,-29 -17,0 -31,3 -44,9 -13,6 -23,14 -32,23 -9,10 -16,20 -21,33 -5,12 -8,25 -10,38l200 0zm510 222l-72 0 0 -164 -186 0 0 164 -72 0 0 -372 72 0 0 151 186 0 0 -151 72 0 0 372zm463 -372l0 372 -70 0 0 -283c-16,18 -33,39 -51,64 -19,24 -37,49 -56,75 -19,26 -36,52 -54,77 -17,25 -32,48 -44,67l-64 0 0 -372 70 0 0 267c13,-20 29,-43 46,-68 17,-25 35,-49 53,-73 18,-24 37,-47 55,-69 18,-22 36,-41 52,-58l64 0zm404 187c0,-43 -12,-77 -35,-100 -23,-23 -54,-35 -93,-35 -22,0 -39,1 -51,2 -12,1 -22,3 -29,5l0 234c9,7 21,13 38,19 17,6 35,9 54,9 21,0 38,-3 53,-10 15,-7 27,-16 36,-29 9,-12 16,-26 20,-43 4,-16 6,-34 6,-53zm75 0c0,28 -4,54 -12,78 -8,24 -20,44 -35,61 -16,17 -35,30 -57,40 -23,10 -48,14 -77,14 -23,0 -44,-3 -62,-9 -18,-6 -31,-11 -40,-16l0 149 -72 0 0 -492c17,-4 38,-8 64,-13 26,-5 55,-7 89,-7 31,0 59,5 84,14 25,9 46,22 64,39 18,17 31,37 41,61 10,24 14,51 14,81zm458 -1c0,30 -5,56 -14,80 -9,24 -22,44 -39,61 -17,17 -37,30 -60,40 -23,9 -49,14 -76,14 -27,0 -53,-5 -76,-14 -23,-9 -43,-23 -60,-40 -17,-17 -30,-38 -39,-61 -9,-24 -14,-51 -14,-80 0,-29 5,-56 14,-80 9,-24 22,-45 39,-62 17,-17 37,-30 60,-40 23,-9 49,-14 76,-14 27,0 53,5 76,14 23,9 43,23 60,40 17,17 30,38 39,62 9,24 14,51 14,80zm-75 0c0,-42 -10,-75 -31,-100 -20,-25 -48,-37 -83,-37 -35,0 -63,12 -83,37 -20,25 -31,58 -31,100 0,42 10,75 31,100 20,25 48,37 83,37 35,0 63,-12 83,-37 20,-25 31,-58 31,-100zm248 136c3,0 8,1 13,1 6,0 12,1 19,1 7,0 15,0 23,1 8,0 16,0 23,0 15,0 29,-1 43,-3 14,-2 26,-5 36,-10 10,-5 18,-11 24,-19 6,-8 9,-18 9,-30 0,-12 -3,-22 -8,-30 -5,-8 -13,-14 -22,-19 -9,-5 -20,-8 -33,-10 -13,-2 -26,-3 -41,-3l-86 0 0 120zm77 -169c14,0 27,-1 38,-3 12,-2 22,-5 30,-9 9,-4 15,-10 20,-17 5,-7 7,-16 7,-27 0,-11 -3,-20 -9,-27 -6,-7 -14,-12 -24,-15 -10,-4 -21,-6 -34,-7 -13,-1 -25,-2 -38,-2 -12,0 -24,0 -36,1 -12,0 -22,1 -31,1l0 105 77 0zm-2 226c-31,0 -59,-1 -85,-4 -26,-3 -46,-6 -61,-9l0 -362c15,-3 35,-6 61,-9 26,-3 54,-4 85,-4 21,0 42,2 62,5 20,3 38,9 54,17 16,8 28,19 38,32 10,14 14,30 14,50 0,18 -5,34 -15,46 -10,13 -23,23 -40,30 22,7 40,18 53,32 13,14 20,34 20,59 0,22 -5,41 -14,56 -10,15 -23,27 -40,36 -17,9 -37,15 -59,19 -23,4 -47,5 -73,5zm636 -192c0,30 -5,56 -14,80 -9,24 -22,44 -39,61 -17,17 -37,30 -60,40 -23,9 -49,14 -76,14 -27,0 -53,-5 -76,-14 -23,-9 -43,-23 -60,-40 -17,-17 -30,-38 -39,-61 -9,-24 -14,-51 -14,-80 0,-29 5,-56 14,-80 9,-24 22,-45 39,-62 17,-17 37,-30 60,-40 23,-9 49,-14 76,-14 27,0 53,5 76,14 23,9 43,23 60,40 17,17 30,38 39,62 9,24 14,51 14,80zm-75 0c0,-42 -10,-75 -31,-100 -20,-25 -48,-37 -83,-37 -35,0 -63,12 -83,37 -20,25 -31,58 -31,100 0,42 10,75 31,100 20,25 48,37 83,37 35,0 63,-12 83,-37 20,-25 31,-58 31,-100z"/>
    <path class="fil4" d="M14174 14811c16,10 33,24 52,40 19,16 37,33 55,52 18,19 35,38 50,57 16,19 29,37 40,54l-85 0c-11,-16 -25,-33 -40,-50 -15,-17 -31,-33 -48,-49 -17,-16 -33,-30 -50,-44 -17,-13 -33,-25 -48,-34l0 176 -72 0 0 -372 72 0 0 159c12,-11 27,-24 43,-38 16,-15 32,-29 49,-44 16,-15 31,-29 45,-43 14,-14 25,-25 34,-34l84 0c-11,11 -25,24 -40,39 -15,15 -31,29 -47,45 -16,15 -32,30 -49,45 -16,15 -31,28 -43,40z"/>
   </g>
   <path class="fil5" d="M1852 13182c154,0 273,27 356,81 83,54 124,135 124,242 0,59 -11,109 -34,150 -23,42 -55,75 -98,101 -43,26 -95,45 -156,56 -61,12 -130,18 -208,18l-122 0 0 376 -154 0 0 -1000c43,-10 92,-16 145,-20 53,-3 102,-5 147,-5zm13 124c-65,0 -116,1 -151,4l0 398 116 0c53,0 100,-3 143,-10 42,-6 78,-17 107,-32 29,-15 51,-36 67,-62 16,-26 24,-60 24,-101 0,-39 -8,-71 -25,-97 -16,-25 -39,-46 -67,-61 -28,-15 -60,-26 -97,-31 -37,-6 -76,-9 -117,-9zm659 901l0 -1015 670 0 0 122 -517 0 0 302 460 0 0 119 -460 0 0 351 556 0 0 122 -710 0zm816 -508c0,-87 14,-164 42,-230 28,-66 66,-122 114,-166 48,-44 104,-78 168,-100 64,-22 132,-34 204,-34 71,0 138,11 200,34 63,22 118,56 166,100 48,44 85,100 113,166 28,66 42,143 42,230 0,87 -14,164 -42,230 -28,66 -66,122 -113,166 -48,44 -103,78 -166,100 -63,22 -130,34 -200,34 -72,0 -140,-11 -204,-34 -64,-22 -120,-56 -168,-100 -48,-44 -86,-100 -114,-166 -28,-66 -42,-143 -42,-230zm162 0c0,62 8,117 25,168 17,50 41,93 72,128 31,35 69,62 114,81 45,19 95,29 151,29 56,0 106,-10 151,-29 44,-19 82,-46 113,-81 31,-35 55,-78 72,-128 17,-50 25,-106 25,-168 0,-62 -8,-117 -25,-168 -17,-50 -41,-93 -72,-128 -31,-35 -69,-62 -113,-81 -44,-19 -95,-29 -151,-29 -56,0 -106,10 -151,29 -45,19 -83,46 -114,81 -31,35 -55,78 -72,128 -17,50 -25,106 -25,168zm1407 -517c154,0 273,27 356,81 83,54 124,135 124,242 0,59 -11,109 -34,150 -23,42 -55,75 -98,101 -43,26 -95,45 -156,56 -61,12 -130,18 -208,18l-122 0 0 376 -154 0 0 -1000c43,-10 92,-16 145,-20 53,-3 102,-5 147,-5zm13 124c-65,0 -116,1 -151,4l0 398 116 0c53,0 100,-3 143,-10 42,-6 78,-17 107,-32 29,-15 51,-36 67,-62 16,-26 24,-60 24,-101 0,-39 -8,-71 -25,-97 -16,-25 -39,-46 -67,-61 -28,-15 -60,-26 -97,-31 -37,-6 -76,-9 -117,-9zm1320 778l0 123 -661 0 0 -1015 154 0 0 892 507 0zm162 123l0 -1015 670 0 0 122 -517 0 0 302 460 0 0 119 -460 0 0 351 556 0 0 122 -710 0zm3411 -101c161,0 241,-51 241,-152 0,-31 -7,-58 -21,-80 -14,-22 -34,-41 -58,-57 -24,-16 -52,-30 -83,-42 -31,-12 -64,-23 -99,-35 -40,-13 -78,-27 -114,-43 -36,-16 -67,-35 -93,-57 -26,-22 -47,-48 -63,-78 -15,-30 -23,-67 -23,-110 0,-89 33,-158 98,-208 65,-50 156,-75 271,-75 67,0 127,7 181,20 54,13 94,28 120,43l-49 116c-22,-13 -55,-25 -99,-37 -44,-12 -95,-18 -153,-18 -30,0 -57,3 -82,9 -25,6 -48,15 -67,26 -19,12 -34,27 -45,45 -11,18 -17,39 -17,64 0,27 6,50 17,69 12,19 28,35 49,49 21,14 46,27 74,39 28,12 59,23 93,35 48,18 91,35 131,53 40,18 74,39 103,63 29,24 52,53 67,87 16,34 24,74 24,122 0,89 -35,157 -105,205 -70,48 -169,72 -297,72 -43,0 -83,-3 -120,-8 -36,-5 -69,-12 -97,-19 -29,-7 -53,-15 -74,-23 -21,-8 -37,-15 -48,-21l46 -117c24,13 61,27 111,42 50,16 110,23 182,23zm879 -924c154,0 273,27 356,81 83,54 124,135 124,242 0,59 -11,109 -34,150 -23,42 -55,75 -98,101 -43,26 -95,45 -156,56 -61,12 -130,18 -208,18l-122 0 0 376 -154 0 0 -1000c43,-10 92,-16 145,-20 53,-3 102,-5 147,-5zm13 124c-66,0 -116,1 -151,4l0 398 116 0c53,0 100,-3 143,-10 42,-6 78,-17 107,-32 29,-15 51,-36 67,-62 16,-26 24,-60 24,-101 0,-39 -8,-71 -25,-97 -16,-25 -39,-46 -67,-61 -28,-15 -60,-26 -97,-31 -37,-6 -76,-9 -117,-9zm615 393c0,-87 14,-164 42,-230 28,-66 66,-122 114,-166 48,-44 104,-78 168,-100 64,-22 132,-34 204,-34 71,0 138,11 200,34 63,22 118,56 166,100 48,44 85,100 113,166 28,66 42,143 42,230 0,87 -14,164 -42,230 -28,66 -66,122 -113,166 -48,44 -103,78 -166,100 -63,22 -130,34 -200,34 -72,0 -140,-11 -204,-34 -64,-22 -120,-56 -168,-100 -48,-44 -86,-100 -114,-166 -28,-66 -42,-143 -42,-230zm162 0c0,62 8,117 25,168 17,50 41,93 72,128 31,35 69,62 114,81 45,19 95,29 151,29 56,0 106,-10 151,-29 44,-19 82,-46 113,-81 31,-35 55,-78 72,-128 17,-50 25,-106 25,-168 0,-62 -8,-117 -25,-168 -17,-50 -41,-93 -72,-128 -31,-35 -69,-62 -113,-81 -44,-19 -95,-29 -151,-29 -56,0 -106,10 -151,29 -45,19 -83,46 -114,81 -31,35 -55,78 -72,128 -17,50 -25,106 -25,168zm1653 83c17,20 38,45 64,77 26,32 53,67 80,105 27,39 55,79 82,121 27,42 50,83 69,122l-168 0c-21,-37 -44,-75 -69,-113 -25,-38 -50,-74 -75,-109 -25,-35 -50,-67 -75,-97 -25,-30 -47,-57 -67,-79 -14,1 -28,1 -42,1 -14,0 -29,0 -44,0l-138 0 0 397 -154 0 0 -1000c43,-10 92,-16 145,-20 53,-3 102,-5 147,-5 154,0 272,27 353,81 81,54 121,134 121,240 0,67 -19,125 -58,173 -39,48 -95,83 -170,107zm-233 -476c-65,0 -116,1 -151,4l0 382 109 0c53,0 100,-2 143,-7 42,-5 78,-14 107,-28 29,-14 52,-33 67,-58 16,-25 24,-58 24,-99 0,-38 -8,-70 -24,-95 -16,-25 -37,-45 -64,-60 -27,-15 -59,-25 -95,-31 -36,-6 -75,-9 -116,-9zm1426 -114l0 123 -345 0 0 892 -154 0 0 -892 -345 0 0 -123 845 0zm-5536 1015c-23,-36 -50,-77 -80,-122 -30,-45 -63,-92 -97,-140 -35,-48 -71,-97 -109,-147 -38,-50 -75,-98 -112,-144 -37,-46 -73,-90 -108,-131 -35,-41 -67,-77 -97,-108l0 792 -151 0 0 -1015 122 0c50,49 103,106 159,171 57,65 113,132 168,201 55,69 108,136 157,203 49,66 91,125 124,177l0 -751 151 0 0 1015 -128 0z"/>
   <polygon class="fil6" points="7838,13293 7838,14211 7688,14211 7688,13443 "/>
   <polygon class="fil3" points="7688,13196 7838,13196 7688,13346 "/>
  </g>
  <path class="fil1" d="M11804 3554l0 -762 147 0 0 649 304 0 0 -649 147 0 0 649 304 0 0 -649 147 0 0 762 -1051 0zm1876 -379c0,-89 -24,-157 -71,-205 -48,-48 -111,-72 -190,-72 -44,0 -79,1 -104,4 -25,3 -45,6 -59,10l0 480c18,14 44,27 78,40 34,13 71,19 111,19 42,0 78,-7 109,-21 30,-14 55,-34 74,-59 19,-25 33,-54 41,-88 8,-34 13,-70 13,-109zm154 0c0,58 -8,111 -25,160 -16,49 -40,91 -72,126 -32,35 -71,62 -116,82 -46,20 -99,29 -158,29 -48,0 -90,-6 -126,-18 -36,-12 -64,-23 -82,-34l0 305 -147 0 0 -1009c35,-8 78,-16 131,-26 52,-9 113,-14 181,-14 63,0 120,9 171,28 51,19 94,45 130,79 36,34 64,76 83,125 20,49 29,105 29,166zm900 -382l0 762 -143 0 0 -580c-32,37 -67,81 -105,130 -38,50 -76,101 -114,155 -38,53 -74,106 -109,157 -35,52 -65,98 -90,138l-132 0 0 -762 143 0 0 548c27,-42 59,-88 93,-138 35,-50 71,-100 109,-149 38,-49 75,-97 112,-142 38,-45 73,-85 105,-118l130 0zm357 381c0,43 8,81 23,114 15,33 37,61 64,84 27,23 60,41 97,53 38,12 78,19 121,20l0 -542c-43,1 -84,8 -121,21 -38,13 -70,31 -97,53 -27,23 -49,51 -64,84 -15,33 -23,71 -23,113zm448 271c43,-1 84,-8 121,-20 38,-12 70,-30 97,-53 27,-23 49,-51 64,-84 15,-33 23,-71 23,-114 0,-42 -8,-80 -23,-113 -15,-33 -37,-61 -64,-84 -27,-23 -60,-41 -97,-53 -38,-13 -78,-20 -121,-21l0 542zm0 381l-143 0 0 -267c-62,-1 -121,-10 -176,-28 -55,-18 -103,-43 -145,-75 -42,-33 -75,-73 -99,-120 -24,-47 -36,-101 -36,-162 0,-61 12,-114 36,-162 24,-47 57,-87 99,-120 42,-33 90,-58 145,-75 55,-18 114,-27 176,-28l0 -347 143 -23 0 371c61,1 120,10 175,28 55,18 104,43 146,75 42,33 75,73 99,120 24,47 36,101 36,162 0,61 -12,114 -36,162 -24,47 -57,87 -99,120 -42,33 -90,58 -146,75 -55,18 -114,27 -175,28l0 267zm1244 -1033l0 114 -268 0 0 647 -147 0 0 -647 -268 0 0 -114 683 0zm-4506 2425c-72,0 -134,-10 -187,-31 -53,-21 -96,-49 -130,-84 -34,-36 -59,-78 -75,-127 -16,-49 -25,-102 -25,-158l0 -637 154 0 0 621c0,102 24,175 73,221 49,46 112,69 190,69 39,0 75,-6 107,-17 32,-11 60,-29 83,-52 23,-23 41,-53 54,-90 13,-37 19,-80 19,-131l0 -621 154 0 0 637c0,57 -8,109 -25,158 -16,49 -42,91 -76,127 -34,36 -78,64 -130,84 -52,21 -114,31 -186,31zm819 -750c18,-11 45,-22 82,-34 36,-12 78,-18 126,-18 59,0 112,10 158,29 46,20 85,47 116,82 32,35 56,77 72,126 16,49 25,103 25,161 0,62 -10,117 -29,166 -20,49 -47,91 -83,125 -36,34 -79,61 -130,79 -51,19 -108,28 -171,28 -69,0 -129,-4 -182,-13 -53,-9 -96,-18 -130,-26l0 -1091 147 -23 0 409zm0 609c15,4 36,8 63,11 27,3 60,5 101,5 79,0 143,-24 190,-72 48,-48 71,-117 71,-206 0,-39 -4,-76 -13,-110 -8,-34 -22,-64 -41,-89 -19,-25 -44,-44 -74,-59 -30,-14 -66,-21 -109,-21 -40,0 -77,6 -111,19 -34,13 -60,26 -78,40l0 482zm1442 97c-34,8 -78,16 -134,25 -55,9 -120,13 -193,13 -63,0 -117,-9 -160,-26 -43,-17 -78,-41 -105,-73 -26,-31 -45,-68 -57,-111 -12,-42 -17,-90 -17,-141l0 -428 147 0 0 398c0,93 16,159 48,199 32,40 85,60 160,60 16,0 32,0 49,-1 17,-1 33,-2 48,-4 15,-1 28,-3 40,-4 12,-1 21,-3 26,-5l0 -643 147 0 0 740zm254 -718c34,-8 79,-16 135,-25 56,-9 120,-13 193,-13 65,0 120,9 163,26 43,17 78,41 104,72 26,31 44,68 55,111 11,43 16,90 16,142l0 428 -147 0 0 -398c0,-47 -3,-87 -10,-120 -7,-33 -18,-60 -34,-81 -16,-21 -37,-35 -63,-45 -26,-9 -59,-14 -98,-14 -16,0 -32,0 -49,1 -17,1 -33,2 -48,4 -15,1 -29,3 -41,5 -12,2 -21,3 -26,4l0 643 -147 0 0 -740zm1047 -22l312 0 0 114 -312 0 0 352c0,38 3,70 10,94 6,25 16,44 29,59 13,14 29,24 48,30 19,6 41,9 67,9 44,0 80,-5 107,-14 27,-9 46,-16 56,-20l29 113c-15,7 -41,15 -78,26 -37,10 -79,15 -127,15 -56,0 -102,-7 -139,-20 -36,-13 -66,-33 -88,-59 -22,-26 -38,-59 -47,-97 -9,-39 -13,-83 -13,-134l0 -680 147 -23 0 236zm1155 740c-34,8 -78,16 -134,25 -55,9 -120,13 -193,13 -63,0 -117,-9 -160,-26 -43,-17 -78,-41 -105,-73 -26,-31 -45,-68 -57,-111 -12,-42 -17,-90 -17,-141l0 -428 147 0 0 398c0,93 16,159 48,199 32,40 85,60 160,60 16,0 32,0 49,-1 17,-1 33,-2 48,-4 15,-1 28,-3 40,-4 12,-1 21,-3 26,-5l0 -643 147 0 0 740z"/>
  <polygon class="fil3" points="1334,6959 3122,6959 1334,8743 "/>
  <g id="_506787232">
   <path class="fil1" d="M16076 10050c154,0 273,27 356,81 83,54 124,135 124,242 0,59 -11,109 -34,150 -23,42 -55,75 -98,101 -43,26 -95,45 -156,56 -61,12 -130,18 -208,18l-122 0 0 376 -154 0 0 -1000c43,-10 92,-16 145,-20 53,-3 102,-5 147,-5zm13 124c-65,0 -116,1 -151,4l0 398 116 0c53,0 100,-3 143,-10 42,-6 78,-17 107,-32 29,-15 51,-36 67,-62 16,-26 24,-60 24,-101 0,-39 -8,-71 -25,-97 -16,-25 -39,-46 -67,-61 -28,-15 -60,-26 -97,-31 -37,-6 -76,-9 -117,-9zm659 901l0 -1015 670 0 0 122 -517 0 0 302 460 0 0 119 -460 0 0 351 556 0 0 122 -710 0zm816 -508c0,-87 14,-164 42,-230 28,-66 66,-122 114,-166 48,-44 104,-78 168,-100 64,-22 132,-34 204,-34 71,0 138,11 200,34 63,22 118,56 166,100 48,44 85,100 113,166 28,66 42,143 42,230 0,87 -14,164 -42,230 -28,66 -66,122 -113,166 -48,44 -103,78 -166,100 -63,22 -130,34 -200,34 -72,0 -140,-11 -204,-34 -64,-22 -120,-56 -168,-100 -48,-44 -86,-100 -114,-166 -28,-66 -42,-143 -42,-230zm162 0c0,62 8,117 25,168 17,50 41,93 72,128 31,35 69,62 114,81 45,19 95,29 151,29 56,0 106,-10 151,-29 44,-19 82,-46 113,-81 31,-35 55,-78 72,-128 17,-50 25,-106 25,-168 0,-62 -8,-117 -25,-168 -17,-50 -41,-93 -72,-128 -31,-35 -69,-62 -113,-81 -44,-19 -95,-29 -151,-29 -56,0 -106,10 -151,29 -45,19 -83,46 -114,81 -31,35 -55,78 -72,128 -17,50 -25,106 -25,168zm1407 -517c154,0 273,27 356,81 83,54 124,135 124,242 0,59 -11,109 -34,150 -23,42 -55,75 -98,101 -43,26 -95,45 -156,56 -61,12 -130,18 -208,18l-122 0 0 376 -154 0 0 -1000c43,-10 92,-16 145,-20 53,-3 102,-5 147,-5zm13 124c-65,0 -116,1 -151,4l0 398 116 0c53,0 100,-3 143,-10 42,-6 78,-17 107,-32 29,-15 51,-36 67,-62 16,-26 24,-60 24,-101 0,-39 -8,-71 -25,-97 -16,-25 -39,-46 -67,-61 -28,-15 -60,-26 -97,-31 -37,-6 -76,-9 -117,-9zm1320 778l0 123 -661 0 0 -1015 154 0 0 892 507 0zm162 123l0 -1015 670 0 0 122 -517 0 0 302 460 0 0 119 -460 0 0 351 556 0 0 122 -710 0zm3411 -101c161,0 241,-51 241,-152 0,-31 -7,-58 -21,-80 -14,-22 -34,-41 -58,-57 -24,-16 -52,-30 -83,-42 -31,-12 -64,-23 -99,-35 -40,-13 -78,-27 -114,-43 -36,-16 -67,-35 -93,-57 -26,-22 -47,-48 -63,-78 -15,-30 -23,-67 -23,-110 0,-89 33,-158 98,-208 65,-50 156,-75 271,-75 67,0 127,7 181,20 54,13 94,28 120,43l-49 116c-22,-13 -55,-25 -99,-37 -44,-12 -95,-18 -153,-18 -30,0 -57,3 -82,9 -25,6 -48,15 -67,26 -19,12 -34,27 -45,45 -11,18 -17,39 -17,64 0,27 6,50 17,69 12,19 28,35 49,49 21,14 46,27 74,39 28,12 59,23 93,35 48,18 91,35 131,53 40,18 74,39 103,63 29,24 52,53 67,87 16,34 24,74 24,122 0,89 -35,157 -105,205 -70,48 -169,72 -297,72 -43,0 -83,-3 -120,-8 -36,-5 -69,-12 -97,-19 -29,-7 -53,-15 -74,-23 -21,-8 -37,-15 -48,-21l46 -117c24,13 61,27 111,42 50,16 110,23 182,23zm879 -924c154,0 273,27 356,81 83,54 124,135 124,242 0,59 -11,109 -34,150 -23,42 -55,75 -98,101 -43,26 -95,45 -156,56 -61,12 -130,18 -208,18l-122 0 0 376 -154 0 0 -1000c43,-10 92,-16 145,-20 53,-3 102,-5 147,-5zm13 124c-66,0 -116,1 -151,4l0 398 116 0c53,0 100,-3 143,-10 42,-6 78,-17 107,-32 29,-15 51,-36 67,-62 16,-26 24,-60 24,-101 0,-39 -8,-71 -25,-97 -16,-25 -39,-46 -67,-61 -28,-15 -60,-26 -97,-31 -37,-6 -76,-9 -117,-9zm615 393c0,-87 14,-164 42,-230 28,-66 66,-122 114,-166 48,-44 104,-78 168,-100 64,-22 132,-34 204,-34 71,0 138,11 200,34 63,22 118,56 166,100 48,44 85,100 113,166 28,66 42,143 42,230 0,87 -14,164 -42,230 -28,66 -66,122 -113,166 -48,44 -103,78 -166,100 -63,22 -130,34 -200,34 -72,0 -140,-11 -204,-34 -64,-22 -120,-56 -168,-100 -48,-44 -86,-100 -114,-166 -28,-66 -42,-143 -42,-230zm162 0c0,62 8,117 25,168 17,50 41,93 72,128 31,35 69,62 114,81 45,19 95,29 151,29 56,0 106,-10 151,-29 44,-19 82,-46 113,-81 31,-35 55,-78 72,-128 17,-50 25,-106 25,-168 0,-62 -8,-117 -25,-168 -17,-50 -41,-93 -72,-128 -31,-35 -69,-62 -113,-81 -44,-19 -95,-29 -151,-29 -56,0 -106,10 -151,29 -45,19 -83,46 -114,81 -31,35 -55,78 -72,128 -17,50 -25,106 -25,168zm1653 83c17,20 38,45 64,77 26,32 53,67 80,105 27,39 55,79 82,121 27,42 50,83 69,122l-168 0c-21,-37 -44,-75 -69,-113 -25,-38 -50,-74 -75,-109 -25,-35 -50,-67 -75,-97 -25,-30 -47,-57 -67,-79 -14,1 -28,1 -42,1 -14,0 -29,0 -44,0l-138 0 0 397 -154 0 0 -1000c43,-10 92,-16 145,-20 53,-3 102,-5 147,-5 154,0 272,27 353,81 81,54 121,134 121,240 0,67 -19,125 -58,173 -39,48 -95,83 -170,107zm-233 -476c-65,0 -116,1 -151,4l0 382 109 0c53,0 100,-2 143,-7 42,-5 78,-14 107,-28 29,-14 52,-33 67,-58 16,-25 24,-58 24,-99 0,-38 -8,-70 -24,-95 -16,-25 -37,-45 -64,-60 -27,-15 -59,-25 -95,-31 -36,-6 -75,-9 -116,-9zm1426 -114l0 123 -345 0 0 892 -154 0 0 -892 -345 0 0 -123 845 0zm-5536 1015c-23,-36 -50,-77 -80,-122 -30,-45 -63,-92 -97,-140 -35,-48 -71,-97 -109,-147 -38,-50 -75,-98 -112,-144 -37,-46 -73,-90 -108,-131 -35,-41 -67,-77 -97,-108l0 792 -151 0 0 -1015 122 0c50,49 103,106 159,171 57,65 113,132 168,201 55,69 108,136 157,203 49,66 91,125 124,177l0 -751 151 0 0 1015 -128 0z"/>
   <polygon class="fil2" points="22062,10160 22062,11078 21912,11078 21912,10310 "/>
   <polygon class="fil3" points="21912,10063 22062,10063 21912,10213 "/>
  </g>
  <polygon class="fil2" points="15231,12553 29031,12553 29031,15474 15231,15474 "/>
  <g id="_506788000">
   <path class="fil5" d="M16076 13182c154,0 273,27 356,81 83,54 124,135 124,242 0,59 -11,109 -34,150 -23,42 -55,75 -98,101 -43,26 -95,45 -156,56 -61,12 -130,18 -208,18l-122 0 0 376 -154 0 0 -1000c43,-10 92,-16 145,-20 53,-3 102,-5 147,-5zm13 124c-65,0 -116,1 -151,4l0 398 116 0c53,0 100,-3 143,-10 42,-6 78,-17 107,-32 29,-15 51,-36 67,-62 16,-26 24,-60 24,-101 0,-39 -8,-71 -25,-97 -16,-25 -39,-46 -67,-61 -28,-15 -60,-26 -97,-31 -37,-6 -76,-9 -117,-9zm659 901l0 -1015 670 0 0 122 -517 0 0 302 460 0 0 119 -460 0 0 351 556 0 0 122 -710 0zm816 -508c0,-87 14,-164 42,-230 28,-66 66,-122 114,-166 48,-44 104,-78 168,-100 64,-22 132,-34 204,-34 71,0 138,11 200,34 63,22 118,56 166,100 48,44 85,100 113,166 28,66 42,143 42,230 0,87 -14,164 -42,230 -28,66 -66,122 -113,166 -48,44 -103,78 -166,100 -63,22 -130,34 -200,34 -72,0 -140,-11 -204,-34 -64,-22 -120,-56 -168,-100 -48,-44 -86,-100 -114,-166 -28,-66 -42,-143 -42,-230zm162 0c0,62 8,117 25,168 17,50 41,93 72,128 31,35 69,62 114,81 45,19 95,29 151,29 56,0 106,-10 151,-29 44,-19 82,-46 113,-81 31,-35 55,-78 72,-128 17,-50 25,-106 25,-168 0,-62 -8,-117 -25,-168 -17,-50 -41,-93 -72,-128 -31,-35 -69,-62 -113,-81 -44,-19 -95,-29 -151,-29 -56,0 -106,10 -151,29 -45,19 -83,46 -114,81 -31,35 -55,78 -72,128 -17,50 -25,106 -25,168zm1407 -517c154,0 273,27 356,81 83,54 124,135 124,242 0,59 -11,109 -34,150 -23,42 -55,75 -98,101 -43,26 -95,45 -156,56 -61,12 -130,18 -208,18l-122 0 0 376 -154 0 0 -1000c43,-10 92,-16 145,-20 53,-3 102,-5 147,-5zm13 124c-65,0 -116,1 -151,4l0 398 116 0c53,0 100,-3 143,-10 42,-6 78,-17 107,-32 29,-15 51,-36 67,-62 16,-26 24,-60 24,-101 0,-39 -8,-71 -25,-97 -16,-25 -39,-46 -67,-61 -28,-15 -60,-26 -97,-31 -37,-6 -76,-9 -117,-9zm1320 778l0 123 -661 0 0 -1015 154 0 0 892 507 0zm162 123l0 -1015 670 0 0 122 -517 0 0 302 460 0 0 119 -460 0 0 351 556 0 0 122 -710 0zm3411 -101c161,0 241,-51 241,-152 0,-31 -7,-58 -21,-80 -14,-22 -34,-41 -58,-57 -24,-16 -52,-30 -83,-42 -31,-12 -64,-23 -99,-35 -40,-13 -78,-27 -114,-43 -36,-16 -67,-35 -93,-57 -26,-22 -47,-48 -63,-78 -15,-30 -23,-67 -23,-110 0,-89 33,-158 98,-208 65,-50 156,-75 271,-75 67,0 127,7 181,20 54,13 94,28 120,43l-49 116c-22,-13 -55,-25 -99,-37 -44,-12 -95,-18 -153,-18 -30,0 -57,3 -82,9 -25,6 -48,15 -67,26 -19,12 -34,27 -45,45 -11,18 -17,39 -17,64 0,27 6,50 17,69 12,19 28,35 49,49 21,14 46,27 74,39 28,12 59,23 93,35 48,18 91,35 131,53 40,18 74,39 103,63 29,24 52,53 67,87 16,34 24,74 24,122 0,89 -35,157 -105,205 -70,48 -169,72 -297,72 -43,0 -83,-3 -120,-8 -36,-5 -69,-12 -97,-19 -29,-7 -53,-15 -74,-23 -21,-8 -37,-15 -48,-21l46 -117c24,13 61,27 111,42 50,16 110,23 182,23zm879 -924c154,0 273,27 356,81 83,54 124,135 124,242 0,59 -11,109 -34,150 -23,42 -55,75 -98,101 -43,26 -95,45 -156,56 -61,12 -130,18 -208,18l-122 0 0 376 -154 0 0 -1000c43,-10 92,-16 145,-20 53,-3 102,-5 147,-5zm13 124c-66,0 -116,1 -151,4l0 398 116 0c53,0 100,-3 143,-10 42,-6 78,-17 107,-32 29,-15 51,-36 67,-62 16,-26 24,-60 24,-101 0,-39 -8,-71 -25,-97 -16,-25 -39,-46 -67,-61 -28,-15 -60,-26 -97,-31 -37,-6 -76,-9 -117,-9zm615 393c0,-87 14,-164 42,-230 28,-66 66,-122 114,-166 48,-44 104,-78 168,-100 64,-22 132,-34 204,-34 71,0 138,11 200,34 63,22 118,56 166,100 48,44 85,100 113,166 28,66 42,143 42,230 0,87 -14,164 -42,230 -28,66 -66,122 -113,166 -48,44 -103,78 -166,100 -63,22 -130,34 -200,34 -72,0 -140,-11 -204,-34 -64,-22 -120,-56 -168,-100 -48,-44 -86,-100 -114,-166 -28,-66 -42,-143 -42,-230zm162 0c0,62 8,117 25,168 17,50 41,93 72,128 31,35 69,62 114,81 45,19 95,29 151,29 56,0 106,-10 151,-29 44,-19 82,-46 113,-81 31,-35 55,-78 72,-128 17,-50 25,-106 25,-168 0,-62 -8,-117 -25,-168 -17,-50 -41,-93 -72,-128 -31,-35 -69,-62 -113,-81 -44,-19 -95,-29 -151,-29 -56,0 -106,10 -151,29 -45,19 -83,46 -114,81 -31,35 -55,78 -72,128 -17,50 -25,106 -25,168zm1653 83c17,20 38,45 64,77 26,32 53,67 80,105 27,39 55,79 82,121 27,42 50,83 69,122l-168 0c-21,-37 -44,-75 -69,-113 -25,-38 -50,-74 -75,-109 -25,-35 -50,-67 -75,-97 -25,-30 -47,-57 -67,-79 -14,1 -28,1 -42,1 -14,0 -29,0 -44,0l-138 0 0 397 -154 0 0 -1000c43,-10 92,-16 145,-20 53,-3 102,-5 147,-5 154,0 272,27 353,81 81,54 121,134 121,240 0,67 -19,125 -58,173 -39,48 -95,83 -170,107zm-233 -476c-65,0 -116,1 -151,4l0 382 109 0c53,0 100,-2 143,-7 42,-5 78,-14 107,-28 29,-14 52,-33 67,-58 16,-25 24,-58 24,-99 0,-38 -8,-70 -24,-95 -16,-25 -37,-45 -64,-60 -27,-15 -59,-25 -95,-31 -36,-6 -75,-9 -116,-9zm1426 -114l0 123 -345 0 0 892 -154 0 0 -892 -345 0 0 -123 845 0zm-5536 1015c-23,-36 -50,-77 -80,-122 -30,-45 -63,-92 -97,-140 -35,-48 -71,-97 -109,-147 -38,-50 -75,-98 -112,-144 -37,-46 -73,-90 -108,-131 -35,-41 -67,-77 -97,-108l0 792 -151 0 0 -1015 122 0c50,49 103,106 159,171 57,65 113,132 168,201 55,69 108,136 157,203 49,66 91,125 124,177l0 -751 151 0 0 1015 -128 0z"/>
   <polygon class="fil6" points="22062,13293 22062,14211 21912,14211 21912,13443 "/>
   <polygon class="fil3" points="21912,13196 22062,13196 21912,13346 "/>
  </g>
 </g>
</svg>
