<svg xmlns="http://www.w3.org/2000/svg" viewBox="0 0 64.5 57.13"><defs><style>.cls-1{fill:#475E8A;}.cls-2{fill:#fc1050;}</style></defs><title>Ресурс 40</title><g id="Слой_2" data-name="Слой 2"><g id="Слой_1-2" data-name="Слой 1"><path class="cls-1" d="M53.23,34.76H46.31a2,2,0,0,1-2-2v-5a2,2,0,0,1,2-2h6.92a2,2,0,0,1,2,2v5A2,2,0,0,1,53.23,34.76Zm-6.92-7v5h6.92v-5Z"/><path class="cls-2" d="M53.23,48.87H46.31a2,2,0,0,1-2-2v-5a2,2,0,0,1,2-2h6.92a2,2,0,0,1,2,2v5A2,2,0,0,1,53.23,48.87Zm-6.92-7v5h6.92v-5Zm6.92,0h0Z"/><path class="cls-1" d="M58.83,5.63H54.65a1.5,1.5,0,1,0,0,3h4.17c1.45,0,2.67,1.6,2.67,3.5v7.5H3v-7.5a3.5,3.5,0,0,1,3.5-3.5h5a1.5,1.5,0,0,0,0-3h-5A6.51,6.51,0,0,0,0,12.13v38.5a6.51,6.51,0,0,0,6.5,6.5H58a6.51,6.51,0,0,0,6.5-6.5V12.13C64.5,8.55,62,5.63,58.83,5.63ZM58,54.13H6.5A3.5,3.5,0,0,1,3,50.63v-30H61.5v30A3.5,3.5,0,0,1,58,54.13Z"/><path class="cls-1" d="M24.28,8.63h18a1.5,1.5,0,0,0,0-3h-18a1.5,1.5,0,1,0,0,3Z"/><path class="cls-1" d="M36.54,25.73H29.62a2,2,0,0,0-2,2v5a2,2,0,0,0,2,2h6.92a2,2,0,0,0,2-2v-5A2,2,0,0,0,36.54,25.73Zm0,7H29.62v-5h6.92Z"/><path class="cls-1" d="M20.19,25.73H13.28a2,2,0,0,0-2,2v5a2,2,0,0,0,2,2h6.92a2,2,0,0,0,2-2v-5A2,2,0,0,0,20.19,25.73Zm0,7H13.28v-5h6.92Z"/><path class="cls-1" d="M36.54,39.84H29.62a2,2,0,0,0-2,2v5a2,2,0,0,0,2,2h6.92a2,2,0,0,0,2-2v-5A2,2,0,0,0,36.54,39.84Zm0,7H29.62v-5h6.92Z"/><path class="cls-1" d="M20.19,39.84H13.28a2,2,0,0,0-2,2v5a2,2,0,0,0,2,2h6.92a2,2,0,0,0,2-2v-5A2,2,0,0,0,20.19,39.84Zm0,7H13.28v-5h6.92Z"/><path class="cls-1" d="M18,14.33a1.5,1.5,0,0,0,1.5-1.5V1.5a1.5,1.5,0,0,0-3,0V12.83A1.5,1.5,0,0,0,18,14.33Z"/><path class="cls-1" d="M48.57,14.33a1.5,1.5,0,0,1-1.5-1.5V1.5a1.5,1.5,0,0,1,3,0V12.83A1.5,1.5,0,0,1,48.57,14.33Z"/></g></g></svg>
