<svg xmlns="http://www.w3.org/2000/svg" viewBox="0 0 71.38 38.67"><defs><style>.cls-1{fill:#fc1050;}.cls-2{fill:#475E8A;}</style></defs><title>Ресурс 41</title><g id="Слой_2" data-name="Слой 2"><g id="Слой_1-2" data-name="Слой 1"><path class="cls-1" d="M5.37,25.28H2a2,2,0,0,1-2-2v-7.2a1.5,1.5,0,0,0,0-.17,1.53,1.53,0,0,1,.31-1.28A2.17,2.17,0,0,1,2,14.08h3.5a1,1,0,0,1,0,2H2v7.2H5.37a1,1,0,0,1,0,2Z"/><path class="cls-1" d="M69.34,25.28H66a1,1,0,0,1,0-2h3.33v-7.2h-3.5a1,1,0,0,1,0-2h3.5a2.17,2.17,0,0,1,1.7.55,1.53,1.53,0,0,1,.31,1.28,1.31,1.31,0,0,0,0,.17v7.2A2,2,0,0,1,69.34,25.28Z"/><path class="cls-2" d="M64.51,4.6H60.17V4.5A4.5,4.5,0,0,0,55.67,0H51.34a4.5,4.5,0,0,0-4.5,4.5v9H24.54v-9A4.5,4.5,0,0,0,20,0H15.71a4.5,4.5,0,0,0-4.5,4.5v.1H6.87a2.5,2.5,0,0,0-2.5,2.5V31.56a2.5,2.5,0,0,0,2.5,2.5h4.33v.1a4.5,4.5,0,0,0,4.5,4.5H20a4.5,4.5,0,0,0,4.5-4.5V25.29h22.3v8.88a4.5,4.5,0,0,0,4.5,4.5h4.33a4.5,4.5,0,0,0,4.5-4.5v-.1h4.33a2.5,2.5,0,0,0,2.5-2.5V7.1A2.5,2.5,0,0,0,64.51,4.6ZM46.84,16.54v1.79H24.54V16.54ZM7.37,31.06V7.6h3.83V31.06Zm14.17,3.1a1.5,1.5,0,0,1-1.5,1.5H15.71a1.5,1.5,0,0,1-1.5-1.5V4.5A1.5,1.5,0,0,1,15.71,3H20a1.5,1.5,0,0,1,1.5,1.5Zm3-11.88v-3h22.3v3ZM57.17,34.17a1.5,1.5,0,0,1-1.5,1.5H51.34a1.5,1.5,0,0,1-1.5-1.5V4.5A1.5,1.5,0,0,1,51.34,3h4.33a1.5,1.5,0,0,1,1.5,1.5ZM64,31.06H60.17V7.6H64Z"/></g></g></svg>
