<svg xmlns="http://www.w3.org/2000/svg" viewBox="0 0 61.1 58.78"><defs><style>.cls-1{fill:#475E8A;}.cls-2{fill:#fc1050;}</style></defs><title>Ресурс 38</title><g id="Слой_2" data-name="Слой 2"><g id="Слой_1-2" data-name="Слой 1"><path class="cls-1" d="M42.85,16.29a1.5,1.5,0,0,0,1.5-1.5V7.27A7.28,7.28,0,0,0,37.08,0H7.27A7.28,7.28,0,0,0,0,7.27V51.51a7.28,7.28,0,0,0,7.27,7.27H37.08a7.28,7.28,0,0,0,7.27-7.27V42.82a1.5,1.5,0,0,0-3,0v8.69a4.28,4.28,0,0,1-4.27,4.27H11.62V3H37.08a4.28,4.28,0,0,1,4.27,4.27v7.52A1.5,1.5,0,0,0,42.85,16.29ZM10.62,55.78H7.27A4.28,4.28,0,0,1,3,51.51V7.27A4.28,4.28,0,0,1,7.27,3h3.35Z"/><path class="cls-2" d="M33.72,15H20.25a1,1,0,0,1,0-2H33.72a1,1,0,0,1,0,2Z"/><path class="cls-2" d="M33.72,25.58H20.25a1,1,0,0,1,0-2H33.72a1,1,0,0,1,0,2Z"/><path class="cls-2" d="M26.5,46.07a1,1,0,0,1-1-1.27l1.94-7a1,1,0,0,1,.25-.43L50.87,13.54l3.48-3.45a1,1,0,0,1,.71-.29,1,1,0,0,1,.71.3l5,5.1a1,1,0,0,1,0,1.41L57.33,20,34.21,43.9a1,1,0,0,1-.46.27l-7,1.87A1,1,0,0,1,26.5,46.07Zm2.84-7.45-1.41,5,5-1.34,23-23.67,2.77-2.75L55,12.22l-2.76,2.73Zm4.15,4.59h0Z"/><path class="cls-2" d="M55.54,21.39a1,1,0,0,1-.7-.29l-4.69-4.63a1,1,0,0,1,1.4-1.42l4.69,4.63a1,1,0,0,1-.7,1.71Z"/></g></g></svg>
