<svg xmlns="http://www.w3.org/2000/svg" viewBox="0 0 64.75 54"><defs><style>.cls-1{fill:#fc1050;}.cls-2{fill:#475E8A;}</style></defs><title>Ресурс 39</title><g id="Слой_2" data-name="Слой 2"><g id="Слой_1-2" data-name="Слой 1"><path class="cls-1" d="M49.5,34.67A5.67,5.67,0,1,1,55.17,29,5.67,5.67,0,0,1,49.5,34.67Zm0-9.33A3.67,3.67,0,1,0,53.17,29,3.67,3.67,0,0,0,49.5,25.33Z"/><path class="cls-2" d="M58.25,8.92H56.64a1.51,1.51,0,0,0,0-.29V6.5A6.51,6.51,0,0,0,50.17,0H6.5C2.92,0,0,2.65,0,5.92,0,6,0,6.1,0,6.19s0,.2,0,.31v41a1.49,1.49,0,0,0,.32.92A6.5,6.5,0,0,0,6.75,54h51.5a6.51,6.51,0,0,0,6.5-6.5V15.42A6.51,6.51,0,0,0,58.25,8.92Zm3.5,6.5V42.17H3.25V15.42a3.5,3.5,0,0,1,3.5-3.5h51.5A3.5,3.5,0,0,1,61.75,15.42ZM53.67,6.5V8.63a1.51,1.51,0,0,0,0,.29H6.47A3.37,3.37,0,0,1,3,6.18,3.49,3.49,0,0,1,6.5,3H50.17A3.5,3.5,0,0,1,53.67,6.5ZM58.25,51H6.75a3.5,3.5,0,0,1-3.5-3.5V43.17h58.5V47.5A3.5,3.5,0,0,1,58.25,51Z"/></g></g></svg>
