<?xml version="1.0" encoding="utf-8"?>
<!-- Generator: Adobe Illustrator 15.0.0, SVG Export Plug-In . SVG Version: 6.00 Build 0)  -->
<!DOCTYPE svg PUBLIC "-//W3C//DTD SVG 1.1//EN" "http://www.w3.org/Graphics/SVG/1.1/DTD/svg11.dtd">
<svg version="1.1" id="Layer_1" xmlns="http://www.w3.org/2000/svg" xmlns:xlink="http://www.w3.org/1999/xlink" x="0px" y="0px"
	 width="46px" height="12.111px" viewBox="0 16.957 46 12.111" enable-background="new 0 16.957 46 12.111" xml:space="preserve">
<path fill="#1A273B" d="M16.411,23.002c-0.002-0.253,0.041-0.504,0.126-0.742c0.167-0.452,0.514-0.815,0.958-1.002
	c0.25-0.104,0.518-0.156,0.789-0.151c0.179-0.002,0.357,0.015,0.533,0.05c0.16,0.034,0.317,0.083,0.468,0.147l-0.212,0.822
	c-0.104-0.04-0.209-0.072-0.317-0.097c-0.125-0.032-0.253-0.049-0.382-0.051c-0.259-0.019-0.512,0.086-0.681,0.285
	c-0.158,0.216-0.237,0.479-0.224,0.746c-0.022,0.272,0.049,0.544,0.202,0.771c0.187,0.196,0.452,0.296,0.721,0.271
	c0.134-0.002,0.268-0.014,0.4-0.037c0.135-0.021,0.267-0.059,0.393-0.111l0.144,0.844c-0.146,0.057-0.296,0.101-0.45,0.129
	c-0.196,0.038-0.395,0.057-0.594,0.055c-0.293,0.007-0.584-0.043-0.857-0.148c-0.225-0.088-0.427-0.227-0.591-0.403
	c-0.157-0.174-0.272-0.381-0.339-0.604C16.429,23.521,16.4,23.262,16.411,23.002z M21.173,21.089
	c0.257-0.006,0.514,0.029,0.76,0.104c0.184,0.057,0.351,0.159,0.486,0.295c0.125,0.132,0.214,0.293,0.259,0.468
	c0.053,0.201,0.078,0.408,0.076,0.616v2.144c-0.146,0.031-0.352,0.069-0.616,0.115c-0.316,0.047-0.635,0.068-0.955,0.064
	c-0.218,0.004-0.435-0.018-0.648-0.061c-0.176-0.036-0.344-0.105-0.494-0.205c-0.135-0.091-0.245-0.215-0.317-0.361
	c-0.079-0.175-0.117-0.365-0.112-0.559c-0.007-0.188,0.037-0.374,0.126-0.54c0.082-0.147,0.199-0.271,0.342-0.36
	c0.151-0.091,0.317-0.156,0.49-0.191c0.188-0.04,0.38-0.059,0.573-0.058c0.12-0.007,0.24-0.007,0.36,0
	c0.085,0.007,0.169,0.022,0.252,0.043v-0.097c0.007-0.148-0.043-0.292-0.14-0.404c-0.157-0.122-0.354-0.178-0.551-0.158
	c-0.177-0.002-0.354,0.008-0.53,0.032c-0.151,0.021-0.299,0.057-0.443,0.108l-0.13-0.829l0.223-0.058
	c0.089-0.021,0.187-0.04,0.292-0.054l0.335-0.043C20.933,21.094,21.053,21.089,21.173,21.089z M21.256,24.101h0.292
	c0.074-0.003,0.147-0.011,0.22-0.021v-0.786l-0.188-0.029c-0.167-0.021-0.334-0.021-0.501,0c-0.077,0.01-0.153,0.031-0.223,0.065
	c-0.061,0.029-0.113,0.074-0.151,0.13c-0.039,0.062-0.058,0.135-0.054,0.208c-0.012,0.133,0.05,0.263,0.162,0.336
	C20.95,24.073,21.103,24.107,21.256,24.101z M24.729,24.082c0.136,0.01,0.271-0.01,0.399-0.053c0.08-0.039,0.128-0.125,0.119-0.213
	c-0.008-0.094-0.066-0.177-0.151-0.217c-0.147-0.083-0.302-0.153-0.461-0.208c-0.149-0.055-0.296-0.118-0.439-0.188
	c-0.124-0.059-0.236-0.137-0.335-0.23c-0.093-0.091-0.165-0.2-0.213-0.321c-0.055-0.144-0.08-0.297-0.076-0.45
	c-0.012-0.314,0.13-0.615,0.379-0.807c0.305-0.213,0.674-0.317,1.045-0.295c0.213-0.001,0.425,0.018,0.634,0.058
	c0.164,0.028,0.325,0.07,0.483,0.126l-0.174,0.792c-0.131-0.04-0.265-0.072-0.399-0.097c-0.155-0.033-0.313-0.049-0.472-0.047
	c-0.322,0-0.483,0.09-0.483,0.271c-0.001,0.038,0.007,0.076,0.022,0.111c0.018,0.038,0.047,0.071,0.082,0.094
	c0.054,0.037,0.11,0.07,0.17,0.097c0.072,0.034,0.163,0.072,0.273,0.116c0.191,0.069,0.379,0.152,0.559,0.249
	c0.134,0.067,0.256,0.156,0.36,0.263c0.083,0.09,0.144,0.197,0.18,0.313c0.036,0.13,0.054,0.265,0.051,0.4
	c0.018,0.323-0.136,0.633-0.403,0.814c-0.346,0.204-0.742,0.3-1.143,0.277c-0.427,0.01-0.852-0.065-1.25-0.22l0.173-0.836
	c0.175,0.069,0.356,0.123,0.54,0.162C24.375,24.074,24.552,24.088,24.729,24.082z M27.021,24.821v-5.195l1.045-0.169v1.74
	c0.087-0.027,0.177-0.049,0.267-0.065c0.104-0.021,0.208-0.031,0.313-0.032c0.245-0.005,0.49,0.036,0.721,0.123
	c0.183,0.072,0.345,0.189,0.468,0.342c0.121,0.154,0.206,0.334,0.249,0.526c0.05,0.222,0.075,0.45,0.072,0.677v2.054h-1.009v-1.928
	c0.021-0.247-0.021-0.495-0.127-0.72c-0.111-0.146-0.293-0.22-0.475-0.195c-0.088,0-0.174,0.008-0.26,0.025l-0.217,0.05v2.763
	L27.021,24.821z M34.485,23.002c0.002,0.265-0.042,0.527-0.13,0.777c-0.076,0.225-0.198,0.43-0.359,0.603
	c-0.168,0.169-0.371,0.3-0.595,0.382c-0.257,0.093-0.527,0.138-0.8,0.133c-0.125,0-0.255,0-0.389,0
	c-0.135,0-0.271-0.012-0.411-0.035c-0.132-0.02-0.253-0.041-0.36-0.065c-0.108-0.024-0.214-0.05-0.317-0.079v-5.091l1.013-0.169
	v1.801c0.115-0.051,0.236-0.091,0.36-0.119c0.132-0.028,0.265-0.041,0.399-0.04c0.235-0.005,0.469,0.04,0.685,0.133
	c0.194,0.087,0.364,0.219,0.497,0.385c0.14,0.178,0.242,0.381,0.303,0.598C34.454,22.472,34.489,22.736,34.485,23.002z
	 M33.438,22.973c0-0.663-0.24-0.995-0.721-0.995c-0.105,0.001-0.211,0.015-0.313,0.043c-0.089,0.021-0.175,0.057-0.253,0.104V24
	l0.195,0.025c0.079,0,0.164,0,0.256,0c0.246,0.015,0.484-0.095,0.634-0.292c0.145-0.226,0.214-0.49,0.198-0.757L33.438,22.973z
	 M36.586,21.089c0.258-0.007,0.514,0.029,0.76,0.104c0.184,0.057,0.352,0.159,0.486,0.295c0.125,0.132,0.214,0.293,0.26,0.468
	c0.053,0.201,0.078,0.408,0.076,0.616v2.144c-0.146,0.031-0.352,0.069-0.616,0.115c-0.316,0.047-0.636,0.068-0.955,0.064
	c-0.214,0.002-0.428-0.018-0.638-0.061c-0.176-0.036-0.344-0.105-0.494-0.205c-0.135-0.091-0.244-0.215-0.316-0.361
	c-0.078-0.175-0.117-0.365-0.111-0.559c-0.007-0.188,0.037-0.374,0.126-0.54c0.081-0.147,0.199-0.271,0.343-0.36
	c0.15-0.091,0.316-0.156,0.489-0.191c0.188-0.04,0.38-0.059,0.573-0.058c0.119-0.007,0.24-0.007,0.359,0
	c0.086,0.007,0.17,0.022,0.253,0.043v-0.097c0.007-0.156-0.05-0.309-0.159-0.421c-0.156-0.122-0.354-0.179-0.551-0.159
	c-0.174,0-0.348,0.014-0.519,0.04c-0.151,0.021-0.3,0.057-0.443,0.108l-0.134-0.818l0.224-0.058c0.089-0.021,0.188-0.04,0.296-0.054
	l0.335-0.043C36.335,21.094,36.454,21.089,36.586,21.089z M36.669,24.101h0.292c0.073-0.003,0.146-0.011,0.22-0.021v-0.786
	l-0.188-0.029c-0.167-0.021-0.335-0.021-0.501,0c-0.077,0.01-0.152,0.031-0.223,0.065c-0.062,0.029-0.113,0.074-0.152,0.13
	c-0.039,0.062-0.057,0.135-0.054,0.208c-0.013,0.133,0.05,0.263,0.162,0.336C36.363,24.073,36.516,24.107,36.669,24.101
	L36.669,24.101z M38.91,23.002c-0.002-0.253,0.04-0.504,0.125-0.742c0.172-0.456,0.525-0.819,0.977-1.002
	c0.25-0.104,0.52-0.156,0.789-0.151c0.18-0.002,0.358,0.015,0.533,0.05c0.161,0.034,0.318,0.083,0.469,0.147l-0.213,0.822
	c-0.104-0.04-0.209-0.072-0.316-0.097c-0.127-0.03-0.256-0.044-0.386-0.043c-0.259-0.02-0.513,0.086-0.681,0.285
	c-0.158,0.216-0.236,0.479-0.224,0.746c-0.018,0.27,0.056,0.538,0.209,0.76c0.187,0.195,0.452,0.295,0.721,0.271
	c0.134-0.002,0.268-0.014,0.399-0.036c0.135-0.021,0.268-0.06,0.393-0.112l0.145,0.844c-0.135,0.052-0.275,0.092-0.418,0.119
	c-0.195,0.037-0.395,0.056-0.594,0.054c-0.293,0.007-0.584-0.043-0.857-0.147c-0.225-0.089-0.428-0.227-0.592-0.404
	c-0.156-0.174-0.271-0.381-0.338-0.605C38.966,23.515,38.918,23.26,38.91,23.002z M43.594,22.49l0.313-0.36l0.314-0.36l0.284-0.332
	l0.23-0.273h1.226c-0.24,0.281-0.48,0.549-0.721,0.803c-0.24,0.255-0.495,0.518-0.764,0.789c0.152,0.14,0.295,0.289,0.428,0.447
	c0.146,0.173,0.29,0.352,0.43,0.537c0.139,0.186,0.266,0.37,0.378,0.555c0.115,0.186,0.212,0.354,0.292,0.505h-1.186
	c-0.074-0.12-0.158-0.253-0.252-0.4c-0.094-0.146-0.193-0.292-0.299-0.436c-0.105-0.146-0.218-0.286-0.336-0.418
	c-0.109-0.124-0.23-0.237-0.359-0.339V24.8h-1.031v-5.174l1.053-0.169V22.49z"/>
<path fill="#1A273B" d="M3.563,26.536l-0.09-0.09l-0.13-0.145c-0.072-0.079-0.141-0.158-0.205-0.241l-0.04-0.051
	c-1.662-2.165-1.254-5.268,0.911-6.931c1.491-1.144,3.501-1.344,5.188-0.516l0.648-0.908c-2.964-1.559-6.63-0.419-8.188,2.544
	c-0.831,1.58-0.923,3.447-0.252,5.101L0,26.302l3.754,0.443l0,0h0.054C3.729,26.695,3.646,26.615,3.563,26.536z M14.004,19.651
	l-3.754-0.443l0,0h-0.054c0.083,0.072,0.166,0.148,0.245,0.224l0.068,0.064c0.275,0.273,0.517,0.578,0.721,0.908l0,0
	c1.439,2.319,0.726,5.367-1.594,6.807c-1.483,0.92-3.343,0.99-4.891,0.183L4.1,28.316c2.932,1.613,6.617,0.546,8.231-2.386
	c0.894-1.622,0.996-3.563,0.279-5.271L14.004,19.651z"/>
<path fill="#FC1050" d="M4.54,21.193c0.427-0.026,0.852,0.071,1.225,0.281c0.294,0.208,0.456,0.556,0.425,0.915
	c0.031,0.361-0.13,0.711-0.425,0.922c-0.374,0.212-0.8,0.31-1.229,0.284H4.284v1.189H3.473v-3.498
	c0.183-0.036,0.369-0.06,0.555-0.072C4.225,21.2,4.396,21.193,4.54,21.193z M4.59,21.874H4.417H4.269v1.042h0.252
	c0.214,0.012,0.427-0.026,0.623-0.112c0.147-0.087,0.229-0.252,0.209-0.421c0.003-0.085-0.016-0.169-0.054-0.245
	c-0.035-0.065-0.085-0.12-0.148-0.159c-0.076-0.042-0.159-0.071-0.245-0.083C4.802,21.88,4.696,21.873,4.59,21.874z M9.367,24.176
	c0.093,0.002,0.187-0.008,0.277-0.028c0.063-0.014,0.123-0.04,0.177-0.075c0.042-0.029,0.074-0.068,0.094-0.115
	c0.017-0.048,0.025-0.098,0.025-0.148c-0.004-0.116-0.064-0.224-0.162-0.288c-0.175-0.107-0.365-0.191-0.562-0.249
	c-0.115-0.04-0.234-0.086-0.36-0.141c-0.113-0.05-0.219-0.117-0.313-0.198c-0.094-0.082-0.171-0.181-0.227-0.292
	c-0.061-0.13-0.091-0.274-0.086-0.418c-0.002-0.153,0.03-0.304,0.094-0.443c0.06-0.13,0.149-0.244,0.259-0.335
	c0.125-0.101,0.271-0.176,0.425-0.22c0.177-0.052,0.36-0.078,0.544-0.076c0.365-0.008,0.725,0.076,1.048,0.245l-0.23,0.63
	c-0.106-0.055-0.217-0.1-0.332-0.137c-0.143-0.042-0.291-0.062-0.439-0.058c-0.143-0.011-0.286,0.016-0.414,0.079
	c-0.083,0.051-0.132,0.144-0.126,0.241c-0.001,0.058,0.015,0.114,0.047,0.162c0.035,0.048,0.079,0.088,0.13,0.119
	c0.062,0.039,0.127,0.071,0.194,0.097l0.245,0.09c0.185,0.067,0.346,0.134,0.483,0.202c0.126,0.059,0.242,0.138,0.342,0.234
	c0.09,0.088,0.159,0.195,0.202,0.313c0.047,0.141,0.069,0.288,0.065,0.436c0.012,0.301-0.122,0.588-0.36,0.771
	c-0.305,0.206-0.67,0.306-1.038,0.285c-0.142,0-0.284-0.01-0.425-0.029c-0.113-0.016-0.225-0.039-0.335-0.068
	c-0.086-0.023-0.17-0.053-0.252-0.086c-0.07-0.031-0.129-0.061-0.177-0.087l0.227-0.634c0.125,0.064,0.257,0.117,0.393,0.154
	C8.984,24.16,9.175,24.182,9.367,24.176z M7.573,21.467v-0.23h-0.8v1.322L7.573,21.467z M6.773,23.456v1.33h0.8v-2.461L6.773,23.456
	z"/>
</svg>
