<?xml version="1.0" encoding="utf-8"?>
<!-- Generator: Adobe Illustrator 15.0.0, SVG Export Plug-In . SVG Version: 6.00 Build 0)  -->
<!DOCTYPE svg PUBLIC "-//W3C//DTD SVG 1.1//EN" "http://www.w3.org/Graphics/SVG/1.1/DTD/svg11.dtd">
<svg version="1.1" id="Layer_1" xmlns="http://www.w3.org/2000/svg" xmlns:xlink="http://www.w3.org/1999/xlink" x="0px" y="0px"
	 width="46px" height="46px" viewBox="0 0 46 46" enable-background="new 0 0 46 46" xml:space="preserve">
<path fill="#FC1050" d="M22.84,46C10.226,46,0,35.773,0,23.16C0,10.545,10.226,0.32,22.84,0.32c12.615,0,22.839,10.226,22.839,22.84
	C45.68,35.773,35.455,46,22.84,46z M22.84,6.395C13.683,6.497,6.341,14.002,6.442,23.159c0.102,9.157,7.607,16.499,16.764,16.397
	c9.139-0.101,16.473-7.577,16.399-16.716C39.504,13.675,32.006,6.319,22.84,6.395z M32.342,28.642H22.063
	c-1.261,0-2.284-1.022-2.284-2.284V13.019c0-1.262,1.023-2.284,2.284-2.284c1.262,0,2.284,1.022,2.284,2.284v11.054h7.994
	c1.262,0,2.283,1.022,2.283,2.284S33.604,28.642,32.342,28.642z"/>
</svg>
