<svg xmlns="http://www.w3.org/2000/svg" viewBox="0 0 37.87 26.89"><defs><style>.cls-1{fill:#fc1050;}</style></defs><title>Ресурс 49</title><g id="Слой_2" data-name="Слой 2"><g id="Слой_1-2" data-name="Слой 1"><path class="cls-1" d="M28.86,22.87a21.2,21.2,0,0,1-9.92,2,21.2,21.2,0,0,1-9.92-2,19.58,19.58,0,0,0-9-2v2A17.67,17.67,0,0,1,8.22,24.7a22.91,22.91,0,0,0,10.72,2.19A22.92,22.92,0,0,0,29.66,24.7a17.66,17.66,0,0,1,8.22-1.79v-2A19.58,19.58,0,0,0,28.86,22.87Z"/><path class="cls-1" d="M1.4,9C3,13.91,4.25,17.77,8.28,20.38c3.3,2.14,6.18,2.53,10.65,2.53s7.36-.39,10.65-2.53c4-2.61,5.29-6.47,6.89-11.36l.25-.75a1,1,0,0,0-1-1.31,38.38,38.38,0,0,0-6.37.49V2a.5.5,0,0,0-.69-.46,19.14,19.14,0,0,0-5.86,3.33c-.92-1.5-2-3-3.13-4.47a1,1,0,0,0-1.59,0c-1.14,1.5-2.2,3-3.12,4.47A19.14,19.14,0,0,0,9.16,1.51.5.5,0,0,0,8.47,2V7.44A38.39,38.39,0,0,0,2.1,7a1,1,0,0,0-1,1.31Zm12.89,2.67a7,7,0,0,1,.89.78h0C17.7,15.1,17.92,17,17.93,20.8c-2.73-.55-4-3.34-4-6.12A14.17,14.17,0,0,1,14.29,11.69Zm9.63,3c0,2.78-1.24,5.57-4,6.12,0-3.76.23-5.71,2.75-8.34a7,7,0,0,1,.89-.78A14.18,14.18,0,0,1,23.92,14.68Zm4.59,4A12.28,12.28,0,0,1,24,20.53a9.09,9.09,0,0,0,1.89-5.85,16.36,16.36,0,0,0-.5-4,24.12,24.12,0,0,1,9-1.68C33,13.36,31.8,16.57,28.5,18.7Zm-.1-16V7.63a18.84,18.84,0,0,0-3.59,1.1,21.82,21.82,0,0,0-1.44-3A16.81,16.81,0,0,1,28.4,2.72Zm-9.47-.07a28.31,28.31,0,0,1,4.08,7,9.55,9.55,0,0,0-1.77,1.4,11.76,11.76,0,0,0-2.31,3.29,11.76,11.76,0,0,0-2.31-3.29,9.54,9.54,0,0,0-1.77-1.4A28.35,28.35,0,0,1,18.94,2.65Zm-9.47.07a16.81,16.81,0,0,1,5,3,21.84,21.84,0,0,0-1.43,3,18.84,18.84,0,0,0-3.59-1.1Zm3,7.93a16.36,16.36,0,0,0-.5,4,9.09,9.09,0,0,0,1.89,5.85A12.28,12.28,0,0,1,9.37,18.7C6.07,16.57,4.92,13.36,3.48,9A24.12,24.12,0,0,1,12.45,10.65Z"/></g></g></svg>