<svg xmlns="http://www.w3.org/2000/svg" viewBox="0 0 26.5 17.9"><defs><style>.cls-1{fill:#fc1050;}</style></defs><title>Ресурс 58</title><g id="Слой_2" data-name="Слой 2"><g id="Слой_1-2" data-name="Слой 1"><path class="cls-1" d="M25.8,13.86a13,13,0,0,0-6,1.3,14,14,0,0,1-6.56,1.34,14,14,0,0,1-6.56-1.34,13,13,0,0,0-6-1.3.7.7,0,1,0,0,1.4,11.68,11.68,0,0,1,5.43,1.18,15.39,15.39,0,0,0,7.12,1.46,15.39,15.39,0,0,0,7.12-1.46,11.68,11.68,0,0,1,5.43-1.18.7.7,0,0,0,0-1.4Z"/><path class="cls-1" d="M1.59,6c1.06,3.25,1.89,5.81,4.58,7.55,2.19,1.42,4.11,1.68,7.08,1.68s4.89-.26,7.08-1.68C23,11.84,23.85,9.27,24.91,6l.16-.5a.7.7,0,0,0-.67-.92,26.21,26.21,0,0,0-3.85.27V1.35a.7.7,0,0,0-1-.65,13.08,13.08,0,0,0-3.92,2.22C15.11,2,14.48,1.15,13.81.26a.73.73,0,0,0-1.12,0C12,1.15,11.39,2,10.82,2.91A13.09,13.09,0,0,0,6.9.7a.7.7,0,0,0-1,.65V4.88a26.22,26.22,0,0,0-3.85-.27.7.7,0,0,0-.67.92ZM10.2,7.85a4.56,4.56,0,0,1,.54.48c1.65,1.72,1.8,3,1.81,5.45-1.76-.38-2.56-2.2-2.56-4A9.34,9.34,0,0,1,10.2,7.85Zm6.32,1.92c0,1.81-.8,3.62-2.56,4,0-2.45.17-3.73,1.81-5.45a4.56,4.56,0,0,1,.54-.48A9.35,9.35,0,0,1,16.51,9.77Zm3.06,2.63a8.11,8.11,0,0,1-2.87,1.19,6.08,6.08,0,0,0,1.21-3.82,10.89,10.89,0,0,0-.32-2.65A16,16,0,0,1,23.44,6C22.5,8.9,21.73,11,19.57,12.4Zm-.42-10V5.14a12.23,12.23,0,0,0-2,.63,14.11,14.11,0,0,0-.77-1.64A10.15,10.15,0,0,1,19.15,2.4Zm-5.9-.55a18.68,18.68,0,0,1,2.66,4.59,6.35,6.35,0,0,0-1.15.92,7.81,7.81,0,0,0-1.5,2.15,7.81,7.81,0,0,0-1.5-2.15,6.35,6.35,0,0,0-1.15-.92A18.71,18.71,0,0,1,13.25,1.85Zm-5.9.55a10.15,10.15,0,0,1,2.76,1.74,14.12,14.12,0,0,0-.76,1.64,12.23,12.23,0,0,0-2-.63ZM8.91,7.12a10.88,10.88,0,0,0-.32,2.65A6.08,6.08,0,0,0,9.8,13.59,8.11,8.11,0,0,1,6.93,12.4C4.77,11,4,8.9,3.06,6A16,16,0,0,1,8.91,7.12Z"/></g></g></svg>