<svg xmlns="http://www.w3.org/2000/svg" viewBox="0 0 23.57 21.5"><defs><style>.cls-1{fill:#fc1050;}</style></defs><title>Ресурс 59</title><g id="Слой_2" data-name="Слой 2"><g id="Слой_1-2" data-name="Слой 1"><path class="cls-1" d="M6,12.71a2.9,2.9,0,1,0,2.9,2.9A2.9,2.9,0,0,0,6,12.71Zm0,4.4a1.5,1.5,0,1,1,1.5-1.5A1.5,1.5,0,0,1,6,17.11Z"/><path class="cls-1" d="M21.14,14.45l-.05,0-2.48-.86,2-9.08a5.65,5.65,0,0,0,1-1.17L23,1.07A.7.7,0,0,0,21.81.33l-1.4,2.25A4.17,4.17,0,0,1,17.54,4.5H15.48a.7.7,0,0,0,0,1.4h2.06a3.66,3.66,0,0,0,1.39-.33l-1.66,7.53L8.14,9.93h0a6,6,0,0,0-1.43-.31l-1.13-4H8a.7.7,0,0,0,0-1.4H2a.7.7,0,0,0,0,1.4H4.1l1.13,4a6,6,0,0,0-.65,11.86l.17,0H20a3.63,3.63,0,0,0,1.14-7ZM11.25,20.1l3-6.55,1,.35-2.63,6.2ZM1.4,15.61a4.65,4.65,0,0,1,6.21-4.38l0,0L13,13.09l-3.25,7H4.85A4.67,4.67,0,0,1,1.4,15.61ZM20,20.1H14.18l2.43-5.74.74.26a.69.69,0,0,0,.28.14l.15,0h0l2.78,1,.07,0A2.23,2.23,0,0,1,20,20.1Z"/></g></g></svg>