<svg xmlns="http://www.w3.org/2000/svg" viewBox="0 0 31.79 29.02"><defs><style>.cls-1{fill:#fc1050;}</style></defs><title>Ресурс 50</title><g id="Слой_2" data-name="Слой 2"><g id="Слой_1-2" data-name="Слой 1"><path class="cls-1" d="M8.19,17.58A3.46,3.46,0,1,0,11.64,21,3.46,3.46,0,0,0,8.19,17.58Zm0,5.91A2.46,2.46,0,1,1,10.64,21,2.46,2.46,0,0,1,8.19,23.49Z"/><path class="cls-1" d="M28.49,19.43l-.07,0-3.29-1.14L27.8,6.12a7.64,7.64,0,0,0,1.33-1.57l1.89-3A1,1,0,0,0,29.32.47l-1.89,3a5.52,5.52,0,0,1-3.81,2.55H20.86a1,1,0,0,0,0,2h2.77a4.89,4.89,0,0,0,1.79-.4L23.23,17.6,11,13.36l0,0a8.11,8.11,0,0,0-1.91-.44L7.61,7.66h3.2a1,1,0,0,0,0-2H2.69a1,1,0,1,0,0,2H5.53L7,12.94a8.18,8.18,0,0,0-.81,16,1,1,0,0,0,.31,0H26.94a4.93,4.93,0,0,0,1.55-9.59ZM15.5,27l3.94-8.62,1.77.62-3.66,8ZM2,21a6.19,6.19,0,0,1,8.26-5.83l.06,0,8.17,2.84L14.4,27H6.58A6.22,6.22,0,0,1,2,21Zm25,6H18.66l3.51-7.67,1.18.41a1,1,0,0,0,.39.19L24,20h0l3.72,1.29.1,0A2.93,2.93,0,0,1,27,27Z"/></g></g></svg>