<svg xmlns="http://www.w3.org/2000/svg" viewBox="0 0 17.51 19.7"><defs><style>.cls-1{fill:#fc1050;}</style></defs><title>Ресурс 55</title><g id="Слой_2" data-name="Слой 2"><g id="Слой_1-2" data-name="Слой 1"><path class="cls-1" d="M16.42,7.29a2.88,2.88,0,0,0,.28-1.85A6.46,6.46,0,0,0,14,1.09,8.1,8.1,0,0,0,8.38.14c-5.07,1.09-6.76,10.7-7,12.09l-1.07,2a2.7,2.7,0,0,0,1.09,3.66l2.78,1.51a2.7,2.7,0,0,0,3.66-1.09l.91-1.67c1.55-.53,8-2.92,8.69-6.29A3.31,3.31,0,0,0,16.42,7.29Zm-15,8.58a1.29,1.29,0,0,1,.1-1l.7-1.29L4.83,15A3.29,3.29,0,0,1,3.48,17.4l-1.4-.76A1.29,1.29,0,0,1,1.46,15.87Zm4.39,2.38a1.29,1.29,0,0,1-1-.1l0,0A4.58,4.58,0,0,0,6.15,15.7l1.18.64-.7,1.29A1.29,1.29,0,0,1,5.85,18.25ZM16.07,10c-.49,2.3-5.53,4.48-7.75,5.25l-5.52-3c.48-3,2.32-10,5.86-10.78a6.76,6.76,0,0,1,4.55.75,5.13,5.13,0,0,1,2.11,3.45c0,.07.3,1.71-2.45,2.66a.7.7,0,1,0,.46,1.32,6.18,6.18,0,0,0,2.23-1.27A1.86,1.86,0,0,1,16.07,10Z"/><path class="cls-1" d="M13,5.81A.7.7,0,1,0,14.1,5C12.64,2.92,9.43,2.38,9.29,2.36a.7.7,0,0,0-.22,1.38S11.84,4.21,13,5.81Z"/></g></g></svg>