<svg xmlns="http://www.w3.org/2000/svg" viewBox="0 0 25.01 28.1"><defs><style>.cls-1{fill:#fc1050;}</style></defs><title>Ресурс 46</title><g id="Слой_2" data-name="Слой 2"><g id="Слой_1-2" data-name="Слой 1"><path class="cls-1" d="M23.48,10.28a4.07,4.07,0,0,0,.39-2.61A9.12,9.12,0,0,0,20,1.54,11.42,11.42,0,0,0,12.11.2C5,1.74,2.57,15.29,2.26,17.26l-1.9,3.5a3,3,0,0,0,1.21,4.07l5.36,2.91a3,3,0,0,0,1.42.36A3,3,0,0,0,9.21,28,3,3,0,0,0,11,26.53l1.66-3.07c2.19-.75,11.24-4.12,12.25-8.87A4.67,4.67,0,0,0,23.48,10.28ZM2.12,21.71l1.37-2.53,4.1,2.22A5.05,5.05,0,0,1,5.71,24.8L2.52,23.07A1,1,0,0,1,2.12,21.71Zm6.52,4.34A1,1,0,0,1,7.88,26l-1.24-.67a6,6,0,0,0,1.87-3.39L10.61,23,9.24,25.57A1,1,0,0,1,8.64,26.05ZM23,14.17c-.69,3.24-7.78,6.31-10.91,7.38L4.27,17.34C5,13.1,7.55,3.23,12.53,2.16a9.44,9.44,0,0,1,6.39,1,7.21,7.21,0,0,1,3,4.87c0,.1.42,2.39-3.44,3.73a1,1,0,0,0,.65,1.89,8.73,8.73,0,0,0,3.14-1.79A2.61,2.61,0,0,1,23,14.17Z"/><path class="cls-1" d="M19,7.93a.5.5,0,1,0,.82-.57c-1.95-2.78-6.28-3.5-6.46-3.53a.5.5,0,1,0-.16,1S17.27,5.49,19,7.93Z"/></g></g></svg>