<svg xmlns="http://www.w3.org/2000/svg" viewBox="0 0 22.34 19.59"><defs><style>.cls-1{fill:#fc1050;}</style></defs><title>Ресурс 57</title><g id="Слой_2" data-name="Слой 2"><g id="Слой_1-2" data-name="Слой 1"><path class="cls-1" d="M21.64,5H14.08V2.35a2.35,2.35,0,1,0-4.71,0V4c0,2,.88,2.74,2.61,3.56.84.4.84.7.84.85s0,.49,0,.8c0,.53-.1,1.26-.1,2.44a.7.7,0,0,0,.63.7,32.93,32.93,0,0,1,3.4.54c.39.09.42.25.42.45,0,.58-.3,3.29-.47,4.85h-.36V14.48a.7.7,0,0,0-.64-.7,26.54,26.54,0,0,0-4.36,0C10,13.95,6.34,16,4.14,17.34c1.18-1.24,2.94-3,5.3-5.09a.7.7,0,0,0,.24-.52c0-.7,0-1.32.05-1.88.07-1.58.11-2.62-.52-3.28a1.77,1.77,0,0,0-1.34-.5H.7a.7.7,0,0,0,0,1.4H7.87a.52.52,0,0,1,.33.07,5.31,5.31,0,0,1,.13,2.25c0,.49,0,1-.05,1.62a67.69,67.69,0,0,0-7,7,.7.7,0,0,0,.54,1.14H2.94a.7.7,0,0,0,.37-.11c2.56-1.59,7-4.17,8.14-4.31a22.11,22.11,0,0,1,3.43,0v3.75a.7.7,0,0,0,.7.7h2.76a.7.7,0,1,0,0-1.4h-.28c.16-1.4.47-4.16.47-4.85A1.79,1.79,0,0,0,17,11.53c-1.11-.25-2.24-.41-2.93-.5,0-.76.05-1.28.09-1.71s0-.63,0-.9A2.46,2.46,0,0,0,12.57,6.3c-1.5-.71-1.8-1.1-1.8-2.29V2.35a1,1,0,1,1,1.91,0V5.66a.7.7,0,0,0,.7.7h8.27a.7.7,0,0,0,0-1.4Z"/></g></g></svg>