<svg xmlns="http://www.w3.org/2000/svg" viewBox="0 0 34.75 30.44"><defs><style>.cls-1{fill:#fc1050;}</style></defs><title>Ресурс 48</title><g id="Слой_2" data-name="Слой 2"><g id="Слой_1-2" data-name="Слой 1"><path class="cls-1" d="M33.75,7.76H21.82V3.59a3.59,3.59,0,0,0-7.17,0V6.17c0,3,1.35,4.21,4,5.48C20,12.3,20,12.82,20,13.07s0,.77-.07,1.25c-.06.83-.15,2-.15,3.81a1,1,0,0,0,.9,1A51.7,51.7,0,0,1,26,20c.67.15.73.47.73.79,0,.93-.48,5.26-.75,7.67h-.75V22.55a1,1,0,0,0-.92-1,41.39,41.39,0,0,0-6.79,0c-2.14.26-8.49,3.95-11.73,5.9,1.83-2,4.74-4.9,8.76-8.47a1,1,0,0,0,.34-.75c0-1.09,0-2.07.08-2.94.1-2.45.17-4.06-.78-5.06a2.68,2.68,0,0,0-2-.75H1a1,1,0,0,0,0,2H12.2a.9.9,0,0,1,.58.14c.37.38.3,2,.23,3.59,0,.77-.07,1.63-.08,2.58a105.74,105.74,0,0,0-11,11,1,1,0,0,0,.78,1.63H4.5A1,1,0,0,0,5,30.29c4-2.5,11-6.54,12.77-6.75a35.1,35.1,0,0,1,5.47-.06v6a1,1,0,0,0,1,1h4.31a1,1,0,0,0,0-2H28c.25-2.15.74-6.59.74-7.67A2.71,2.71,0,0,0,26.48,18c-1.77-.4-3.6-.65-4.65-.78,0-1.24.08-2.07.14-2.77,0-.54.07-1,.07-1.41,0-2-1.89-2.93-2.51-3.22-2.37-1.12-2.88-1.77-2.88-3.67V3.59a1.59,1.59,0,0,1,3.17,0V8.76a1,1,0,0,0,1,1H33.75a1,1,0,0,0,0-2Z"/><path class="cls-1" d="M10.7,13.85a.5.5,0,0,0,0-1H2.45a.5.5,0,1,0,0,1Z"/><path class="cls-1" d="M32.3,11.4H24.06a.5.5,0,0,0,0,1H32.3a.5.5,0,0,0,0-1Z"/></g></g></svg>