<svg xmlns="http://www.w3.org/2000/svg" viewBox="0 0 17.51 20.02"><defs><style>.cls-1{fill:#fc1050;}</style></defs><title>Ресурс 54</title><g id="Слой_2" data-name="Слой 2"><g id="Слой_1-2" data-name="Слой 1"><path class="cls-1" d="M15.68,10.69a7.35,7.35,0,0,0,1.8-5.51,5.92,5.92,0,0,0-2.12-3.95C13-.63,9-.64,6.06,3a9.77,9.77,0,0,0-1.85,7.61c-.06.47-.49,2.75-3.24,6.18l-.74.93a1.05,1.05,0,0,0-.22.75,1,1,0,0,0,.41.71l.47.38h0l.27.21a1.05,1.05,0,0,0,.67.25h.12a1,1,0,0,0,.68-.38l.75-.93c3-3.69,5.18-4.48,5.39-4.54A9.77,9.77,0,0,0,15.68,10.69ZM7.15,3.87q.27-.34.56-.63l5.5,4.39a.38.38,0,1,0,.47-.59L8.27,2.73a5.7,5.7,0,0,1,2-1.11L14.46,5a.38.38,0,1,0,.47-.59l-3.69-3,.45,0a4.54,4.54,0,0,1,2.79.94,4.58,4.58,0,0,1,1.6,3,6.07,6.07,0,0,1-1.5,4.47c-2.18,2.72-6.43,3.68-8,2.42a3.15,3.15,0,0,1-1-1.78.68.68,0,0,0,0-.19,7.22,7.22,0,0,1-.1-1.82l2.63,2.11A.38.38,0,1,0,8.56,10l-3-2.4a8.68,8.68,0,0,1,.61-2.06l4.17,3.33a.38.38,0,1,0,.47-.59L6.52,4.83A7.12,7.12,0,0,1,7.15,3.87ZM5.69,13.32a3.47,3.47,0,0,0,.8.46,15.14,15.14,0,0,0-1.71,1.34l-.64-.51a15.14,15.14,0,0,0,.93-1.95A3.46,3.46,0,0,0,5.69,13.32ZM2.27,17.83l-.51.64-.2-.16h0l.51-.64c.52-.66,1-1.27,1.34-1.85l.37.29C3.29,16.61,2.79,17.17,2.27,17.83Z"/><path class="cls-1" d="M14.21,8.44a.38.38,0,1,0,.47-.59l-.36-.29a.38.38,0,0,0-.47.59Z"/><path class="cls-1" d="M9.25,10.52a.37.37,0,1,0-.47.59l.59.47A.37.37,0,1,0,9.84,11Z"/><path class="cls-1" d="M11,9.4l.59.47a.38.38,0,1,0,.47-.59l-.59-.47A.38.38,0,0,0,11,9.4Z"/><path class="cls-1" d="M16.08,15.4a2.68,2.68,0,0,0-4.06,0h0l0,0a2.69,2.69,0,0,0,0,3.51l0,0h0a2.67,2.67,0,0,0,4,0l0,0a2.71,2.71,0,0,0,0-3.51Zm-3.73,2.72a1.91,1.91,0,0,1,0-1.88,2.65,2.65,0,0,0,3.43,0,1.92,1.92,0,0,1,0,1.88,2.65,2.65,0,0,0-3.37,0Zm2.92-2.46a2,2,0,0,1-2.47,0A2,2,0,0,1,15.28,15.66Zm-2.43,3a2,2,0,0,1,2.39,0A2,2,0,0,1,12.85,18.69Z"/></g></g></svg>