<svg xmlns="http://www.w3.org/2000/svg" viewBox="0 0 25.94 31.46"><defs><style>.cls-1{fill:#fc1050;}</style></defs><title>Ресурс 45</title><g id="Слой_2" data-name="Слой 2"><g id="Слой_1-2" data-name="Слой 1"><path class="cls-1" d="M22.75,1.83A8.76,8.76,0,0,0,16.36.05,10.88,10.88,0,0,0,9,4.44a14.33,14.33,0,0,0-3,8.39,12.41,12.41,0,0,0,.24,2.83c-.06.55-.6,4-4.83,9.27L.33,26.32A1.52,1.52,0,0,0,0,27.41a1.51,1.51,0,0,0,.59,1l.7.56h0l.4.32a1.53,1.53,0,0,0,1,.36h.17a1.52,1.52,0,0,0,1-.55l1.11-1.39C9.52,22,13,21,13,21h0a12.43,12.43,0,0,0,2.71-.38,14.33,14.33,0,0,0,7.53-4.75C27.54,10.43,26.2,4.59,22.75,1.83ZM8.44,19.73a5.07,5.07,0,0,0,1.26.7,23,23,0,0,0-3,2.41l-.89-.71A23,23,0,0,0,7.5,18.7,5,5,0,0,0,8.44,19.73ZM3.36,26.48l-.78,1-.33-.27h0l0,0,.79-1A36.14,36.14,0,0,0,5.29,23l.69.55A36.14,36.14,0,0,0,3.36,26.48Zm18.3-11.91a12.29,12.29,0,0,1-6.47,4.06c-2.3.59-4.41.41-5.51-.46a5,5,0,0,1-1.48-3l3.61,2.89a.5.5,0,0,0,.62-.78L8,13.79c0-.29,0-.59,0-.89a12.71,12.71,0,0,1,.15-1.55l5.4,4.32a.5.5,0,0,0,.62-.78l-5.8-4.64a12.61,12.61,0,0,1,.67-2l7.56,6a.5.5,0,1,0,.62-.78L9.5,7.3a10.71,10.71,0,0,1,1.05-1.6l0,0,9,7.22a.5.5,0,1,0,.62-.78l-9-7.19A10.65,10.65,0,0,1,12.8,3.54L20.5,9.7a.5.5,0,0,0,.62-.78L13.7,3a7.83,7.83,0,0,1,2.17-.82l5.71,4.56a.5.5,0,0,0,.62-.78L17.27,2h.06A6.74,6.74,0,0,1,21.5,3.39C23.73,5.18,25.62,9.62,21.66,14.57Z"/><path class="cls-1" d="M22.86,10.31l-.58-.46a.5.5,0,0,0-.62.78l.58.46a.5.5,0,1,0,.62-.78Z"/><path class="cls-1" d="M21.2,12.85a.5.5,0,1,0-.62.78l.54.43a.5.5,0,1,0,.62-.78Z"/><path class="cls-1" d="M18.32,14.35a.5.5,0,1,0-.62.78l.78.63a.5.5,0,1,0,.62-.78Z"/><path class="cls-1" d="M15.22,15.7a.5.5,0,0,0-.62.78l.88.7a.5.5,0,1,0,.62-.78Z"/><path class="cls-1" d="M17.37,26h0l.38-.32a3.55,3.55,0,1,0,0,4.61l-.38-.32h0l.38.33a3.56,3.56,0,0,0,0-4.61Zm.21,2a2.56,2.56,0,0,1-.33,1.25,3.5,3.5,0,0,0-4.42,0,2.49,2.49,0,0,1,0-2.43,3.49,3.49,0,0,0,4.49,0A2.56,2.56,0,0,1,17.58,27.91Zm-.94-2a2.66,2.66,0,0,1-3.21,0A2.66,2.66,0,0,1,16.64,25.95Zm-3.16,4a2.68,2.68,0,0,1,3.11,0A2.67,2.67,0,0,1,13.48,29.91Z"/></g></g></svg>