<svg xmlns="http://www.w3.org/2000/svg" viewBox="0 0 21.8 20.54"><defs><style>.cls-1{fill:#fc1050;}</style></defs><title>Ресурс 56</title><g id="Слой_2" data-name="Слой 2"><g id="Слой_1-2" data-name="Слой 1"><path class="cls-1" d="M21.1,19.14h-.31c.16-1.43.48-4.3.48-5a1.83,1.83,0,0,0-1.54-1.85c-1.08-.24-3.78-.6-5.39-.81l-.61-.08a9.26,9.26,0,0,0-2.22.09.7.7,0,0,0,.19,1.39,8.16,8.16,0,0,1,1.85-.09l.61.08c1.59.21,4.24.56,5.27.79.41.09.45.28.45.48,0,.6-.31,3.42-.49,5H19V15.23a.7.7,0,0,0-.7-.7H10.09a12.32,12.32,0,0,0,.35-2.06,2.44,2.44,0,0,0-1.7-2.52V8.71a4.41,4.41,0,1,0-1.4,0v1.72a.7.7,0,0,0,.5.67c1.2.36,1.2.82,1.2,1.35a14.5,14.5,0,0,1-.39,2.06H4.76A1.57,1.57,0,0,1,3.19,13a1.61,1.61,0,0,1,1.6-1.57,1.84,1.84,0,0,1,2,1.55.7.7,0,0,0,1.38-.21A3.2,3.2,0,0,0,4.73,10a3,3,0,0,0-2.95,3,2.94,2.94,0,0,0,.46,1.57H1.4V7.67a.7.7,0,1,0-1.4,0V19.82a.7.7,0,0,0,1.4,0V15.93H14.75v3.89a.7.7,0,0,0,1.4,0V15.93h1.41v3.91a.7.7,0,0,0,.7.7H21.1a.7.7,0,0,0,0-1.4ZM5,4.39A3,3,0,1,1,8.74,7.27V3.35a.7.7,0,0,0-1.4,0v4A3,3,0,0,1,5,4.39Z"/></g></g></svg>