<svg xmlns="http://www.w3.org/2000/svg" viewBox="0 0 33.19 31.28"><defs><style>.cls-1{fill:#fc1050;}</style></defs><title>Ресурс 47</title><g id="Слой_2" data-name="Слой 2"><g id="Слой_1-2" data-name="Слой 1"><path class="cls-1" d="M32.19,29.28h-.56c.25-2.16.75-6.64.75-7.74a2.73,2.73,0,0,0-2.3-2.76c-1.65-.37-5.59-.89-8.2-1.24l-1-.13a14.1,14.1,0,0,0-3.38.14,1,1,0,1,0,.26,2,12.58,12.58,0,0,1,2.85-.14l1,.13c2.42.32,6.47.86,8,1.21.68.15.74.48.74.81,0,.94-.48,5.31-.76,7.74h-.77V23.22a1,1,0,0,0-1-1H15.27A19.34,19.34,0,0,0,15.82,19a3.63,3.63,0,0,0-2.61-3.81v-2a6.64,6.64,0,1,0-2,0V15.9a1,1,0,0,0,.71,1c1.89.56,1.89,1.33,1.89,2.14a22.43,22.43,0,0,1-.61,3.22h-6a2.48,2.48,0,0,1-2.47-2.47,2.53,2.53,0,0,1,2.51-2.47,2.88,2.88,0,0,1,3.08,2.43,1,1,0,0,0,2-.3,4.85,4.85,0,0,0-5.13-4.12,4.52,4.52,0,0,0-4.44,4.47,4.44,4.44,0,0,0,.75,2.47H2V7.66a1,1,0,1,0-2,0V30.24a1,1,0,0,0,2,0V26.12H26.85v4.15a1,1,0,0,0,1,1h4.34a1,1,0,0,0,0-2ZM7.48,6.65a4.65,4.65,0,1,1,5.74,4.5V5.05a1,1,0,0,0-2,0V11.2A4.65,4.65,0,0,1,7.48,6.65ZM2,25.12v-.9H26.85v.9Z"/></g></g></svg>