<svg xmlns="http://www.w3.org/2000/svg" viewBox="0 0 22.13 19.49"><defs><style>.cls-1{fill:#fc1050;}</style></defs><title>Ресурс 61</title><g id="Слой_2" data-name="Слой 2"><g id="Слой_1-2" data-name="Слой 1"><path class="cls-1" d="M21.54,12.94a8.65,8.65,0,0,0-2.1-2.22,17.82,17.82,0,0,0-3-1.82,10.5,10.5,0,0,0,.83-4.11,6.07,6.07,0,0,0-.75-2.87A3.63,3.63,0,0,0,15.49.75,4.36,4.36,0,0,0,14.05.13a5.39,5.39,0,0,0-3,.2,7.12,7.12,0,0,0-2.57,1.6A8.6,8.6,0,0,0,6.11,7.13,9.09,9.09,0,0,0,3.06,8.35a8.44,8.44,0,0,0-2.16,2A5.1,5.1,0,0,0,0,13.24a4.93,4.93,0,0,0,.85,2.84,4.72,4.72,0,0,0,2.38,1.66,6.25,6.25,0,0,0,2.84.22A7.76,7.76,0,0,0,8.7,17a6.73,6.73,0,0,1-5.32.35,4.21,4.21,0,0,1-2-1.6,4.26,4.26,0,0,1-.57-2.47,4.33,4.33,0,0,1,.84-2.36,7.54,7.54,0,0,1,2-1.69,7.92,7.92,0,0,1,2.46-.92,11.85,11.85,0,0,0,1,4.88,9.55,9.55,0,0,0,3.93,4.45,11.24,11.24,0,0,0,5.64,1.87,6,6,0,0,0,3.05-.81,5,5,0,0,0,2.23-2.38A3.72,3.72,0,0,0,21.54,12.94ZM9.32,2.8a5.13,5.13,0,0,1,4.52-1.68,2.85,2.85,0,0,1,2,1.27,5.39,5.39,0,0,1,.74,2.45A9.85,9.85,0,0,1,16,8.67c-.54-.25-1.09-.49-1.66-.7A16.58,16.58,0,0,0,8.69,6.88c-.38,0-.76,0-1.14,0A7.44,7.44,0,0,1,9.32,2.8Zm11.1,12.92a3.44,3.44,0,0,1-1.55,1.58,4.45,4.45,0,0,1-2.28.6,9.74,9.74,0,0,1-4.82-1.6,8.14,8.14,0,0,1-3.38-3.74,10.41,10.41,0,0,1-.92-4.43,11.45,11.45,0,0,1,1.19,0A17.77,17.77,0,0,1,15.49,10l0,.07a18.61,18.61,0,0,1-3.11,4.57,16.84,16.84,0,0,0,3.49-4.38l0-.06a18.14,18.14,0,0,1,2.64,1.7,7.56,7.56,0,0,1,1.71,1.82A2.16,2.16,0,0,1,20.42,15.71Z"/></g></g></svg>