<svg xmlns="http://www.w3.org/2000/svg" viewBox="0 0 36.32 31.93"><defs><style>.cls-1{fill:#fc1050;}</style></defs><title>Ресурс 52</title><g id="Слой_2" data-name="Слой 2"><g id="Слой_1-2" data-name="Слой 1"><path class="cls-1" d="M36.28,24a6.42,6.42,0,0,0-.91-2.6A14.37,14.37,0,0,0,32,17.79a29.63,29.63,0,0,0-4.9-3,17.4,17.4,0,0,0,1.4-7,10,10,0,0,0-1.23-4.71,5.9,5.9,0,0,0-1.74-1.89,7.09,7.09,0,0,0-2.34-1,8.7,8.7,0,0,0-5,.35A11.65,11.65,0,0,0,14,3.21a14.2,14.2,0,0,0-3.79,8.58,14.83,14.83,0,0,0-5.18,2,13.37,13.37,0,0,0-3.55,3.32A8.36,8.36,0,0,0,0,21.81a8.09,8.09,0,0,0,1.37,4.65,7.79,7.79,0,0,0,3.9,2.74,10.19,10.19,0,0,0,4.67.37A12.68,12.68,0,0,0,14.29,28a11.16,11.16,0,0,1-8.83.65A7.08,7.08,0,0,1,2.05,26a7.16,7.16,0,0,1-1-4.14,7.26,7.26,0,0,1,1.41-4A12.08,12.08,0,0,1,5.77,15a13.61,13.61,0,0,1,4.31-1.6,19.45,19.45,0,0,0,1.62,8.17,16.22,16.22,0,0,0,2.64,4.15,15.8,15.8,0,0,0,3.8,3.12,18.4,18.4,0,0,0,9.23,3.05,9.76,9.76,0,0,0,4.95-1.32,8,8,0,0,0,3.59-3.83A5.69,5.69,0,0,0,36.28,24ZM15.21,4.4a8.66,8.66,0,0,1,7.62-2.78,5.72,5.72,0,0,1,1.91.73,4.58,4.58,0,0,1,1.41,1.43,9,9,0,0,1,1.23,4.1,16.51,16.51,0,0,1-1,6.59c-.93-.44-1.87-.85-2.83-1.21a28.17,28.17,0,0,0-9.32-1.83,20.59,20.59,0,0,0-2.12.08A12.5,12.5,0,0,1,15.21,4.4ZM33.91,26a5.9,5.9,0,0,1-2.66,2.73,7.6,7.6,0,0,1-3.88,1A16.33,16.33,0,0,1,19.26,27a13.61,13.61,0,0,1-3.34-2.69,15,15,0,0,1-2.33-3.6A17.46,17.46,0,0,1,12,13.17a18.47,18.47,0,0,1,2.19,0,27.89,27.89,0,0,1,8.69,1.92c.94.37,1.86.79,2.77,1.24l-.13.3a30.54,30.54,0,0,1-5.2,7.54,28.11,28.11,0,0,0,5.72-7.28l.15-.29a27.55,27.55,0,0,1,4.45,2.85,12.86,12.86,0,0,1,2.9,3.07A3.83,3.83,0,0,1,33.91,26Z"/></g></g></svg>