<svg xmlns="http://www.w3.org/2000/svg" viewBox="0 0 18.57 21.81"><defs><style>.cls-1{fill:#fc1050;}</style></defs><title>Ресурс 60</title><g id="Слой_2" data-name="Слой 2"><g id="Слой_1-2" data-name="Слой 1"><path class="cls-1" d="M16.87,11.94H13.74a1.68,1.68,0,0,0-.75.18A7.78,7.78,0,0,1,11.64,10c-.17-.5-.32-1.06-.46-1.57a9.42,9.42,0,0,0-.49-1.54.67.67,0,0,0-.11-.14,1.63,1.63,0,0,0-1.4-.93h-.1A2.55,2.55,0,0,0,9.92,4V2.57a2.57,2.57,0,0,0-5.14,0V4a2.55,2.55,0,0,0,.83,1.88H5.2A1.66,1.66,0,0,0,3.7,7l-.07.2a11.32,11.32,0,0,0-.74,1.29c-.25.47-.52,1-.8,1.44A7.85,7.85,0,0,1,.29,11.71a.7.7,0,1,0,.81,1.14A9.32,9.32,0,0,0,3.27,10.7c.3-.47.59-1,.85-1.52l.21-.4.09.07.27,1.85a18.21,18.21,0,0,0-1.06,6.7.7.7,0,0,0,.7.69l.94,3.23a.7.7,0,0,0,.67.51H8.32A.7.7,0,0,0,9,21.3l.94-3.24h.12a.7.7,0,0,0,.7-.69,18.21,18.21,0,0,0-1.06-6.7l.22-1.53c.12.45.25.92.4,1.35A9.34,9.34,0,0,0,12,13.08a.67.67,0,0,0,.15.11,1.68,1.68,0,0,0-.07.45v1.64a3.36,3.36,0,0,0,.63,2A2.5,2.5,0,0,1,13,18.39l.13,1.68c.08,1,.57,1.64,1.22,1.64h1.35a1.75,1.75,0,0,0,1.69-1.64l.13-1.68a2.5,2.5,0,0,1,.37-1.12,3.36,3.36,0,0,0,.63-2V13.65A1.7,1.7,0,0,0,16.87,11.94ZM6.18,2.57a1.17,1.17,0,0,1,2.34,0V4A1.17,1.17,0,0,1,6.18,4ZM5,7.46s.06-.2.23-.2c.36,0,1.65,0,1.65,0l0-.78a2.55,2.55,0,0,0,.41,0h.09l0,.75s1.3,0,1.65,0c.15,0,.22.17.25.25h0l-.5.39a.7.7,0,0,0-.26.45l-.34,2.31a.7.7,0,0,0,.05.39,15.83,15.83,0,0,1,1,5.61h-2a.68.68,0,0,0-.18,0,.68.68,0,0,0-.18,0H5a16,16,0,0,1,1-5.61.7.7,0,0,0,.05-.39L5.77,8.36a.7.7,0,0,0-.26-.45L5,7.51Zm.76,10.61h.89l0,2.34H6.46Zm2,2.34H7.64l0-2.34h.81Zm8.36-7.06-.81.68-.76-.68h1.57Zm.72,3a3.74,3.74,0,0,0-.71,1.93L16,20a.38.38,0,0,1-.29.35h-1.1a1.34,1.34,0,0,1-.07-.35l-.13-1.68a3.74,3.74,0,0,0-.71-1.93,2.12,2.12,0,0,1-.29-1.06V13.66L15,15.06a.5.5,0,0,0,.65,0l1.51-1.26v1.48A2.12,2.12,0,0,1,16.88,16.35Z"/><path class="cls-1" d="M15.33,11.65a2.44,2.44,0,1,0-2.44-2.44A2.45,2.45,0,0,0,15.33,11.65Zm0-3.48a1,1,0,1,1-1,1A1,1,0,0,1,15.33,8.17Z"/></g></g></svg>