<svg xmlns="http://www.w3.org/2000/svg" viewBox="0 0 26.98 31.7"><defs><style>.cls-1{fill:#fc1050;}</style></defs><title>Ресурс 51</title><g id="Слой_2" data-name="Слой 2"><g id="Слой_1-2" data-name="Слой 1"><path class="cls-1" d="M25,17.38H19.52a2,2,0,0,0-.75.15,11,11,0,0,1-1.86-2.93c-.25-.71-.47-1.55-.67-2.29a13.72,13.72,0,0,0-.71-2.24,1,1,0,0,0-.16-.21,2.35,2.35,0,0,0-2-1.33h-.19A3.7,3.7,0,0,0,14.4,5.76v-2A3.72,3.72,0,1,0,7,3.72v2A3.7,3.7,0,0,0,8.21,8.52H7.55a2.39,2.39,0,0,0-2.17,1.69l-.11.3a16.42,16.42,0,0,0-1.08,1.88c-.36.68-.76,1.45-1.16,2.09A11.71,11.71,0,0,1,.42,17a1,1,0,0,0,1.16,1.63,13.54,13.54,0,0,0,3.15-3.14c.44-.7.86-1.51,1.23-2.22l.32-.61.15.12.39,2.7a26.48,26.48,0,0,0-1.54,9.74,1,1,0,0,0,1,1h0L7.66,31a1,1,0,0,0,1,.72H12.1a1,1,0,0,0,1-.72l1.38-4.72h.19a1,1,0,0,0,1-1,26.47,26.47,0,0,0-1.54-9.74l.34-2.32c.18.68.38,1.39.61,2A13.57,13.57,0,0,0,17.4,19a.94.94,0,0,0,.15.11,2,2,0,0,0,0,.27v3.3a4.06,4.06,0,0,0,.93,2.43,2.58,2.58,0,0,1,.49,1.17l.27,3.35a1.9,1.9,0,0,0,1.72,1.92h2.29a2.09,2.09,0,0,0,2.08-1.92l.27-3.35a2.59,2.59,0,0,1,.51-1.19A4,4,0,0,0,27,22.68v-3.3A2,2,0,0,0,25,17.38ZM9,3.72a1.72,1.72,0,1,1,3.44,0v2A1.72,1.72,0,1,1,9,5.76ZM7.28,10.83s.1-.3.35-.31c.41,0,1.88,0,2.41,0a.92.92,0,0,0,.41-.07,1,1,0,0,0,.4.07c.53,0,2-.06,2.41,0,.23,0,.34.25.38.38v0l-.74.58a1,1,0,0,0-.37.64l-.49,3.36a1,1,0,0,0,.08.55,23.06,23.06,0,0,1,1.48,8.19h-2.9a1,1,0,0,0-.26.05,1,1,0,0,0-.26-.05H7.28a23.34,23.34,0,0,1,1.48-8.19,1,1,0,0,0,.08-.55l-.49-3.36A1,1,0,0,0,8,11.51l-.74-.58ZM8.37,26.26H9.92L9.87,29.7h-.5Zm3,3.44h-.48l.05-3.44h1.43ZM21.53,19.38h2.35l-1.57,1.31-1.46-1.31h.68Zm3,4.41a4.55,4.55,0,0,0-1,2.33l-.27,3.35a.12.12,0,0,1-.08.08h-2a.54.54,0,0,1,0-.08l-.27-3.35a4.57,4.57,0,0,0-1-2.35,2.13,2.13,0,0,1-.41-1.09V19.53L22,21.73a.5.5,0,0,0,.65,0l2.37-2v2.92A2.14,2.14,0,0,1,24.55,23.8Z"/><path class="cls-1" d="M22.29,16.92a3.54,3.54,0,1,0-3.54-3.54A3.54,3.54,0,0,0,22.29,16.92Zm0-5.07a1.54,1.54,0,1,1-1.54,1.54A1.54,1.54,0,0,1,22.29,11.85Z"/></g></g></svg>