<svg xmlns="http://www.w3.org/2000/svg" viewBox="0 0 48.48 29.6"><defs><style>.cls-1{fill:#fc1050;}</style></defs><title>Ресурс 63</title><g id="Слой_2" data-name="Слой 2"><g id="Слой_1-2" data-name="Слой 1"><path class="cls-1" d="M23.8,29.6a1,1,0,0,1-.72-.3l-8.64-8.88A1,1,0,1,1,15.88,19l7.9,8.12L34.43,15.61a8.49,8.49,0,0,0,0-11.31A6.77,6.77,0,0,0,24.5,4a1,1,0,0,1-1.4,0,6.77,6.77,0,0,0-9.93.26,8.21,8.21,0,0,0-2.11,5,1,1,0,0,1-2-.14,10.22,10.22,0,0,1,2.63-6.2A8.9,8.9,0,0,1,18.29,0,8.79,8.79,0,0,1,23.8,2a8.78,8.78,0,0,1,5.51-2A8.9,8.9,0,0,1,35.9,2.94a10.52,10.52,0,0,1,0,14L24.54,29.27a1,1,0,0,1-.72.32Z"/><path class="cls-1" d="M25.48,16.44H6.22a1,1,0,1,1,0-2H25.48a1,1,0,1,1,0,2Z"/><path class="cls-1" d="M5.58,23.76a1,1,0,0,1-1-1V7.4a1,1,0,0,1,2,0V22.76A1,1,0,0,1,5.58,23.76Z"/><path class="cls-1" d="M1,20.74a1,1,0,0,1-1-1V11.3a1,1,0,0,1,2,0v8.44A1,1,0,0,1,1,20.74Z"/><path class="cls-1" d="M42.91,23.76a1,1,0,0,1-1-1V7.4a1,1,0,0,1,2,0V22.76A1,1,0,0,1,42.91,23.76Z"/><path class="cls-1" d="M47.48,20.74a1,1,0,0,1-1-1V11.3a1,1,0,0,1,2,0v8.44A1,1,0,0,1,47.48,20.74Z"/><path class="cls-1" d="M33.87,12H33.8a.5.5,0,0,1-.43-.56,4.9,4.9,0,0,0-.91-4,6.69,6.69,0,0,0-4.37-2A.5.5,0,0,1,27.62,5a.47.47,0,0,1,.52-.48,7.63,7.63,0,0,1,5.09,2.31,5.85,5.85,0,0,1,1.13,4.76A.5.5,0,0,1,33.87,12Z"/></g></g></svg>