<svg xmlns="http://www.w3.org/2000/svg" viewBox="0 0 27.78 17.06"><defs><style>.cls-1{fill:#fc1050;}</style></defs><title>Ресурс 62</title><g id="Слой_2" data-name="Слой 2"><g id="Слой_1-2" data-name="Слой 1"><path class="cls-1" d="M16.77,0a5.1,5.1,0,0,0-3.13,1.09A5.11,5.11,0,0,0,10.51,0,5.18,5.18,0,0,0,6.68,1.71a5.93,5.93,0,0,0-1.53,3.6.7.7,0,0,0,.65.75.72.72,0,0,0,.75-.65A4.53,4.53,0,0,1,7.7,2.66a3.79,3.79,0,0,1,5.44-.14.7.7,0,0,0,1,0,3.79,3.79,0,0,1,5.44.14,4.68,4.68,0,0,1,0,6.24l-5.95,6.44L9.24,10.83a.7.7,0,0,0-1,1l4.9,5a.7.7,0,0,0,.5.21h0a.7.7,0,0,0,.5-.22l6.45-7a6.1,6.1,0,0,0,0-8.14A5.18,5.18,0,0,0,16.77,0Z"/><path class="cls-1" d="M14.59,9.59a.7.7,0,0,0,0-1.4H4V4.33a.7.7,0,1,0-1.4,0V13A.7.7,0,0,0,4,13V9.59Z"/><path class="cls-1" d="M.7,5.85a.7.7,0,0,0-.7.7v4.79a.7.7,0,0,0,1.4,0V6.55A.7.7,0,0,0,.7,5.85Z"/><path class="cls-1" d="M24.48,3.63a.7.7,0,0,0-.7.7V13a.7.7,0,0,0,1.4,0V4.33A.7.7,0,0,0,24.48,3.63Z"/><path class="cls-1" d="M27.08,5.85a.7.7,0,0,0-.7.7v4.79a.7.7,0,0,0,1.4,0V6.55A.7.7,0,0,0,27.08,5.85Z"/></g></g></svg>