<svg xmlns="http://www.w3.org/2000/svg" viewBox="0 0 22.57 18.13"><defs><style>.cls-1{fill:#fc1050;}</style></defs><title>Ресурс 53</title><g id="Слой_2" data-name="Слой 2"><g id="Слой_1-2" data-name="Слой 1"><path class="cls-1" d="M19.87,4.55H7.58V3.93a.66.66,0,0,0,0-.13c0-.09,0-.17,0-.25v0s0,0,0,0A3.78,3.78,0,0,0,0,3.33a.68.68,0,0,0,0,.19v.19s0,.06,0,.1,0,0,0,0V14.23s0,.06,0,.1,0,.06,0,.1v.27A.7.7,0,0,0,.06,15,3.8,3.8,0,0,0,3.8,18.13a3.78,3.78,0,0,0,.65-.07.67.67,0,0,0,.16,0H19.87a2.7,2.7,0,0,0,2.7-2.7V7.25A2.7,2.7,0,0,0,19.87,4.55ZM3.8,1.4A2.4,2.4,0,0,1,6.18,3.55v7.83a3.72,3.72,0,0,0-4.77,0V3.71A2.4,2.4,0,0,1,3.8,1.4Zm-2.39,13v-.19a2.39,2.39,0,0,1,4.77-.15v.5a2.39,2.39,0,0,1-4.77-.15Zm19.76,1a1.3,1.3,0,0,1-1.3,1.3H6.76a3.76,3.76,0,0,0,.81-1.89.66.66,0,0,0,0-.11v-.11c0-.08,0-.17,0-.25s0-.17,0-.25V6H19.87a1.3,1.3,0,0,1,1.3,1.3Z"/><path class="cls-1" d="M3.8,12.44a1.89,1.89,0,1,0,1.89,1.89A1.89,1.89,0,0,0,3.8,12.44Zm0,2.78a.89.89,0,1,1,.89-.89A.89.89,0,0,1,3.8,15.22Z"/><path class="cls-1" d="M16.89,14.35h-8a.5.5,0,0,0,0,1h8a.5.5,0,0,0,0-1Z"/><path class="cls-1" d="M18.71,14.35h-.45a.5.5,0,0,0,0,1h.45a.5.5,0,0,0,0-1Z"/></g></g></svg>