<svg xmlns="http://www.w3.org/2000/svg" viewBox="0 0 34.67 27.82"><defs><style>.cls-1{fill:#fc1050;}</style></defs><title>Ресурс 44</title><g id="Слой_2" data-name="Слой 2"><g id="Слой_1-2" data-name="Слой 1"><path class="cls-1" d="M31.67,7H11.54V5.79h0A5.79,5.79,0,0,0,0,5.35H0v.14c0,.1,0,.2,0,.3H0V21.73c0,.1,0,.2,0,.3s0,.2,0,.3v.27H0a5.75,5.75,0,0,0,6.48,5.18H31.67a3,3,0,0,0,3-3V10A3,3,0,0,0,31.67,7ZM5.79,2A3.78,3.78,0,0,1,9.54,5.4V17.63a5.76,5.76,0,0,0-7.53,0v-12A3.79,3.79,0,0,1,5.79,2ZM2,22.18v-.3a3.77,3.77,0,0,1,7.53-.24v.78a3.77,3.77,0,0,1-3.26,3.35H5.55v0A3.78,3.78,0,0,1,2,22.18Zm30.65,2.59a1,1,0,0,1-1,1H10.2a5.72,5.72,0,0,0,1.34-4.4V9H31.67a1,1,0,0,1,1,1Z"/><path class="cls-1" d="M5.79,24.67A2.64,2.64,0,1,0,3.15,22,2.65,2.65,0,0,0,5.79,24.67Zm0-4.29A1.64,1.64,0,1,1,4.15,22,1.64,1.64,0,0,1,5.79,20.39Z"/><path class="cls-1" d="M26,22.34H13.63a.5.5,0,0,0,0,1H26a.5.5,0,0,0,0-1Z"/><path class="cls-1" d="M27.89,22.34H27.2a.5.5,0,0,0,0,1h.69a.5.5,0,0,0,0-1Z"/></g></g></svg>