<svg xmlns="http://www.w3.org/2000/svg" viewBox="0 0 66.27 61.31"><defs><style>.cls-1{fill:#fff;}</style></defs><title>Ресурс 15</title><g id="Слой_2" data-name="Слой 2"><g id="Слой_1-2" data-name="Слой 1"><path class="cls-1" d="M15.84,30.19l5.36-13.4L27.09,43.3a1.06,1.06,0,0,0,1,.83h0a1.06,1.06,0,0,0,1-.77l5.7-19.93,2.23,6.71a1.06,1.06,0,0,0,1,.72H51.34a1.06,1.06,0,0,0,0-2.12H38.84l-3.07-9.23a1,1,0,0,0-.87-.74h-.16a1.05,1.05,0,0,0-1,.77L28.9,36.49l-1.16,0L22.53,13a1.08,1.08,0,0,0-1-.83,1.06,1.06,0,0,0-1,.66L14.14,28.74H1.59a1.06,1.06,0,0,0,0,2.12H14.86A1,1,0,0,0,15.84,30.19Z"/><path class="cls-1" d="M60.44,5.83A19.76,19.76,0,0,0,33.1,5.17,19.79,19.79,0,0,0,.63,24.83H4.08A16.47,16.47,0,0,1,30.68,7.45L33.1,9.71l2.42-2.27a16.45,16.45,0,0,1,22.57.73,16.6,16.6,0,0,1,0,23.45l-25,25L11.26,34.78H6.57L33.1,61.31,60.44,34A19.9,19.9,0,0,0,60.44,5.83Z"/><path class="cls-1" d="M58,21.64a.5.5,0,1,0,1,0A13.2,13.2,0,0,0,45.83,8.45a.5.5,0,0,0,0,1A12.2,12.2,0,0,1,58,21.64Z"/></g></g></svg>