<svg xmlns="http://www.w3.org/2000/svg" viewBox="0 0 63.01 63.01"><defs><style>.cls-1{fill:#fc1050;}.cls-2{fill:#fff;}</style></defs><title>Ресурс 20</title><g id="Слой_2" data-name="Слой 2"><g id="Слой_1-2" data-name="Слой 1"><path class="cls-1" d="M18.9,0a9.44,9.44,0,0,0-1.58,18.74V41h3.15V18.74A9.44,9.44,0,0,0,18.9,0Zm0,15.75a6.3,6.3,0,1,1,6.3-6.3A6.31,6.31,0,0,1,18.9,15.75Z"/><path class="cls-2" d="M62.94,59.18l-6.3-28.35a3.15,3.15,0,0,0-3.08-2.47H23.63V31.5H42.28l-16.16,16L6.45,45l3-13.5h4.73V28.35H9.45a3.15,3.15,0,0,0-3.08,2.47L.07,59.18A3.15,3.15,0,0,0,3.15,63H59.86a3.15,3.15,0,0,0,3.08-3.83ZM58,51.67,37.62,49,53.79,32.86a2.12,2.12,0,0,1,.17.47C54.21,34.47,56.4,44.31,58,51.67ZM45.4,31.5h5.93a3.81,3.81,0,0,1,.63.07l-17.1,17.1-6-.77ZM16.84,59.86,27.62,49.15l6,.77-9.93,9.93ZM6.15,46.37l18.71,2.42L13.71,59.86H3.15ZM26.79,59.86l9.58-9.58,22,2.84,1.5,6.73Z"/></g></g></svg>