<svg xmlns="http://www.w3.org/2000/svg" viewBox="0 0 67.67 59.7"><defs><style>.cls-1{fill:#fff;}.cls-2{fill:#fc1050;}</style></defs><title>Ресурс 19</title><g id="Слой_2" data-name="Слой 2"><g id="Слой_1-2" data-name="Слой 1"><path class="cls-1" d="M60.9,15.72H6.77A6.77,6.77,0,0,0,0,22.48V52.93A6.77,6.77,0,0,0,6.77,59.7H60.9a6.77,6.77,0,0,0,6.77-6.77V22.48A6.77,6.77,0,0,0,60.9,15.72Zm3.38,37.22a3.39,3.39,0,0,1-3.38,3.38H6.77a3.39,3.39,0,0,1-3.38-3.38V22.48A3.39,3.39,0,0,1,6.77,19.1H60.9a3.39,3.39,0,0,1,3.38,3.38V52.93Z"/><path class="cls-2" d="M52.95,12.33,49.29,4.49a4,4,0,0,0-3.62-2.3A4,4,0,0,0,44,2.56L23,12.33H17.87L43.07.58A6.11,6.11,0,0,1,45.67,0a6.19,6.19,0,0,1,5.59,3.56l4.09,8.77Z"/><path class="cls-1" d="M10.15,35.42a2.79,2.79,0,0,1-2.78-2.78V25.87a2.79,2.79,0,0,1,2.78-2.78H20.3a2.79,2.79,0,0,1,2.78,2.78v6.77a2.79,2.79,0,0,1-2.78,2.78Zm-.6-2.18H20.9v-8H9.55Z"/><rect class="cls-1" x="7.77" y="47.17" width="31.83" height="1.38"/><path class="cls-1" d="M55.82,51.93a4.06,4.06,0,0,1-2.71-1.06l-.67-.6-.67.6a4.08,4.08,0,1,1,0-6l.67.6.67-.6a4.07,4.07,0,1,1,2.71,7.09Zm0-6.77a2.69,2.69,0,1,0,2.69,2.69A2.69,2.69,0,0,0,55.82,45.17Zm-6.77,0a2.69,2.69,0,1,0,2.69,2.69A2.69,2.69,0,0,0,49.06,45.17Z"/></g></g></svg>