<svg xmlns="http://www.w3.org/2000/svg" viewBox="0 0 66.27 61.31"><defs><style>.cls-1{fill:#fc1050;}.cls-2{fill:#fff;}</style></defs><title>Ресурс 18</title><g id="Слой_2" data-name="Слой 2"><g id="Слой_1-2" data-name="Слой 1"><path class="cls-1" d="M28.08,44.12a1.06,1.06,0,0,1-1-.83L21.2,16.79l-5.36,13.4a1,1,0,0,1-1,.67H1.59a1.06,1.06,0,1,1,0-2.12H14.14l6.37-15.92a1.06,1.06,0,0,1,1-.66,1.08,1.08,0,0,1,1,.83l5.21,23.47,1.16,0,4.84-16.93a1.05,1.05,0,0,1,1-.77h.16a1,1,0,0,1,.87.74l3.07,9.23h12.5a1.06,1.06,0,0,1,0,2.12H38.08a1.06,1.06,0,0,1-1-.72l-2.23-6.71-5.7,19.93a1.06,1.06,0,0,1-1,.77Z"/><path class="cls-2" d="M60.44,5.83A19.76,19.76,0,0,0,33.1,5.17,19.79,19.79,0,0,0,.63,24.83H4.08A16.47,16.47,0,0,1,30.68,7.45L33.1,9.71l2.42-2.27a16.45,16.45,0,0,1,22.57.73,16.6,16.6,0,0,1,0,23.45l-25,25L11.26,34.78H6.57L33.1,61.31,60.44,34A19.9,19.9,0,0,0,60.44,5.83Z"/><path class="cls-2" d="M58.52,22.14a.5.5,0,0,1-.5-.5A12.2,12.2,0,0,0,45.83,9.45a.5.5,0,0,1,0-1A13.2,13.2,0,0,1,59,21.64.5.5,0,0,1,58.52,22.14Z"/></g></g></svg>