<?xml version="1.0" encoding="utf-8"?>
<!-- Generator: Adobe Illustrator 15.0.0, SVG Export Plug-In . SVG Version: 6.00 Build 0)  -->
<!DOCTYPE svg PUBLIC "-//W3C//DTD SVG 1.1//EN" "http://www.w3.org/Graphics/SVG/1.1/DTD/svg11.dtd">
<svg version="1.1" id="Layer_1" xmlns="http://www.w3.org/2000/svg" xmlns:xlink="http://www.w3.org/1999/xlink" x="0px" y="0px"
	 width="46px" height="46px" viewBox="0 0 46 46" enable-background="new 0 0 46 46" xml:space="preserve">
<path fill="#FB1050" d="M6.396,24.119c-4.675-4.447-4.86-11.843-0.413-16.518C10.43,2.926,17.826,2.74,22.501,7.187l1.017,0.922
	l0.939-0.941C29.422,3.03,36.802,3.7,40.939,8.665c3.764,4.515,3.594,11.12-0.396,15.437L23.518,41.165L6.396,24.119z"/>
<path fill="#1A273B" d="M23.009,43.874c-0.126,0.003-0.248-0.044-0.338-0.132L4.478,25.529C-0.957,20.284-1.111,11.626,4.135,6.19
	C9.21,0.931,17.523,0.591,23.01,5.418C28.568,0.3,37.223,0.659,42.342,6.217c5.117,5.559,4.76,14.214-0.8,19.331L23.348,43.742
	C23.257,43.83,23.135,43.877,23.009,43.874z M14.186,5.268C8.346,5.245,3.594,9.96,3.571,15.799
	C3.56,18.614,4.672,21.318,6.66,23.31l16.293,16.293L39.246,23.31c4.125-4.133,4.117-10.828-0.016-14.953
	c-1.992-1.989-4.695-3.101-7.51-3.089c-2.548,0.001-5.005,0.939-6.906,2.634l-1.599,1.486c-0.18,0.167-0.459,0.167-0.64,0
	l-1.618-1.505C19.09,6.224,16.685,5.295,14.186,5.268z"/>
<path fill="#1A273B" d="M31.833,2.596c7.272-0.105,13.255,5.705,13.36,12.977c0.053,3.606-1.377,7.076-3.953,9.6L23.292,43.121l0,0
	l-0.245,0.245l0,0l-0.245-0.245l0,0L4.816,25.211c-5.294-5.024-5.513-13.389-0.489-18.683s13.388-5.513,18.682-0.489
	C25.422,3.837,28.566,2.61,31.833,2.596 M23.009,9.068L23.009,9.068l-0.245-0.226l0,0l-1.373-1.28
	C17.04,3.702,10.431,3.916,6.34,8.051c-4.311,4.313-4.311,11.303,0,15.616l16.631,16.631l16.632-16.631
	c4.291-4.334,4.256-11.327-0.078-15.618c-2.059-2.038-4.834-3.186-7.73-3.196c-2.662,0.005-5.23,0.982-7.225,2.747l-1.374,1.28l0,0
	l-0.245,0.226 M31.833,1.656c-3.214,0.01-6.327,1.119-8.824,3.142C16.889-0.06,7.989,0.965,3.132,7.085
	c-4.463,5.624-4.006,13.699,1.063,18.784l17.911,17.91l0,0l0.245,0.244c0.366,0.369,0.961,0.373,1.331,0.006
	c0.002-0.002,0.004-0.004,0.006-0.006l0.244-0.244l0,0l17.91-17.91c5.539-5.542,5.536-14.523-0.006-20.062
	C39.182,3.155,35.586,1.662,31.833,1.656z M23.009,10.009c0.236,0.002,0.465-0.085,0.64-0.244l0.244-0.226l1.375-1.279
	c1.81-1.607,4.145-2.498,6.564-2.502c5.58,0.015,10.091,4.55,10.076,10.13c-0.008,2.664-1.065,5.216-2.946,7.104L22.991,38.964
	L7.037,22.972C3.098,19.019,3.11,12.622,7.063,8.684c1.892-1.885,4.452-2.944,7.122-2.946c2.403,0.025,4.716,0.921,6.51,2.521
	l1.336,1.261l0.245,0.226c0.172,0.166,0.4,0.26,0.64,0.263H23.009z"/>
</svg>
