<?xml version="1.0" encoding="utf-8"?>
<!-- Generator: Adobe Illustrator 15.0.0, SVG Export Plug-In . SVG Version: 6.00 Build 0)  -->
<!DOCTYPE svg PUBLIC "-//W3C//DTD SVG 1.1//EN" "http://www.w3.org/Graphics/SVG/1.1/DTD/svg11.dtd">
<svg version="1.1" id="Layer_1" xmlns="http://www.w3.org/2000/svg" xmlns:xlink="http://www.w3.org/1999/xlink" x="0px" y="0px"
	 width="46px" height="46px" viewBox="0 0 46 46" enable-background="new 0 0 46 46" xml:space="preserve">
<path fill="#FB1050" d="M6.396,24.119c-4.675-4.447-4.86-11.843-0.413-16.518C10.43,2.926,17.826,2.74,22.501,7.187l1.017,0.922
	l0.939-0.941C29.422,3.03,36.802,3.7,40.939,8.665c3.764,4.515,3.594,11.12-0.396,15.437L23.518,41.165L6.396,24.119z"/>
<path fill="#1A273B" d="M45.867,14.052c-0.295-2.825-1.454-5.584-3.525-7.835c-1.42-1.542-3.117-2.668-4.94-3.404
	c-0.154-0.066-0.312-0.125-0.469-0.186c-0.114-0.041-0.228-0.084-0.343-0.123c-1.514-0.542-3.117-0.845-4.757-0.847
	c-3.214,0.01-6.327,1.119-8.824,3.142C16.889-0.06,7.989,0.965,3.132,7.085c-4.463,5.624-4.006,13.699,1.063,18.784l17.911,17.91
	l0.245,0.244c0.366,0.369,0.961,0.373,1.331,0.006c0.002-0.002,0.004-0.004,0.006-0.006l0.244-0.244l17.91-17.91
	C45.066,22.643,46.399,18.252,45.867,14.052z M22.031,9.52l0.245,0.226c0.172,0.166,0.4,0.26,0.64,0.263h0.093
	c0.236,0.002,0.465-0.085,0.64-0.244l0.244-0.226l1.375-1.279c1.811-1.607,4.146-2.498,6.564-2.502
	c5.58,0.015,10.091,4.55,10.076,10.13c-0.008,2.664-1.065,5.216-2.946,7.104L22.991,38.964L7.037,22.972
	C3.098,19.019,3.11,12.622,7.063,8.684c1.892-1.885,4.452-2.944,7.122-2.946c2.403,0.025,4.716,0.921,6.51,2.521L22.031,9.52z"/>
</svg>
