<?xml version="1.0" encoding="utf-8"?>
<!-- Generator: Adobe Illustrator 15.0.0, SVG Export Plug-In . SVG Version: 6.00 Build 0)  -->
<svg version="1.2" baseProfile="tiny" id="Layer_1" xmlns="http://www.w3.org/2000/svg" xmlns:xlink="http://www.w3.org/1999/xlink"
	 x="0px" y="0px" width="46px" height="46px" viewBox="0 0 46 46" xml:space="preserve">
<path fill="#FFFFFF" d="M43.043,24.478c4.075-5.332,3.847-13.273-0.725-18.241C37.355,0.848,28.685,0.213,23,4.808
	C17.123,0.059,8.088,0.923,3.236,6.745c-4.593,5.512-4.11,14.085,0.935,19.144l17.911,17.91l0.245,0.244
	c0.358,0.361,0.986,0.361,1.344,0l0.245-0.244l17.911-17.91C42.268,25.448,42.667,24.972,43.043,24.478
	C43.303,24.138,42.99,24.547,43.043,24.478z M7.062,23.012C3.325,19.26,3.168,13.064,6.7,9.132
	c3.601-4.009,9.914-4.471,13.971-0.854l1.336,1.261l0.245,0.227c0.172,0.166,0.4,0.26,0.64,0.263h0.093
	c0.01-0.003,0.02-0.003,0.029,0h0.093c0.24-0.003,0.468-0.097,0.64-0.263l0.245-0.227l1.336-1.261
	C29.386,4.661,35.699,5.124,39.3,9.132c3.532,3.932,3.375,10.128-0.361,13.88L23,38.952L7.062,23.012
	C5.181,21.124,7.062,23.012,7.062,23.012z"/>
</svg>
