<?xml version="1.0" encoding="utf-8"?>
<!-- Generator: Adobe Illustrator 15.0.0, SVG Export Plug-In . SVG Version: 6.00 Build 0)  -->
<!DOCTYPE svg PUBLIC "-//W3C//DTD SVG 1.1//EN" "http://www.w3.org/Graphics/SVG/1.1/DTD/svg11.dtd">
<svg version="1.1" id="Layer_1" xmlns="http://www.w3.org/2000/svg" xmlns:xlink="http://www.w3.org/1999/xlink" x="0px" y="0px"
	 width="46px" height="46px" viewBox="0 0 46 46" enable-background="new 0 0 46 46" xml:space="preserve">
<path display="none" d="M6.396,24.119C1.721,19.672,1.536,12.276,5.983,7.601S17.826,2.74,22.501,7.187l1.016,0.922l0.94-0.941
	C29.422,3.03,36.802,3.7,40.939,8.665c3.764,4.515,3.594,11.12-0.396,15.436L23.518,41.165L6.396,24.119z"/>
<path fill="#FFFFFF" d="M23.009,43.874c-0.126,0.003-0.248-0.044-0.338-0.132L4.478,25.53c-5.435-5.246-5.589-13.904-0.343-19.34
	c5.075-5.259,13.388-5.599,18.875-0.772c5.559-5.118,14.213-4.759,19.332,0.799c5.117,5.559,4.759,14.214-0.8,19.331L23.348,43.742
	C23.257,43.83,23.135,43.877,23.009,43.874z M14.186,5.268C8.346,5.245,3.594,9.96,3.571,15.799
	c-0.011,2.815,1.101,5.519,3.089,7.511l16.293,16.293l16.293-16.293c4.125-4.133,4.118-10.828-0.016-14.953
	c-1.992-1.989-4.695-3.101-7.51-3.089c-2.547,0.001-5.004,0.939-6.905,2.634l-1.599,1.486c-0.18,0.167-0.459,0.167-0.64,0
	l-1.618-1.505C19.09,6.224,16.685,5.295,14.186,5.268z"/>
<path fill="#FFFFFF" d="M31.833,2.596c7.272-0.105,13.255,5.705,13.36,12.977c0.053,3.606-1.377,7.076-3.953,9.6L23.292,43.121l0,0
	l-0.245,0.245l0,0l-0.245-0.245l0,0L4.816,25.211c-5.294-5.024-5.513-13.389-0.489-18.683s13.388-5.513,18.682-0.489
	C25.422,3.837,28.566,2.61,31.833,2.596 M23.009,9.068L23.009,9.068l-0.245-0.226l0,0l-1.373-1.28
	c-4.351-3.86-10.96-3.646-15.051,0.489c-4.311,4.313-4.311,11.303,0,15.616l16.631,16.631l16.632-16.631
	c4.291-4.334,4.256-11.327-0.078-15.618c-2.058-2.038-4.834-3.186-7.73-3.196c-2.662,0.005-5.23,0.982-7.225,2.747l-1.373,1.28l0,0
	l-0.245,0.226 M31.833,1.656c-3.214,0.01-6.327,1.119-8.824,3.142C16.889-0.06,7.989,0.965,3.132,7.085
	c-4.463,5.624-4.006,13.699,1.063,18.784l17.911,17.91l0,0l0.245,0.245c0.366,0.369,0.961,0.372,1.331,0.005
	c0.002-0.001,0.004-0.003,0.005-0.005l0.245-0.245l0,0l17.91-17.91c5.539-5.542,5.536-14.523-0.006-20.062
	C39.182,3.155,35.586,1.662,31.833,1.656z M23.009,10.009c0.236,0.002,0.465-0.085,0.639-0.244l0.245-0.226l1.374-1.279
	c1.81-1.607,4.145-2.498,6.565-2.502c5.58,0.015,10.091,4.55,10.076,10.13c-0.007,2.664-1.065,5.216-2.946,7.104L22.991,38.964
	L7.037,22.972C3.098,19.019,3.11,12.622,7.063,8.684c1.892-1.885,4.452-2.944,7.122-2.946c2.403,0.025,4.716,0.921,6.51,2.521
	l1.336,1.261l0.245,0.226c0.172,0.166,0.4,0.26,0.64,0.263H23.009z"/>
</svg>
