<svg xmlns="http://www.w3.org/2000/svg" viewBox="0 0 67.67 59.7"><defs><style>.cls-1{fill:#fff;}</style></defs><title>Ресурс 16</title><g id="Слой_2" data-name="Слой 2"><g id="Слой_1-2" data-name="Слой 1"><path class="cls-1" d="M60.9,15.72H6.77A6.77,6.77,0,0,0,0,22.48V52.93A6.77,6.77,0,0,0,6.77,59.7H60.9a6.77,6.77,0,0,0,6.77-6.77V22.48A6.77,6.77,0,0,0,60.9,15.72Zm3.38,37.22a3.39,3.39,0,0,1-3.38,3.38H6.77a3.39,3.39,0,0,1-3.38-3.38V22.48A3.39,3.39,0,0,1,6.77,19.1H60.9a3.39,3.39,0,0,1,3.38,3.38Z"/><path class="cls-1" d="M44,2.56a4,4,0,0,1,1.68-.37,4,4,0,0,1,3.62,2.3l3.66,7.85h2.41L51.27,3.56A6.19,6.19,0,0,0,45.67,0a6.11,6.11,0,0,0-2.6.58L17.87,12.33H23Z"/><path class="cls-1" d="M10.15,35.42H20.3a2.79,2.79,0,0,0,2.78-2.78V25.87a2.79,2.79,0,0,0-2.78-2.78H10.15a2.79,2.79,0,0,0-2.78,2.78v6.77A2.79,2.79,0,0,0,10.15,35.42Zm-.6-10.15H20.9v8H9.55Z"/><rect class="cls-1" x="7.77" y="47.17" width="31.83" height="1.38"/><path class="cls-1" d="M55.82,43.78a4.06,4.06,0,0,0-2.71,1.06l-.67.6-.67-.6a4.08,4.08,0,1,0,0,6l.67-.6.67.6a4.07,4.07,0,1,0,2.71-7.09Zm-6.77,6.77a2.69,2.69,0,1,1,2.69-2.69A2.69,2.69,0,0,1,49.06,50.55Zm6.77,0a2.69,2.69,0,1,1,2.69-2.69A2.69,2.69,0,0,1,55.82,50.55Z"/></g></g></svg>