<svg xmlns="http://www.w3.org/2000/svg" viewBox="0 0 33.01 29.75"><defs><style>.cls-1{fill:#fff;}</style></defs><title>Ресурс 79</title><g id="Слой_2" data-name="Слой 2"><g id="Слой_1-2" data-name="Слой 1"><path class="cls-1" d="M6.46,29.75,8,25c.71-2.16,1.41-4.32,2.14-6.48a.5.5,0,0,0-.24-.7Q5.14,14.72.4,11.54L0,11.25l0-.12H1.64l7.87-.06c.91,0,1.82,0,2.72,0,.31,0,.41-.11.5-.38Q14.41,5.53,16.1.4l.15-.4c.09.21.15.35.2.49q1.86,5,3.71,10.09a.48.48,0,0,0,.56.38c1.51,0,3,0,4.54-.05l7.35-.06a.75.75,0,0,1,.41.08l-2.19,1.56c-2.52,1.78-5,3.57-7.56,5.34a.47.47,0,0,0-.2.66q2,5.4,3.91,10.8c0,.11.07.21.14.44L16.75,22.46Z"/></g></g></svg>
