<svg xmlns="http://www.w3.org/2000/svg" viewBox="0 0 20.27 11.42"><defs><style>.cls-1{fill:#fff;}</style></defs><title>Ресурс 34</title><g id="Слой_2" data-name="Слой 2"><g id="Слой_1-2" data-name="Слой 1"><path class="cls-1" d="M0,.74A.59.59,0,0,1,.5.46H3.41a1,1,0,0,1,1,.62c.5,1.06,1.06,2.13,1.57,3.19a3.65,3.65,0,0,0,.9,1.18c.11.06.17.11.28.17a.41.41,0,0,0,.56-.22,2.43,2.43,0,0,0,.22-1.06,6.66,6.66,0,0,0-.11-2.57,1.07,1.07,0,0,0-.9-.9C6.6.8,6.6.74,6.77.52A1.07,1.07,0,0,1,7.56.13,11.63,11.63,0,0,1,11,.13c.56.11.78.28.84,1a14.63,14.63,0,0,1,0,1.57V4.72a2.38,2.38,0,0,0,.11.62c.17.39.45.45.78.17a5.44,5.44,0,0,0,1.23-1.57,15.8,15.8,0,0,0,1.4-2.74c.22-.67.34-.73.9-.73,1.06,0,2.13,0,3.19-.06a1.55,1.55,0,0,1,.5.06.45.45,0,0,1,.34.56,2.67,2.67,0,0,1-.56,1.29c-.67,1-1.4,2-2.13,2.91a4.67,4.67,0,0,0-.45.67A.85.85,0,0,0,17.24,7c.45.5,1,1,1.4,1.4A10.13,10.13,0,0,1,20,10c.06.11.11.28.17.39.17.5-.11.78-.62.84a10.78,10.78,0,0,1-1.34.06c-.56,0-1.18.06-1.73.06a1.77,1.77,0,0,1-1.29-.5c-.39-.34-.73-.73-1.12-1.12l-.84-.84A1.22,1.22,0,0,0,13,8.74a.45.45,0,0,0-.62.11,2,2,0,0,0-.5,1.23,2.51,2.51,0,0,1-.06.62.63.63,0,0,1-.62.67,6.83,6.83,0,0,1-4.87-1.12A10.52,10.52,0,0,1,3.81,7.79,34.73,34.73,0,0,1,.06,1.19C.06,1.13,0,1.08,0,1Z"/></g></g></svg>