<?xml version="1.0" encoding="utf-8"?>
<!-- Generator: Adobe Illustrator 15.0.0, SVG Export Plug-In . SVG Version: 6.00 Build 0)  -->
<!DOCTYPE svg PUBLIC "-//W3C//DTD SVG 1.1//EN" "http://www.w3.org/Graphics/SVG/1.1/DTD/svg11.dtd">
<svg version="1.1" id="Layer_1" xmlns="http://www.w3.org/2000/svg" xmlns:xlink="http://www.w3.org/1999/xlink" x="0px" y="0px"
	 width="20.667px" height="20.731px" viewBox="118.672 0.131 20.667 20.731" enable-background="new 118.672 0.131 20.667 20.731"
	 xml:space="preserve">
<path fill="#FFFFFF" d="M123.774,20.714c-2.86-0.192-5.066-2.594-5.014-5.46c-0.117-3.18-0.117-6.36,0-9.54
	c-0.03-3.009,2.385-5.473,5.394-5.503c0.064,0,0.129,0,0.193,0.001c3.085-0.106,6.18-0.106,9.265-0.011
	c3.037-0.089,5.572,2.3,5.662,5.337c0.003,0.118,0.003,0.237-0.002,0.355c0.092,3.067,0.092,6.137,0,9.211
	c0.077,3.062-2.342,5.605-5.403,5.682c-0.075,0.002-0.149,0.002-0.226,0.001C132.085,20.862,125.491,20.937,123.774,20.714z
	 M129,2.057L129,2.057c-1.474,0-2.947,0-4.42,0c-2.052-0.114-3.808,1.457-3.921,3.509c-0.007,0.131-0.007,0.262-0.001,0.392
	c-0.113,3.025-0.113,6.049,0,9.074c-0.116,2.035,1.439,3.777,3.473,3.894c0.153,0.009,0.307,0.008,0.46-0.003
	c2.975,0.064,5.951,0.064,8.925,0c2.021,0.144,3.775-1.379,3.918-3.398c0.011-0.15,0.012-0.3,0.004-0.449
	c0.086-3.053,0.086-6.106,0-9.159c0.093-2.035-1.482-3.76-3.518-3.852c-0.135-0.006-0.27-0.005-0.404,0.004
	C131.979,2.003,130.494,2.057,129,2.057z"/>
<path fill="#FFFFFF" d="M129.021,5.152c2.928,0,5.301,2.373,5.301,5.3c0,2.927-2.373,5.3-5.301,5.3c-2.927,0-5.3-2.373-5.3-5.3
	C123.721,7.525,126.094,5.152,129.021,5.152L129.021,5.152z M129.021,13.951c1.909-0.006,3.452-1.559,3.446-3.467
	c-0.006-1.908-1.559-3.451-3.467-3.445c-1.904,0.006-3.445,1.551-3.445,3.456C125.561,12.405,127.111,13.951,129.021,13.951z"/>
<path fill="#FFFFFF" d="M134.533,6.191c-0.679,0-1.229-0.551-1.229-1.23c0-0.003,0-0.007,0-0.01c-0.063-0.682,0.438-1.287,1.12-1.35
	c0.683-0.063,1.287,0.438,1.35,1.121c0.008,0.076,0.008,0.153,0,0.229c0.006,0.679-0.539,1.234-1.219,1.24
	C134.548,6.191,134.541,6.191,134.533,6.191z"/>
</svg>
