<?xml version="1.0" encoding="utf-8"?>
<!-- Generator: Adobe Illustrator 15.0.0, SVG Export Plug-In . SVG Version: 6.00 Build 0)  -->
<!DOCTYPE svg PUBLIC "-//W3C//DTD SVG 1.1//EN" "http://www.w3.org/Graphics/SVG/1.1/DTD/svg11.dtd">
<svg version="1.1" id="Layer_1" xmlns="http://www.w3.org/2000/svg" xmlns:xlink="http://www.w3.org/1999/xlink" x="0px" y="0px"
	 width="37.769px" height="21.042px" viewBox="109.936 0.004 37.769 21.042" enable-background="new 109.936 0.004 37.769 21.042"
	 xml:space="preserve">
<path fill="#FFFFFF" d="M110.363,1.361c0.197-0.319,0.545-0.514,0.919-0.515h5.352c0.795-0.059,1.538,0.402,1.839,1.14
	c0.919,1.949,1.949,3.917,2.887,5.866c0.397,0.829,0.96,1.567,1.655,2.17c0.202,0.11,0.313,0.202,0.515,0.313
	c0.375,0.181,0.826,0.023,1.007-0.352c0.008-0.017,0.016-0.035,0.023-0.053c0.28-0.611,0.418-1.277,0.405-1.949
	c0.24-1.574,0.171-3.179-0.203-4.726c-0.128-0.855-0.799-1.527-1.655-1.655c-0.607-0.128-0.607-0.239-0.294-0.644
	c0.359-0.437,0.888-0.698,1.453-0.717c2.097-0.314,4.229-0.314,6.326,0c1.03,0.202,1.435,0.515,1.544,1.839
	c0.053,0.961,0.053,1.925,0,2.887V8.68c0.018,0.387,0.085,0.771,0.203,1.14c0.313,0.717,0.827,0.827,1.434,0.313
	c0.926-0.815,1.693-1.793,2.262-2.887c1.021-1.592,1.883-3.279,2.574-5.039c0.405-1.232,0.626-1.342,1.656-1.342
	c1.949,0,3.916,0,5.865-0.11c0.311-0.014,0.621,0.024,0.92,0.11c0.447,0.095,0.732,0.535,0.637,0.982
	c-0.004,0.016-0.008,0.032-0.012,0.048c-0.125,0.869-0.48,1.688-1.029,2.372c-1.232,1.839-2.574,3.678-3.918,5.351
	c-0.311,0.386-0.587,0.798-0.826,1.232c-0.45,0.623-0.38,1.48,0.165,2.022c0.827,0.919,1.839,1.839,2.574,2.575
	c0.933,0.891,1.771,1.877,2.501,2.941c0.11,0.202,0.202,0.516,0.313,0.717c0.313,0.92-0.202,1.435-1.141,1.545
	c-0.818,0.088-1.641,0.125-2.463,0.11c-1.03,0-2.17,0.11-3.182,0.11c-0.883,0.028-1.739-0.304-2.373-0.92
	c-0.717-0.625-1.342-1.342-2.059-2.059l-1.545-1.545c-0.131-0.107-0.271-0.2-0.423-0.275c-0.372-0.254-0.878-0.164-1.14,0.201
	c-0.556,0.628-0.88,1.426-0.92,2.263c0.011,0.383-0.026,0.767-0.11,1.14c0.04,0.639-0.444,1.189-1.083,1.23
	c-0.019,0.001-0.038,0.002-0.057,0.002c-3.139,0.469-6.338-0.267-8.956-2.06c-1.788-1.237-3.354-2.767-4.634-4.524
	c-2.735-3.781-5.047-7.851-6.896-12.136c0-0.11-0.11-0.203-0.11-0.35V1.361z"/>
</svg>
