<svg xmlns="http://www.w3.org/2000/svg" viewBox="0 0 19.74 19.81"><defs><style>.cls-1{fill:#fff;stroke:#fff;stroke-miterlimit:10;stroke-width:0.25px;}</style></defs><title>Ресурс 33</title><g id="Слой_2" data-name="Слой 2"><g id="Слой_1-2" data-name="Слой 1"><path class="cls-1" d="M4.94,19.54A5.07,5.07,0,0,1,.21,14.39c-.11-3-.11-6,0-9A5.14,5.14,0,0,1,5.48.2C8.39.1,11.31.1,14.22.19a5.19,5.19,0,0,1,5.34,5.37q.13,4.34,0,8.69a5.23,5.23,0,0,1-5.31,5.36C12.78,19.68,6.56,19.75,4.94,19.54ZM9.87,1.94h0c-1.39,0-2.78,0-4.17,0A3.51,3.51,0,0,0,2,5.62Q1.84,9.9,2,14.18a3.48,3.48,0,0,0,3.71,3.67q4.21.09,8.42,0a3.46,3.46,0,0,0,3.7-3.63q.12-4.32,0-8.64a3.48,3.48,0,0,0-3.7-3.63C12.68,1.89,11.28,1.94,9.87,1.94Z"/><path class="cls-1" d="M9.89,4.86a5,5,0,1,1-5,5A5,5,0,0,1,9.89,4.86Zm0,8.3A3.26,3.26,0,1,0,6.62,9.9,3.27,3.27,0,0,0,9.89,13.16Z"/><path class="cls-1" d="M15.09,5.84a1.16,1.16,0,0,1-1.16-1.17,1.17,1.17,0,1,1,2.33,0A1.16,1.16,0,0,1,15.09,5.84Z"/></g></g></svg>