<?xml version="1.0" encoding="utf-8"?>
<!-- Generator: Adobe Illustrator 15.0.0, SVG Export Plug-In . SVG Version: 6.00 Build 0)  -->
<!DOCTYPE svg PUBLIC "-//W3C//DTD SVG 1.1//EN" "http://www.w3.org/Graphics/SVG/1.1/DTD/svg11.dtd">
<svg version="1.1" id="Layer_1" xmlns="http://www.w3.org/2000/svg" xmlns:xlink="http://www.w3.org/1999/xlink" x="0px" y="0px"
	 width="21px" height="13.021px" viewBox="0 0 21 13.021" enable-background="new 0 0 21 13.021" xml:space="preserve">
<path fill="#FFFFFF" d="M10.066,0C4.575,0,1.32,6.51,1.32,6.51s3.255,6.51,8.746,6.51c5.359,0,8.614-6.51,8.614-6.51
	S15.426,0,10.066,0z M10,10.851c-2.387,0-4.34-1.931-4.34-4.34c0-2.388,1.953-4.34,4.34-4.34c2.41,0,4.34,1.952,4.34,4.34
	C14.341,8.92,12.41,10.851,10,10.851z M12.171,6.51c0,1.204-0.966,2.17-2.17,2.17c-1.204,0-2.17-0.967-2.17-2.17S8.797,4.34,10,4.34
	C11.205,4.34,12.171,5.307,12.171,6.51z"/>
</svg>
