<svg xmlns="http://www.w3.org/2000/svg" viewBox="0 0 11.07 11.07"><defs><style>.cls-1{fill:#fff;}</style></defs><title>Ресурс 36</title><g id="Слой_2" data-name="Слой 2"><g id="Слой_1-2" data-name="Слой 1"><path class="cls-1" d="M11,8.83,11,8.66a1.56,1.56,0,0,0-1-.9l-1.45-.4a1.42,1.42,0,0,0-1.25.33l-.52.53A5.59,5.59,0,0,1,2.86,4.28l.53-.53a1.42,1.42,0,0,0,.33-1.24l-.4-1.45a1.56,1.56,0,0,0-.9-1L2.25.05A1.31,1.31,0,0,0,1,.34l-.79.79A1.5,1.5,0,0,0,0,1.67a9.29,9.29,0,0,0,9.38,9.4,1.48,1.48,0,0,0,.57-.23l.79-.79A1.32,1.32,0,0,0,11,8.83Z"/></g></g></svg>