<svg xmlns="http://www.w3.org/2000/svg" viewBox="0 0 11.61 12.2"><defs><style>.cls-1{fill:#fff;fill-rule:evenodd;}</style></defs><title>Ресурс 37</title><g id="Слой_2" data-name="Слой 2"><g id="Слой_1-2" data-name="Слой 1"><path class="cls-1" d="M6.33,0h.1a1.09,1.09,0,0,1,0,.18.32.32,0,0,0,.17.45l.26.1c.24.07.5.13.73.22a1.37,1.37,0,0,1,1,1.18,7.36,7.36,0,0,1,0,.82c0,.38,0,.75,0,1.13a.23.23,0,0,0,.13.24.16.16,0,0,1,.08.19c-.08.4-.15.79-.24,1.19,0,.12-1,1.59-1,1.69s.16.44.19.68c0,.09.33.16.41.2a.37.37,0,0,1,.2.24c0,.14.09.29.15.43a.27.27,0,0,0,.11.13l1.1.58,1.75.93a.33.33,0,0,1,.21.34c0,.32,0,.63,0,.95a.32.32,0,0,1-.17.33H.17A.32.32,0,0,1,0,11.87c0-.32,0-.64,0-1a.32.32,0,0,1,.2-.32l1.3-.68,1.56-.83a.27.27,0,0,0,.11-.13c.06-.14.09-.3.15-.44s.37-.16.44-.22S4,8.16,4,8.06s.15-.36.19-.57-1-1.37-1-1.57S3.06,5.46,3,5.23s-.09-.46-.13-.7c0-.08,0-.17.07-.21a.26.26,0,0,0,.14-.27c0-.59,0-1.19,0-1.78A1.41,1.41,0,0,1,4,1C4.47.74,5,.53,5.51.31Z"/></g></g></svg>