<?xml version="1.0" encoding="utf-8"?>
<!-- Generator: Adobe Illustrator 15.0.0, SVG Export Plug-In . SVG Version: 6.00 Build 0)  -->
<!DOCTYPE svg PUBLIC "-//W3C//DTD SVG 1.1//EN" "http://www.w3.org/Graphics/SVG/1.1/DTD/svg11.dtd">
<svg version="1.1" id="Layer_1" xmlns="http://www.w3.org/2000/svg" xmlns:xlink="http://www.w3.org/1999/xlink" x="0px" y="0px"
	 width="251.22px" height="21px" viewBox="0 0 251.22 21" enable-background="new 0 0 251.22 21" xml:space="preserve">
<path fill="#192739" d="M6.094,0.235c3.029,0,5.352,0.532,6.974,1.597C14.689,2.896,15.5,4.639,15.5,7.061
	c0,2.443-0.821,4.205-2.462,5.291c-1.64,1.084-3.985,1.626-7.032,1.626H4.571v6.799H0V0.762c0.997-0.196,2.05-0.332,3.164-0.41
	C4.278,0.273,5.254,0.235,6.094,0.235z M6.388,4.132c-0.333,0-0.66,0.009-0.983,0.028c-0.322,0.019-0.6,0.042-0.834,0.06v5.858
	h1.436c1.583,0,2.775-0.215,3.575-0.644c0.801-0.428,1.202-1.229,1.202-2.403c0-0.565-0.103-1.035-0.308-1.405
	C10.27,5.255,9.976,4.956,9.596,4.731C9.214,4.507,8.751,4.352,8.204,4.264C7.657,4.173,7.052,4.132,6.388,4.132z M18.87,20.776
	V0.469h13.713v3.839H23.44v3.985h8.115v3.751H23.44v4.894h9.816v3.839H18.87z M55.436,10.608c0,1.736-0.258,3.267-0.775,4.584
	c-0.519,1.32-1.226,2.421-2.122,3.311c-0.9,0.889-1.972,1.556-3.208,2.01c-1.237,0.449-2.575,0.671-4,0.671
	c-1.387,0-2.696-0.222-3.927-0.671c-1.229-0.454-2.304-1.121-3.222-2.01c-0.923-0.89-1.646-1.99-2.174-3.311
	c-0.527-1.317-0.791-2.848-0.791-4.584c0-1.741,0.273-3.267,0.821-4.589c0.548-1.315,1.284-2.424,2.211-3.323
	c0.929-0.899,2.003-1.573,3.223-2.022C42.693,0.225,43.978,0,45.325,0c1.385,0,2.696,0.225,3.925,0.674
	c1.227,0.449,2.305,1.123,3.223,2.022c0.918,0.898,1.641,2.007,2.167,3.323C55.173,7.341,55.436,8.867,55.436,10.608z
	 M39.937,10.608c0,0.995,0.123,1.892,0.364,2.692c0.247,0.802,0.596,1.491,1.057,2.065c0.46,0.577,1.021,1.021,1.682,1.336
	c0.665,0.31,1.427,0.467,2.288,0.467c0.84,0,1.595-0.157,2.271-0.467c0.676-0.314,1.24-0.759,1.7-1.336
	c0.458-0.574,0.811-1.264,1.055-2.065c0.244-0.801,0.366-1.697,0.366-2.692c0-0.998-0.124-1.901-0.366-2.711
	c-0.242-0.811-0.599-1.505-1.055-2.082c-0.459-0.574-1.026-1.021-1.7-1.332c-0.673-0.315-1.431-0.47-2.271-0.47
	c-0.861,0-1.621,0.16-2.288,0.484c-0.661,0.322-1.225,0.771-1.682,1.348c-0.458,0.574-0.81,1.271-1.057,2.082
	C40.059,8.737,39.937,9.631,39.937,10.608z M65.34,0.235c3.027,0,5.35,0.532,6.971,1.597c1.622,1.065,2.431,2.808,2.431,5.229
	c0,2.443-0.82,4.205-2.461,5.291c-1.64,1.084-3.983,1.626-7.031,1.626h-1.436v6.799h-4.572V0.762
	c0.996-0.196,2.051-0.332,3.165-0.41C63.523,0.273,64.5,0.235,65.34,0.235z M65.632,4.132c-0.333,0-0.661,0.009-0.981,0.028
	c-0.322,0.019-0.601,0.042-0.834,0.06v5.858h1.436c1.582,0,2.772-0.215,3.574-0.644c0.801-0.428,1.202-1.229,1.202-2.403
	c0-0.565-0.102-1.035-0.308-1.405c-0.205-0.371-0.498-0.669-0.88-0.894c-0.377-0.225-0.844-0.379-1.388-0.468
	C66.902,4.173,66.297,4.132,65.632,4.132z M91.677,16.85v3.927H78.112V0.469h4.572V16.85H91.677z M94.608,20.776V0.469h13.713v3.839
	h-9.143v3.985h8.116v3.751h-8.116v4.894h9.816v3.839H94.608z M119.396,0.469h4.568v20.308h-4.568V0.469z M142.278,20.776
	c-1.307-2.324-2.723-4.623-4.248-6.888c-1.521-2.267-3.144-4.406-4.865-6.416v13.303h-4.511V0.469h3.722
	c0.646,0.645,1.356,1.436,2.137,2.374c0.781,0.936,1.576,1.938,2.391,3.003c0.812,1.067,1.617,2.167,2.419,3.313
	c0.801,1.139,1.55,2.242,2.255,3.294V0.469h4.541v20.308H142.278z M163.376,17.289c0.644,0,1.179-0.051,1.598-0.162
	c0.42-0.106,0.758-0.254,1.012-0.438c0.25-0.188,0.429-0.405,0.524-0.66c0.1-0.257,0.147-0.537,0.147-0.852
	c0-0.662-0.31-1.216-0.935-1.656c-0.63-0.438-1.703-0.909-3.225-1.421c-0.664-0.234-1.33-0.5-1.992-0.806
	c-0.661-0.299-1.26-0.681-1.786-1.142c-0.527-0.458-0.961-1.014-1.285-1.669c-0.337-0.655-0.501-1.452-0.501-2.387
	c0-0.938,0.177-1.78,0.529-2.537c0.353-0.753,0.849-1.39,1.493-1.918c0.641-0.527,1.425-0.932,2.347-1.216
	C162.217,0.143,163.252,0,164.404,0c1.37,0,2.551,0.147,3.543,0.44c0.995,0.293,1.814,0.616,2.465,0.967l-1.323,3.603
	c-0.567-0.292-1.197-0.549-1.888-0.775c-0.696-0.225-1.53-0.336-2.507-0.336c-1.092,0-1.881,0.15-2.358,0.454
	c-0.479,0.301-0.72,0.766-0.72,1.392c0,0.373,0.092,0.681,0.268,0.938c0.176,0.255,0.425,0.484,0.744,0.688
	c0.326,0.206,0.696,0.392,1.116,0.558c0.419,0.165,0.882,0.333,1.392,0.512c1.055,0.392,1.971,0.776,2.752,1.158
	c0.782,0.382,1.431,0.824,1.95,1.334c0.516,0.507,0.902,1.104,1.157,1.785c0.254,0.686,0.378,1.517,0.378,2.492
	c0,1.897-0.659,3.365-1.985,4.407c-1.331,1.046-3.332,1.569-6.01,1.569c-0.896,0-1.706-0.056-2.431-0.162
	c-0.727-0.106-1.367-0.235-1.918-0.394c-0.56-0.157-1.039-0.324-1.436-0.495c-0.4-0.176-0.739-0.343-1.01-0.5l1.287-3.637
	c0.605,0.334,1.349,0.632,2.241,0.895C160.997,17.155,162.089,17.289,163.376,17.289z M180.988,0.235
	c3.028,0,5.351,0.532,6.972,1.597s2.432,2.808,2.432,5.229c0,2.443-0.82,4.205-2.459,5.291c-1.645,1.084-3.99,1.626-7.037,1.626
	h-1.436v6.799h-4.568V0.762c0.996-0.196,2.052-0.332,3.16-0.41C179.171,0.273,180.147,0.235,180.988,0.235z M181.28,4.132
	c-0.336,0-0.66,0.009-0.984,0.028c-0.319,0.019-0.6,0.042-0.834,0.06v5.858h1.436c1.584,0,2.774-0.215,3.575-0.644
	c0.802-0.428,1.204-1.229,1.204-2.403c0-0.565-0.106-1.035-0.311-1.405c-0.206-0.371-0.497-0.669-0.877-0.894
	c-0.382-0.225-0.846-0.379-1.392-0.468C182.547,4.173,181.942,4.132,181.28,4.132z M213.097,10.608c0,1.736-0.258,3.267-0.776,4.584
	c-0.516,1.32-1.227,2.421-2.123,3.311c-0.896,0.889-1.971,1.556-3.209,2.01c-1.234,0.449-2.57,0.671-3.996,0.671
	c-1.388,0-2.698-0.222-3.93-0.671c-1.231-0.454-2.302-1.121-3.221-2.01c-0.917-0.89-1.642-1.99-2.165-3.311
	c-0.532-1.317-0.792-2.848-0.792-4.584c0-1.741,0.269-3.267,0.819-4.589c0.552-1.315,1.281-2.424,2.212-3.323
	c0.924-0.899,2.003-1.573,3.223-2.022C200.359,0.225,201.64,0,202.992,0c1.38,0,2.694,0.225,3.922,0.674s2.302,1.123,3.221,2.022
	c0.917,0.898,1.642,2.007,2.167,3.323C212.835,7.341,213.097,8.867,213.097,10.608z M197.599,10.608
	c0,0.995,0.123,1.892,0.366,2.692c0.243,0.802,0.598,1.491,1.054,2.065c0.461,0.577,1.021,1.021,1.684,1.336
	c0.669,0.31,1.426,0.467,2.29,0.467c0.838,0,1.593-0.157,2.269-0.467c0.674-0.314,1.243-0.759,1.699-1.336
	c0.457-0.574,0.811-1.264,1.054-2.065c0.246-0.801,0.366-1.697,0.366-2.692c0-0.998-0.123-1.901-0.366-2.711
	c-0.238-0.811-0.595-1.505-1.054-2.082c-0.458-0.574-1.025-1.021-1.699-1.332c-0.674-0.315-1.431-0.47-2.269-0.47
	c-0.864,0-1.621,0.16-2.29,0.484c-0.662,0.322-1.226,0.771-1.684,1.348c-0.456,0.574-0.811,1.271-1.054,2.082
	C197.722,8.737,197.599,9.631,197.599,10.608z M222.854,0.235c3.047,0,5.381,0.542,7.002,1.627c1.621,1.083,2.431,2.768,2.431,5.056
	c0,1.424-0.326,2.582-0.977,3.471c-0.66,0.887-1.598,1.586-2.827,2.093c0.41,0.51,0.838,1.091,1.287,1.746
	c0.447,0.652,0.892,1.336,1.336,2.051c0.438,0.71,0.861,1.456,1.27,2.225c0.412,0.773,0.791,1.528,1.144,2.273h-5.11
	c-0.37-0.667-0.75-1.343-1.135-2.023c-0.382-0.686-0.771-1.348-1.171-1.991c-0.401-0.646-0.802-1.257-1.193-1.833
	c-0.391-0.576-0.787-1.098-1.178-1.567h-2.256v7.415h-4.568V0.762c0.996-0.196,2.026-0.332,3.092-0.41
	C221.062,0.273,222.016,0.235,222.854,0.235z M223.117,4.132c-0.328,0-0.63,0.009-0.894,0.028c-0.259,0.019-0.514,0.042-0.748,0.06
	v5.509h1.292c1.719,0,2.948-0.215,3.691-0.644c0.74-0.433,1.111-1.162,1.111-2.2c0-0.993-0.375-1.704-1.126-2.123
	C225.692,4.34,224.581,4.132,223.117,4.132z M251.22,0.469v3.897h-6.124v16.411h-4.573V4.366H234.4V0.469H251.22z"/>
</svg>
