<?xml version="1.0" encoding="utf-8"?>
<!-- Svg Vector Icons : http://www.onlinewebfonts.com/icon -->
<!DOCTYPE svg PUBLIC "-//W3C//DTD SVG 1.1//EN" "http://www.w3.org/Graphics/SVG/1.1/DTD/svg11.dtd">
<svg version="1.1" xmlns="http://www.w3.org/2000/svg" xmlns:xlink="http://www.w3.org/1999/xlink" x="0px" y="0px" viewBox="0 0 1000 1000" enable-background="new 0 0 1000 1000" xml:space="preserve">
<path fill="#fc1050" d="M988.4,449.9c1-2.4,1.6-5.1,1.6-7.8c0-2.7-0.5-5.3-1.6-7.8c-1-2.5-2.5-4.7-4.4-6.5L844.4,288.1c-7.9-7.9-20.7-7.9-28.6,0c-7.9,7.9-7.9,20.7,0,28.6l105.2,105.2H470.4c-11.2,0-20.2,9.1-20.2,20.2c0,11.2,9,20.2,20.2,20.2h450.5L815.8,567.5c-7.9,7.9-7.9,20.7,0,28.6c3.9,3.9,9.1,5.9,14.3,5.9c5.2,0,10.4-2,14.3-5.9l139.7-139.7C985.9,454.5,987.4,452.3,988.4,449.9z"/><path fill="#fc1050" d="M671.1,535.4c-11.2,0-20.2,9.1-20.2,20.2v222.8H359.3V201.3c0-7.3-3.9-14-10.3-17.6L109,47.6h541.9v280.9c0,11.2,9,20.2,20.2,20.2c11.2,0,20.2-9.1,20.2-20.2V27.4c0-11.2-9-20.2-20.2-20.2H30.2C19,7.1,10,16.2,10,27.4v771.3c0,9.4,6.5,16.9,15.2,19.2l303.9,172.4c3.1,1.8,6.5,2.6,10,2.6c3.5,0,7-0.9,10.2-2.8c6.2-3.6,10.1-10.3,10.1-17.5V818.9h311.8c11.2,0,20.2-9.1,20.2-20.2v-243C691.3,544.5,682.3,535.4,671.1,535.4z M318.8,937.9l-266.3-151V62.1l266.3,151V937.9L318.8,937.9z"/>
</svg>
