<?xml version="1.0" encoding="utf-8"?>
<!-- Generator: Adobe Illustrator 15.0.0, SVG Export Plug-In . SVG Version: 6.00 Build 0)  -->
<!DOCTYPE svg PUBLIC "-//W3C//DTD SVG 1.1//EN" "http://www.w3.org/Graphics/SVG/1.1/DTD/svg11.dtd">
<svg version="1.1" id="Layer_1" xmlns="http://www.w3.org/2000/svg" xmlns:xlink="http://www.w3.org/1999/xlink" x="0px" y="0px"
	 width="251px" height="21px" viewBox="0 0 251 21" enable-background="new 0 0 251 21" xml:space="preserve">
<path fill="#2B2A29" d="M5.74,0.315c3.028,0,5.369,0.531,7,1.592c1.632,1.062,2.438,2.654,2.438,4.758
	c0,1.16-0.217,2.143-0.669,2.949c-0.451,0.827-1.081,1.474-1.927,1.987c-0.845,0.51-1.868,0.884-3.067,1.101
	c-1.199,0.235-2.556,0.354-4.09,0.354H3.028v7.392H0V0.787C0.845,0.59,1.809,0.473,2.85,0.394c1.042-0.059,2.005-0.098,2.89-0.098
	V0.315z M5.996,2.753c-1.278,0-2.28,0.02-2.968,0.079v7.825h2.28c1.042,0,1.965-0.059,2.813-0.196
	c0.825-0.118,1.533-0.334,2.103-0.63c0.57-0.294,1.003-0.708,1.318-1.217c0.314-0.513,0.472-1.181,0.472-1.986
	c0-0.767-0.157-1.396-0.492-1.908c-0.314-0.491-0.767-0.903-1.317-1.198c-0.55-0.295-1.18-0.512-1.907-0.61
	c-0.728-0.118-1.494-0.176-2.3-0.176V2.753z M18.952,20.468V0.512h13.173V2.91H21.961v5.938h9.043v2.339h-9.043v6.901h10.931v2.399
	H18.933L18.952,20.468z M34.996,10.48c0-1.71,0.276-3.225,0.826-4.523c0.55-1.297,1.298-2.398,2.241-3.263
	c0.944-0.865,2.045-1.534,3.304-1.966c1.258-0.433,2.594-0.668,4.01-0.668c1.397,0,2.713,0.216,3.933,0.668
	c1.238,0.433,2.32,1.101,3.263,1.966c0.944,0.865,1.672,1.966,2.222,3.263c0.551,1.298,0.826,2.813,0.826,4.523
	c0,1.709-0.275,3.225-0.826,4.522c-0.55,1.297-1.298,2.398-2.222,3.263c-0.943,0.865-2.025,1.534-3.263,1.967
	c-1.238,0.433-2.557,0.668-3.933,0.668c-1.416,0-2.751-0.216-4.01-0.668c-1.259-0.433-2.36-1.102-3.304-1.967
	c-0.943-0.864-1.69-1.966-2.241-3.263C35.272,13.705,34.996,12.189,34.996,10.48z M38.182,10.48c0,1.218,0.157,2.301,0.491,3.304
	c0.334,0.981,0.806,1.828,1.416,2.516s1.357,1.219,2.242,1.593c0.885,0.373,1.868,0.57,2.968,0.57c1.102,0,2.085-0.197,2.97-0.57
	c0.864-0.374,1.612-0.905,2.222-1.593c0.609-0.688,1.081-1.534,1.416-2.516c0.334-0.983,0.492-2.086,0.492-3.304
	c0-1.22-0.157-2.3-0.492-3.304c-0.334-0.982-0.806-1.827-1.416-2.516c-0.61-0.688-1.357-1.219-2.222-1.593
	c-0.866-0.374-1.868-0.57-2.97-0.57c-1.1,0-2.083,0.197-2.968,0.57c-0.884,0.374-1.632,0.904-2.242,1.593s-1.081,1.533-1.416,2.516
	C38.339,8.161,38.182,9.261,38.182,10.48z M65.844,0.315c3.028,0,5.368,0.531,7,1.592c1.631,1.062,2.437,2.654,2.437,4.758
	c0,1.16-0.216,2.143-0.668,2.949c-0.453,0.827-1.081,1.474-1.927,1.987c-0.846,0.51-1.868,0.884-3.068,1.101
	c-1.199,0.235-2.555,0.354-4.088,0.354h-2.399v7.392h-3.027V0.787c0.845-0.197,1.809-0.314,2.85-0.394
	c1.043-0.059,2.006-0.098,2.891-0.098V0.315z M66.101,2.753c-1.279,0-2.281,0.02-2.97,0.079v7.825h2.281
	c1.042,0,1.966-0.059,2.811-0.196c0.826-0.118,1.534-0.334,2.104-0.63c0.57-0.294,1.002-0.708,1.317-1.217
	c0.315-0.513,0.473-1.181,0.473-1.986c0-0.767-0.157-1.396-0.492-1.908c-0.314-0.491-0.767-0.903-1.318-1.198
	c-0.55-0.295-1.179-0.512-1.906-0.61c-0.728-0.118-1.494-0.176-2.3-0.176V2.753z M92.052,18.05v2.418H79.057V0.512h3.028V18.05
	H92.052z M95.237,20.468V0.512h13.173V2.91H98.246v5.938h9.043v2.339h-9.043v6.901h10.93v2.399H95.218L95.237,20.468z
	 M162.302,18.482c3.165,0,4.738-1.003,4.738-2.988c0-0.61-0.138-1.142-0.414-1.574c-0.275-0.432-0.668-0.806-1.139-1.119
	c-0.474-0.315-1.022-0.59-1.633-0.827c-0.609-0.236-1.259-0.451-1.946-0.688c-0.786-0.255-1.534-0.53-2.241-0.845
	c-0.709-0.315-1.318-0.689-1.828-1.122c-0.512-0.432-0.925-0.943-1.239-1.533c-0.295-0.59-0.452-1.317-0.452-2.163
	c0-1.75,0.648-3.106,1.927-4.09c1.278-0.983,3.066-1.475,5.327-1.475c1.318,0,2.497,0.138,3.56,0.393
	c1.062,0.255,1.848,0.551,2.359,0.846l-0.963,2.281c-0.434-0.255-1.082-0.492-1.947-0.728s-1.867-0.354-3.009-0.354
	c-0.589,0-1.119,0.059-1.611,0.177c-0.492,0.118-0.942,0.294-1.316,0.511c-0.374,0.236-0.67,0.531-0.886,0.885
	c-0.217,0.354-0.334,0.767-0.334,1.259c0,0.531,0.117,0.982,0.334,1.355c0.237,0.374,0.551,0.689,0.964,0.965
	c0.413,0.275,0.904,0.531,1.454,0.766c0.551,0.237,1.16,0.452,1.83,0.688c0.942,0.354,1.787,0.688,2.574,1.042
	c0.786,0.354,1.456,0.768,2.026,1.239c0.569,0.472,1.021,1.042,1.316,1.711c0.314,0.667,0.471,1.454,0.471,2.398
	c0,1.749-0.688,3.086-2.063,4.029c-1.377,0.944-3.323,1.416-5.84,1.416c-0.846,0-1.633-0.059-2.36-0.157
	c-0.707-0.098-1.356-0.235-1.905-0.373c-0.571-0.138-1.044-0.295-1.456-0.453c-0.413-0.156-0.727-0.294-0.943-0.413l0.904-2.3
	c0.472,0.256,1.199,0.531,2.183,0.826c0.982,0.315,2.162,0.452,3.578,0.452L162.302,18.482z M179.584,0.315
	c3.027,0,5.367,0.531,6.999,1.592c1.631,1.062,2.438,2.654,2.438,4.758c0,1.16-0.216,2.143-0.668,2.949
	c-0.452,0.827-1.081,1.474-1.928,1.987c-0.846,0.51-1.867,0.884-3.067,1.101c-1.198,0.235-2.555,0.354-4.088,0.354h-2.398v7.392
	h-3.029V0.787c0.847-0.197,1.809-0.314,2.852-0.394c1.043-0.059,2.006-0.098,2.891-0.098V0.315z M179.838,2.753
	c-1.296,0-2.279,0.02-2.967,0.079v7.825h2.279c1.043,0,1.967-0.059,2.813-0.196c0.824-0.118,1.533-0.334,2.103-0.63
	c0.571-0.294,1.004-0.708,1.317-1.217c0.315-0.513,0.474-1.181,0.474-1.986c0-0.767-0.158-1.396-0.492-1.908
	c-0.313-0.491-0.767-0.903-1.318-1.198c-0.55-0.295-1.178-0.512-1.906-0.61c-0.728-0.118-1.493-0.176-2.302-0.176V2.753z
	 M191.931,10.48c0-1.71,0.274-3.225,0.826-4.523c0.55-1.297,1.297-2.398,2.24-3.263c0.944-0.865,2.046-1.534,3.305-1.966
	c1.257-0.433,2.595-0.668,4.009-0.668c1.397,0,2.714,0.216,3.934,0.668c1.237,0.433,2.32,1.101,3.263,1.966
	c0.944,0.865,1.672,1.966,2.223,3.263c0.551,1.298,0.826,2.813,0.826,4.523c0,1.709-0.275,3.225-0.826,4.522
	c-0.551,1.297-1.299,2.398-2.223,3.263c-0.942,0.865-2.025,1.534-3.263,1.967c-1.238,0.433-2.557,0.668-3.934,0.668
	c-1.414,0-2.752-0.216-4.009-0.668c-1.259-0.433-2.36-1.102-3.305-1.967c-0.943-0.864-1.69-1.966-2.24-3.263
	C192.205,13.705,191.931,12.189,191.931,10.48z M195.115,10.48c0,1.218,0.156,2.301,0.491,3.304
	c0.335,0.981,0.807,1.828,1.416,2.516s1.357,1.219,2.241,1.593c0.886,0.373,1.868,0.57,2.969,0.57c1.102,0,2.086-0.197,2.97-0.57
	c0.864-0.374,1.612-0.905,2.222-1.593s1.08-1.534,1.415-2.516c0.334-0.983,0.492-2.086,0.492-3.304c0-1.22-0.158-2.3-0.492-3.304
	c-0.335-0.982-0.806-1.827-1.415-2.516s-1.357-1.219-2.222-1.593c-0.865-0.374-1.868-0.57-2.97-0.57
	c-1.101,0-2.083,0.197-2.969,0.57c-0.884,0.374-1.632,0.904-2.241,1.593s-1.081,1.533-1.416,2.516
	C195.271,8.161,195.115,9.261,195.115,10.48z M227.615,12.111c0.335,0.394,0.746,0.886,1.259,1.515
	c0.511,0.629,1.041,1.316,1.572,2.064c0.532,0.767,1.081,1.553,1.612,2.379c0.531,0.825,0.983,1.632,1.356,2.398h-3.304
	c-0.413-0.728-0.863-1.476-1.354-2.222c-0.492-0.747-0.984-1.456-1.477-2.143c-0.491-0.688-0.982-1.318-1.474-1.907
	c-0.492-0.59-0.924-1.121-1.318-1.554c-0.274,0.021-0.549,0.021-0.824,0.021s-0.571,0-0.866,0h-2.713v7.805h-3.028V0.807
	c0.846-0.196,1.81-0.314,2.852-0.393c1.043-0.059,2.005-0.098,2.89-0.098c3.028,0,5.348,0.531,6.939,1.592
	c1.594,1.062,2.381,2.635,2.381,4.719c0,1.317-0.374,2.457-1.14,3.401c-0.768,0.943-1.869,1.631-3.343,2.103L227.615,12.111z
	 M223.034,2.753c-1.277,0-2.28,0.02-2.969,0.079v7.511h2.144c1.042,0,1.966-0.041,2.811-0.139c0.826-0.098,1.533-0.274,2.104-0.55
	c0.57-0.275,1.022-0.649,1.318-1.141c0.315-0.492,0.472-1.14,0.472-1.947c0-0.746-0.156-1.376-0.472-1.868
	c-0.315-0.491-0.728-0.884-1.258-1.179c-0.531-0.295-1.161-0.492-1.869-0.61c-0.708-0.118-1.475-0.176-2.28-0.176V2.753z
	 M251.07,0.512V2.93h-6.783v17.538h-3.027V2.93h-6.783V0.512h16.614H251.07z M142.228,20.468c-0.451-0.708-0.982-1.515-1.573-2.398
	c-0.59-0.886-1.238-1.809-1.908-2.753c-0.687-0.944-1.396-1.906-2.141-2.89c-0.748-0.983-1.476-1.927-2.203-2.832
	c-0.728-0.904-1.435-1.769-2.123-2.576c-0.688-0.806-1.318-1.513-1.907-2.123v15.571h-2.969V0.512h2.398
	c0.983,0.963,2.025,2.083,3.126,3.362c1.121,1.278,2.222,2.596,3.304,3.952c1.08,1.356,2.122,2.674,3.086,3.99
	c0.964,1.298,1.789,2.458,2.438,3.48V0.532h2.97v19.957h-2.517L142.228,20.468z"/>
<polygon fill="#2B2A29" points="123.432,2.478 123.432,20.527 120.482,20.527 120.482,5.428 "/>
<polygon fill="#DC166E" points="120.482,0.571 123.432,0.571 120.482,3.521 "/>
</svg>
